<svg version="1.0" xmlns="http://www.w3.org/2000/svg" width="682.667" height="682.667" viewBox="0 0 512 512"><path d="M242.5.6C196.6 5.2 159.8 22.2 129 53c-54.2 54.2-68.2 135.7-35.1 204.5 6.9 14.4 149.7 245.4 154.7 250.2 6.2 6 16 5.3 21.5-1.7 4-5.2 141.5-235.1 146.5-245 8.2-16.4 13.6-32.8 17.1-52 2.1-11.6 2.3-42.5.4-54.5-6.3-39.8-23.4-73.8-51.1-101.5-27.5-27.5-62.4-45.2-100.9-51-8-1.2-33-2.1-39.6-1.4zM277 31.5c31.1 4.4 62.5 20.1 84.9 42.6 21.1 21.1 34.8 46.7 41.2 76.9 3.3 15.2 3.3 43 .1 58-3 13.9-7.4 26.4-13.2 38-2.7 5.2-33.4 57.1-68.3 115.3l-63.4 105.9-66.1-106.5c-36.3-58.6-68.1-110.5-70.5-115.3-9.8-19.6-14.5-37.9-15.4-60.4-2.7-69.1 41.4-130.4 107.7-149.9 19.9-5.9 42-7.5 63-4.6z"/><path d="M239.7 91.5c-33.8 6.4-61.7 32.4-70.8 66-3.1 11.4-3.2 33.5-.1 45 6.8 25.1 24.4 46.6 47.5 58 14.2 7 22.4 8.8 39.7 8.8 17.3.1 25.3-1.7 39.7-8.8 23.2-11.4 40.7-32.8 47.5-58 3.1-11.5 3-33.6-.1-45-8.5-31.2-33.8-56.5-64.6-64.5-10.6-2.8-28.3-3.5-38.8-1.5zm28.5 29.6c9.6 2 20.8 8 28.4 15.2 7.7 7.2 12.4 14.3 16.2 24.5 2.2 5.8 2.6 8.4 2.6 18.7.1 12.8-.9 17.5-6.2 28-7.2 14.7-23.1 27.1-39.3 31-37.3 8.8-73.8-20-73.9-58.2 0-9.8 1.5-16.3 6.1-26.2 7.2-15.5 23.3-28.6 40.3-32.7 6.5-1.6 19-1.7 25.8-.3z"/></svg>