<svg width="273" height="324" fill="none" xmlns="http://www.w3.org/2000/svg"><path d="M168.691 70.587C200.303 113.355 219.32 173.344 225 198.395c-2.371-6.725-6.75-16.975-8.644-21.26-13.336 40.295-62.236 27.688-63.718 3.955 10.274 17.404 28.155 17.14 35.811 14.833 38.527-14.437 14.735-44.251-1.976-57.353 8.693 3.362 17.946 12.938 21.486 17.305-11.459-47.069-66.105-110.75-92.366-136.46-27.66-28.429-45.936.495-70.139 20.766 54.827-76.883 69.398-26.452 123.237 30.406z" fill="#2B2B2B"/><path d="M149.181 218.172c-1.564-7.993-8.595-23.979-24.203-23.979-15.608 0-20.169-3.297-20.498-4.945-1.976 13.35-1.828 40.691 14.571 43.262 16.398 2.571 25.767-5.191 28.401-9.394-.659 5.191-6.075 15.475-22.474 15.08h-5.927c1.482 5.356 4.692 20.766 1.482 30.407 0-5.933-2.618-28.528-8.15-31.89-17.288-10.507-8.662-31.149-12.349-48.454-5.927-2.636-17.535-10.63-20.992-11.866 17.782 12.361 32.353 32.632.988 37.329-1.482 0-4.94-.445-6.915-2.225 8.479.165 24.054-2.966 18.522-16.81-.823-1.648-3.16-5.439-5.927-7.416-3.457-2.472-13.09-11.372-15.065-18.294-1.976-6.922-12.842 7.664-11.113 20.271 1.383 10.087 15.707 28.785 16.546 48.948.125 2.99 1.235 4.944 0 7.663-3.704-29.17-16.547-35.944-19.51-49.194-1.317 2.142-3.556 11.124-1.976 29.912-5.269-3.543-14.225-15.97-7.903-37.329-9.879 3.708-27.216-.84-17.535-17.057-2.716 7.087-2.815 19.282 18.523 11.371l1.235-8.405c-2.881-.494-8.002-5.24-5.434-20.271-.411 4.78.297 14.932 6.422 17.305 2.058-8.488 1.53-24.474-17.041-20.519.411-1.483 2.173-4.598 5.927-5.191-8.82-5.15-21.733-19.822-10.905-40.5-1.298 1.941-2.797 3.487-3.913 4.407C8.952 114.937 2.399 105.362 1 100.006c1.976 7.169 23.709 12.113 24.944 1.236-1.778-8.9 9.302-19.695 15.065-23.98-9.681 9.889-11.114 16.151-10.62 18.047.69 2.845.089 5.638-1.04 8.074a56.771 56.771 0 013.51-5.108c-3.622 8.817-8.397 28.182 1.482 35.104-2.388-6.922-1.828-25.66 19.51-45.24 7.985-7.828 18.375-24.671-3.951-29.417-4.363-.66-15.263.79-23.956 11.865C28.66 62.1 39.675 47.103 62 55.013c27.908 9.889 1.976 41.284 1.482 41.779-.494.494-30.624 36.092-10.373 53.644 2.964 1.896 8.644 7.812 7.656 16.316 1.4-.082 4.347-.89 4.94-3.461-2.964-2.884-8.348-10.135-6.175-16.068.577 3.955 3.606 12.212 11.114 13.596-7.82-10.053-19.214-35.104-2.223-54.88 1.07-2.308 3.013-8.801 2.223-16.316 1.317.577 3.803 3.46 3.21 10.383l-.015.177c-.517 6.022-2.86 33.321 8.113 55.198C87.321 151.59 98.044 142.12 93.5 135c-2.093-.165-7-1.5-11.547-6.318C94.353 132.39 113.617 139 115.5 123c2.718-23.1 3.501-60.57-43.126-62.548-1.427-1.096-4.175-3.033-6.592-4.3a30.879 30.879 0 01-2.793-1.139c.784.178 1.758.598 2.793 1.14 5.396 1.946 15.86 4.639 29.807 5.288-1.647-2.555-5.038-8.405-5.434-11.372C97.811 62.924 108.58 67.106 115 76.5c0 3.955 0 8.638 2.5 15 1.5 35.5 2 41.879-16.972 44.598.556 5.027-1.779 16.712-15.559 23.238l-3.016-3.955c5.908 11.776 15.675 21.982 31.664 26.451 36.795 10.284 39.04 28.512 35.564 36.34z" fill="#2B2B2B"/><path d="M57.062 65.643c-6.833-.33-22.721 0-32.353 23.98-1.317-11.372 11.607-36.587 32.353-23.98zm-43.714 36.34c-3.457-3.543-4.445-13.844 7.656-8.652-4.033-.302-11.212 1.005-7.656 8.652z" fill="#2B2B2B"/><path d="M11.62 88.14c-16.992 6.724-4.199 19.035 3.21 17.799C-1.568 98.61 5.94 89.87 17.3 88.634c-1.976-.742-2.964-.989-5.68-.495zm69.15-30.902c-8.89-6.757-32.303-15.92-54.826 1.484 5.433-10.136 43.367-30.358 54.827-1.484z" fill="#2B2B2B"/><path d="M84.722 50.564c-10.05-12.855-27.073-11.62-34.328-9.394 3.951-2.885 16.003-7.713 32.6-3.956 3.704-2.554 13.533-5.735 23.214 1.978 12.102 9.641 50.629 65.511 51.37 89.49-11.819-33.373-53.148-100.565-68.163-89.49 17.864 10.795 52.159 42.125 46.43 81.085-3.705 19.777-7.41 16.563-9.138 46.475-1.729-3.708-3.754-17.947 1.975-45.239 5.73-27.292-16.382-58.671-28.154-70.95-2.799-2.801-10.224-8.602-17.535-9.393 1.153 1.648 3.112 5.834 1.73 9.394zm29.142 230.152c16.201-16.217 17.782-25.71 10.126-40.79 7.162 2.225 16.348 19.53 8.644 27.935-21.98 23.979-25.932 28.676-31.365 54.139-2.552-7.004-3.606-25.067 12.595-41.284z" fill="#2B2B2B"/><path d="M90.896 93.33c-.823-2.06-1.037-7.564 4.693-13.101.576-.349 1.383-2.468 0-8.158a17.855 17.855 0 012.911 1.808l3-.879-1.316 2.361 3.316-.861-1.389 3.5 2.889-.5-2.303 2.136L105 80l-2.156.93V81l1.656 1-1.803.29 1.803 1.21h-2.199L104 84.741h-2.37l1.87 1.162h-2.751l1.552 1.735L99.644 87c-3.155 2.079-6.071.486-8.748 6.33zm-4.939-3.707c-1.564-4.945-1.482-15.08 4.94-19.036-5.68.742-15.214 15.278-4.94 19.036zm3.211 21.754c-.216-.432-.668-.377-1.668.123-.714.357-1.018.682-.802 1.113.431.864 2.038.864 2.47 0 .215-.431.215-.804 0-1.236zm7.409 2.72c-.593-4.154 6.997-4.203 10.866-3.709.083 3.461-.79 10.284-4.939 9.889-1.383 4.944-7.327 3.378-10.126 1.977 0-4.697 1.729-8.157 4.199-8.157zm89.058 57.403c-3.03-.708-6.343 2.605-5.635 5.635.44 1.882 1.618 3.06 3.5 3.5 3.03.708 6.343-2.605 5.635-5.635-.44-1.882-1.618-3.06-3.5-3.5zm-55.713 46.672c.144 2.727-2.217 5.144-4.944 5-2.727-.143-4.349-2.008-4.478-4.477-.143-2.743 2.23-5.125 4.972-4.973 2.454.136 4.321 1.996 4.45 4.45z" fill="#2B2B2B"/><path fill-rule="evenodd" clip-rule="evenodd" d="M142.368 39.71c7.869 9.425 16.583 19.864 26.686 30.533l.021.023.019.024c31.67 42.847 50.706 102.912 56.394 127.994l-.959.277c-2.17-6.155-6.033-15.284-8.116-20.054-3.404 9.507-8.839 15.992-15.163 20.005-6.585 4.179-14.104 5.657-21.236 5.11-7.13-.548-13.893-3.122-18.977-7.076-5.084-3.955-8.516-9.314-8.898-15.424l.93-.286c10.107 17.121 27.683 16.877 35.22 14.613 9.561-3.585 15.177-8.095 18.023-12.987 2.84-4.883 2.966-10.223 1.384-15.574-3.176-10.745-13.202-21.394-21.531-27.924l.488-.86c4.427 1.712 8.966 4.991 12.825 8.365a82.882 82.882 0 017.459 7.426c-6.149-22.973-22.19-49.699-40.013-73.964-18.36-24.994-38.568-47.322-51.68-60.159l-.009-.008c-6.869-7.06-13.106-10.508-18.947-11.455-5.835-.946-11.353.592-16.816 3.662-5.47 3.075-10.852 7.667-16.399 12.783a654.738 654.738 0 00-4.886 4.57c-4.001 3.767-8.116 7.642-12.412 11.24l-.728-.674C58.763 20.657 70.01 9.31 80.037 4.058 85.061 1.426 89.79.32 94.367.524c4.578.205 8.97 1.719 13.329 4.276 8.697 5.102 17.33 14.4 27.117 25.914 2.439 2.869 4.951 5.877 7.555 8.997zm-94.012-2.687c12.565-17.11 22.94-27.256 32.145-32.079 4.893-2.563 9.446-3.617 13.822-3.421 4.378.196 8.613 1.644 12.867 4.14 8.53 5.003 17.061 14.168 26.861 25.698 2.429 2.858 4.934 5.859 7.535 8.973 7.867 9.423 16.603 19.888 26.721 30.575 28.594 38.696 46.873 91.534 54.266 119.709a463.477 463.477 0 00-5.759-13.685l-.525-1.187-.407 1.232c-3.302 9.975-8.791 16.644-15.167 20.69-6.381 4.049-13.68 5.49-20.625 4.956-6.948-.533-13.521-3.043-18.439-6.868-4.279-3.328-7.285-7.633-8.23-12.487 10.577 15.727 27.682 15.39 35.172 13.133l.016-.005.015-.006c9.694-3.632 15.547-8.261 18.552-13.426 3.012-5.177 3.118-10.816 1.479-16.361-2.867-9.699-11.1-19.215-18.74-25.841 3.091 1.73 6.155 4.055 8.905 6.459 3.82 3.34 6.998 6.805 8.751 8.968l.874-.433c-5.754-23.635-22.331-51.389-40.715-76.418-18.391-25.037-38.634-47.403-51.783-60.277-6.959-7.152-13.378-10.748-19.499-11.74-6.127-.993-11.876.636-17.466 3.777-5.58 3.137-11.035 7.8-16.587 12.92a656.914 656.914 0 00-4.916 4.598c-2.978 2.804-6.005 5.654-9.123 8.406zm57.541 2.56c-9.465-7.54-19.046-4.422-22.62-1.957l-.18.124-.214-.048c-13.42-3.038-23.81-.408-29.266 2.182 3.568-.652 8.173-.928 12.972-.166 6.261.995 12.879 3.764 17.932 9.801.322-1.402.174-2.881-.195-4.238-.444-1.637-1.196-3.044-1.742-3.825l-.631-.902 1.094.119c3.758.406 7.515 2.094 10.666 4.013 3.155 1.92 5.742 4.096 7.169 5.524l.007.008c5.917 6.17 14.42 17.127 20.728 29.97 6.305 12.834 10.453 27.623 7.555 41.428-2.859 13.618-3.78 23.966-3.774 31.36.004 5.046.44 8.695.976 11.063.869-13.121 2.162-19.348 3.681-24.468.423-1.421.859-2.75 1.307-4.113 1.268-3.858 2.626-7.986 3.989-15.264 2.836-19.305-4.237-36.745-14.28-50.73-10.046-13.99-23.032-24.477-31.915-29.844l-.64-.387.602-.443c2.044-1.508 4.512-1.653 7.207-.777 2.68.872 5.63 2.766 8.737 5.416 6.219 5.304 13.191 13.749 20.043 23.553 12.736 18.226 25.131 41.259 31.577 57.858-.871-5.306-3.096-11.738-6.198-18.698-3.893-8.734-9.145-18.246-14.756-27.319-5.61-9.072-11.575-17.695-16.889-24.65-5.325-6.967-9.97-12.222-12.942-14.59zm-23.004-2.904c3.964-2.619 13.883-5.64 23.627 2.122 3.078 2.453 7.788 7.797 13.113 14.765 5.336 6.982 11.319 15.633 16.946 24.731 5.626 9.097 10.901 18.65 14.818 27.438 3.911 8.773 6.492 16.835 6.681 22.931l-.971.183c-5.892-16.635-19.155-41.737-32.822-61.294-6.835-9.78-13.749-18.143-19.872-23.365-3.063-2.613-5.897-4.412-8.398-5.226-2.183-.71-4.074-.66-5.66.217 8.953 5.542 21.646 15.939 31.528 29.7 10.137 14.116 17.346 31.817 14.456 51.469l-.001.009-.002.01c-1.377 7.354-2.761 11.564-4.034 15.435a141.266 141.266 0 00-1.288 4.052c-1.591 5.359-2.945 11.992-3.808 26.925l-.952.183c-.912-1.957-1.85-6.534-1.856-13.987-.006-7.475.925-17.893 3.795-31.567 2.832-13.488-1.211-28.034-7.473-40.781-6.257-12.737-14.694-23.608-20.549-29.715-1.373-1.374-3.896-3.498-6.978-5.374-2.788-1.697-6.001-3.172-9.212-3.727.477.854.974 1.969 1.31 3.206.477 1.756.642 3.81-.103 5.726l-.318.82-.542-.693C79.4 44.567 72.76 41.71 66.432 40.706c-6.336-1.007-12.329-.15-15.892.942l-.441-.882c4.057-2.961 16.172-7.786 32.794-4.087zM28.234 56.437c1.696-1.875 4.191-3.926 7.226-5.862 4.46-2.844 10.017-5.395 15.752-6.737 5.737-1.343 11.614-1.466 16.743.493 4.707 1.797 8.83 5.365 11.653 11.464-9.514-6.39-30.575-13.576-51.374.642zm40.078-13.04c5.395 2.06 10.012 6.32 12.924 13.657l.662 1.669-1.43-1.087c-8.783-6.675-31.937-15.735-54.218 1.481l-.747-.632c1.42-2.648 4.898-5.869 9.42-8.753 4.54-2.896 10.2-5.496 16.06-6.868 5.858-1.37 11.953-1.521 17.33.532zm21.348 6.738l.925-.322c3.786 6.356 8.341 10.573 12.782 14.39.528.454 1.054.903 1.579 1.349 3.872 3.297 7.598 6.469 10.467 10.666l.087.127v.155c0 3.94.001 8.546 2.465 14.817l.031.078.004.084.053 1.264c.351 8.28.633 14.946.596 20.323-.039 5.642-.428 9.917-1.482 13.18-1.063 3.289-2.804 5.555-5.518 7.159-2.597 1.535-6.055 2.445-10.581 3.12.379 5.429-2.301 16.83-15.885 23.263l-.152.072c5.993 9.633 15.062 17.673 28.721 21.49 18.459 5.16 28.343 12.336 33.16 19.288 4.823 6.961 4.537 13.659 2.726 17.737l-.643 1.448-.305-1.555c-.77-3.936-2.892-9.854-6.738-14.775-3.838-4.912-9.365-8.8-16.974-8.8-7.833 0-12.934-.827-16.135-1.88-1.6-.526-2.743-1.114-3.517-1.698-.2-.15-.379-.303-.536-.457-.847 6.61-1.131 15.98.574 24.161 1.831 8.782 5.895 15.963 13.764 17.197 16.202 2.54 25.373-5.133 27.901-9.165l.919.328c-.343 2.707-1.914 6.687-5.494 9.942-3.591 3.266-9.172 5.774-17.482 5.575h-5.268c.745 2.835 1.798 7.708 2.345 13.045.588 5.747.598 12.096-1.042 17.02l-.974-.158c0-2.926-.65-10.025-1.991-16.813-.671-3.392-1.51-6.686-2.519-9.332-.505-1.324-1.047-2.472-1.624-3.386-.581-.919-1.177-1.568-1.776-1.932-8.849-5.378-11.045-13.368-11.514-22.078-.166-3.084-.117-6.284-.067-9.496.02-1.306.04-2.613.046-3.915.02-4.438-.127-8.843-.991-13.04-2.993-1.367-7.286-3.971-11.245-6.383l-.342-.208a518.914 518.914 0 00-3.466-2.1c2.527 2.072 4.888 4.273 6.935 6.524 3.4 3.738 5.967 7.647 6.97 11.357 1.01 3.741.428 7.297-2.488 10.2-2.88 2.865-7.977 5.036-15.857 6.216l-.037.005h-.037c-.78 0-2.058-.116-3.397-.461-1.334-.343-2.78-.926-3.853-1.892l-.996-.898 1.34.026c4.2.082 10.107-.658 14.254-3.083 2.064-1.207 3.658-2.811 4.422-4.908.76-2.089.724-4.744-.62-8.114-.4-.801-1.172-2.126-2.18-3.493-1.019-1.381-2.258-2.776-3.58-3.722-1.764-1.26-5.062-4.128-8.168-7.548-3.095-3.408-6.066-7.435-7.088-11.015-.227-.797-.551-1.171-.856-1.322-.298-.147-.709-.146-1.265.113-1.135.528-2.56 1.994-3.92 4.151-2.705 4.287-4.94 10.968-4.096 17.124.335 2.445 1.462 5.448 3.012 8.933.835 1.877 1.776 3.86 2.77 5.953.857 1.807 1.754 3.695 2.655 5.67 3.863 8.465 7.69 18.255 8.114 28.439.03.719.12 1.38.22 2.019.027.171.056.341.084.511.075.46.151.918.203 1.367.145 1.258.116 2.525-.551 3.994l-.73 1.606-.222-1.75c-1.842-14.507-5.952-23.43-9.97-30.38-.994-1.721-1.984-3.321-2.936-4.861l-.035-.056c-.961-1.556-1.885-3.052-2.73-4.539-1.454-2.558-2.68-5.103-3.477-7.915-.507 1.418-1.066 3.783-1.444 7.262-.522 4.824-.688 11.733.1 21.102l.088 1.038-.865-.581c-5.384-3.621-14.224-15.969-8.37-36.959-4.953 1.548-11.372 1.215-15.62-1.416-2.277-1.412-3.95-3.5-4.396-6.32-.443-2.805.343-6.249 2.798-10.362l.896.435c-.664 1.733-1.163 3.767-1.22 5.714-.055 1.951.335 3.761 1.388 5.109 1.042 1.332 2.793 2.291 5.634 2.427 2.804.135 6.64-.536 11.803-2.424l1.124-7.657c-1.563-.462-3.42-1.933-4.66-4.872-1.368-3.245-1.998-8.294-.704-15.865l.99.127c-.201 2.349-.127 6.022.746 9.386.822 3.167 2.317 5.934 4.826 7.175.911-4.155 1.143-9.797-.883-14.008-1.052-2.186-2.71-3.981-5.208-5.003-2.508-1.026-5.914-1.293-10.494-.318l-.806.172.22-.794c.395-1.424 1.932-4.229 5.12-5.263-4.268-2.755-9.192-7.542-11.99-14.024-2.675-6.196-3.393-13.91.216-22.813a18.03 18.03 0 01-1.437 1.335l-.077.064-.096.029c-7.633 2.312-13.184 1.048-17.015-1.541-3.808-2.575-5.857-6.421-6.582-9.194l.966-.26c.44 1.597 2.022 3.164 4.319 4.444 2.275 1.268 5.154 2.201 8.014 2.579 2.867.38 5.662.197 7.793-.71 2.081-.885 3.524-2.454 3.83-4.924-.89-4.65 1.545-9.696 4.811-14.04 3.303-4.393 7.551-8.196 10.462-10.36l.655.751c-4.814 4.917-7.557 8.913-9.035 11.893-.738 1.49-1.158 2.72-1.363 3.68-.208.97-.19 1.63-.095 1.998l.002.008c.398 1.642.385 3.26.1 4.8a62.54 62.54 0 011.487-2.02l.86.494c-1.797 4.373-3.879 11.364-4.286 18.103-.372 6.158.66 11.95 4.396 15.433-1.856-8.074.025-25.824 20.075-44.224 1.972-1.934 4.09-4.423 5.813-7.137 1.727-2.721 3.038-5.64 3.427-8.434.387-2.78-.138-5.421-2.067-7.66-1.94-2.252-5.354-4.158-10.87-5.332-4.205-.629-14.907.769-23.473 11.682l-.87-.461c1.387-4.33 4.88-10.307 10.88-14.203 6.024-3.913 14.524-5.693 25.821-1.69.279.099.552.2.82.303l.112-.32c.84.191 1.848.628 2.884 1.169 5.234 1.884 15.278 4.478 28.668 5.2a70.18 70.18 0 01-2.694-4.756c-1.101-2.149-2.088-4.424-2.298-6.003zM69.7 57.933c5.928 1.699 14.81 3.493 25.866 4.007l.969.045-.526-.815a68.625 68.625 0 01-3.161-5.489 42.507 42.507 0 01-1.031-2.148c3.397 4.777 7.214 8.261 10.898 11.429.532.457 1.061.907 1.585 1.354 3.842 3.272 7.424 6.323 10.2 10.34.001 3.922.032 8.62 2.504 14.949l.049 1.163c.351 8.296.633 14.939.596 20.291-.039 5.624-.429 9.77-1.434 12.879-.996 3.083-2.593 5.14-5.075 6.606-2.509 1.483-5.954 2.381-10.683 3.059l-.479.069.053.481c.531 4.801-1.674 16.102-14.911 22.556l-2.457-3.222c2.694-1.949 6.497-5.151 9.182-8.749 2.803-3.758 4.532-8.16 2.077-12.007l-.134-.21-.249-.019c-1.764-.139-5.765-1.177-9.771-4.751 5.84 1.764 12.895 3.875 18.894 3.98 3.351.059 6.445-.504 8.831-2.161 2.406-1.671 4.02-4.401 4.504-8.512 1.359-11.553 2.254-26.814-3.095-39.448-2.68-6.33-6.929-12.006-13.466-16.22-6.503-4.191-15.239-6.916-26.883-7.43a58.01 58.01 0 00-2.853-2.027zm2.029 2.657l.34.258.126.097.158.007c11.59.491 20.192 3.186 26.542 7.28 6.346 4.09 10.473 9.597 13.086 15.768 5.237 12.37 4.381 27.395 3.023 38.942-.458 3.889-1.958 6.333-4.081 7.807-2.143 1.487-4.993 2.04-8.243 1.983-5.926-.105-12.942-2.223-18.854-4.008-.588-.178-1.165-.352-1.73-.521l-1.787-.535 1.28 1.357c4.466 4.732 9.292 6.192 11.616 6.449 1.906 3.23.544 7.038-2.162 10.666-2.58 3.459-6.259 6.571-8.903 8.492-10.606-21.646-8.315-48.424-7.801-54.407l.015-.177c.6-7.019-1.906-10.181-3.508-10.883l-.788-.345.09.855c.773 7.347-1.108 13.701-2.15 15.991-8.574 10.014-9.98 21.359-8.262 31.443 1.597 9.373 5.893 17.679 9.664 22.883-2.882-.924-4.994-2.965-6.491-5.279-1.723-2.662-2.603-5.644-2.883-7.562l-.964-.1c-1.156 3.156-.287 6.607 1.182 9.571 1.408 2.84 3.407 5.318 4.903 6.82-.307.959-1.016 1.624-1.846 2.073a6.561 6.561 0 01-1.976.669c.675-8.398-4.924-14.221-7.914-16.149-4.916-4.274-6.778-9.634-6.793-15.317-.015-5.712 1.838-11.748 4.354-17.294 2.515-5.54 5.677-10.557 8.244-14.223a97.23 97.23 0 013.242-4.372 61.815 61.815 0 011.273-1.563c.075-.088.106-.121.106-.12.09-.091.57-.665 1.267-1.584a66.575 66.575 0 002.7-3.843c2.076-3.186 4.516-7.506 6.063-12.135 1.544-4.622 2.218-9.613.682-14.102a14.679 14.679 0 00-2.82-4.892zm-43.417 45.646a19.782 19.782 0 001.48-2.618c.411-.678.849-1.362 1.314-2.053-1.425 4.241-2.748 9.658-3.068 14.943-.414 6.847.85 13.661 6.016 17.28l1.262.885-.503-1.457c-2.308-6.694-1.85-25.232 19.376-44.708l.006-.006.006-.005c2.02-1.98 4.192-4.53 5.963-7.321 1.77-2.787 3.158-5.844 3.573-8.832.418-3.004-.146-5.952-2.3-8.45-2.139-2.484-5.795-4.463-11.433-5.661l-.015-.004-.014-.002c-4.2-.634-14.024.617-22.454 9.737 1.74-3.697 4.804-7.928 9.37-10.894 5.744-3.73 13.915-5.493 24.943-1.585 6.867 2.433 10.343 6.154 11.769 10.32 1.435 4.194.827 8.937-.685 13.462-1.51 4.517-3.9 8.758-5.953 11.906a65.65 65.65 0 01-2.657 3.785 44.116 44.116 0 01-1.089 1.376 5.13 5.13 0 01-.087.102l-.003.002c-.156.156-2.152 2.504-4.732 6.189-2.589 3.697-5.787 8.769-8.335 14.384-2.546 5.61-4.46 11.795-4.444 17.71.016 5.933 1.975 11.596 7.165 16.093l.027.024.031.02c2.872 1.836 8.386 7.592 7.429 15.837l-.069.591.595-.035a7.523 7.523 0 002.98-.856c1.068-.578 2.078-1.523 2.417-2.991l.063-.275-.202-.196c-1.449-1.411-3.499-3.9-4.914-6.755-1.052-2.123-1.729-4.396-1.595-6.561.495 1.742 1.31 3.763 2.524 5.64 1.816 2.806 4.555 5.329 8.486 6.054l1.291.238-.806-1.037c-3.87-4.974-8.632-13.675-10.318-23.571-1.683-9.881-.297-20.926 8.08-30.677l.045-.052.029-.063c1.05-2.264 2.88-8.337 2.364-15.483 1.135 1.142 2.58 3.9 2.118 9.297l-.017.189c-.518 6.039-2.872 33.45 8.165 55.453 5.96 11.879 15.828 22.195 31.977 26.709 18.335 5.124 27.972 12.204 32.607 18.894 4.035 5.823 4.303 11.379 3.202 15.193-1.009-3.941-3.104-9.112-6.552-13.524-3.97-5.08-9.762-9.184-17.762-9.184-7.775 0-12.759-.822-15.823-1.83-1.531-.503-2.566-1.048-3.228-1.546-.673-.507-.909-.927-.957-1.167l-.985.025c-.993 6.71-1.455 16.946.4 25.848 1.849 8.869 6.059 16.644 14.588 17.981 14.433 2.263 23.549-3.381 27.483-7.766-.718 2.226-2.172 4.867-4.675 7.143-3.381 3.075-8.705 5.51-16.791 5.315h-6.596l.175.633c.735 2.656 1.902 7.82 2.485 13.514.457 4.461.551 9.208-.18 13.321a120.672 120.672 0 00-1.851-13.567c-.676-3.419-1.528-6.775-2.566-9.496-.519-1.36-1.088-2.575-1.713-3.563-.622-.984-1.318-1.776-2.102-2.253-8.438-5.128-10.573-12.712-11.035-21.277-.164-3.047-.115-6.193-.066-9.39.021-1.313.041-2.635.047-3.963.02-4.54-.131-9.119-1.065-13.5l-.053-.249-.232-.103c-2.928-1.303-7.279-3.939-11.366-6.429l-.346-.21c-1.911-1.165-3.75-2.286-5.328-3.199-1.662-.961-3.074-1.716-3.988-2.042l-.453.881c4.421 3.073 8.636 6.634 11.982 10.313 3.353 3.685 5.802 7.455 6.744 10.945.935 3.459.39 6.624-2.228 9.23-2.65 2.638-7.481 4.76-15.262 5.93-.705-.004-1.879-.112-3.11-.429a10.3 10.3 0 01-2.162-.803c4.11-.115 9.31-.961 13.162-3.213 2.198-1.286 3.99-3.05 4.856-5.429.868-2.382.778-5.304-.637-8.847l-.008-.019-.01-.018c-.424-.85-1.229-2.234-2.28-3.658-1.047-1.421-2.36-2.91-3.803-3.942-1.695-1.212-4.94-4.029-8.009-7.408-3.08-3.39-5.912-7.273-6.866-10.616-.267-.933-.714-1.617-1.375-1.944-.668-.331-1.417-.23-2.13.102-1.404.654-2.957 2.324-4.345 4.524-2.791 4.427-5.124 11.343-4.24 17.794.356 2.599 1.538 5.715 3.09 9.203.832 1.872 1.787 3.884 2.79 5.998a411.7 411.7 0 012.638 5.634c3.854 8.446 7.61 18.087 8.025 28.066.032.776.128 1.48.232 2.134l.088.54c.074.451.144.873.192 1.296.022.186.04.37.05.554-2.023-12.89-5.883-21.16-9.663-27.699a187.89 187.89 0 00-2.948-4.882l-.038-.061c-.963-1.558-1.877-3.039-2.711-4.507-1.667-2.933-3-5.792-3.725-9.037l-.269-1.201-.645 1.049c-.72 1.171-1.617 4.048-2.146 8.922-.51 4.707-.681 11.331.01 20.196-5.14-4.136-12.759-16.127-6.837-36.131l.285-.963-.94.353c-4.826 1.811-11.462 1.59-15.664-1.014-2.08-1.289-3.544-3.147-3.935-5.625-.234-1.478-.09-3.207.562-5.203-.039.373-.064.746-.075 1.117-.06 2.082.35 4.155 1.6 5.754 1.26 1.613 3.316 2.663 6.373 2.81 3.044.146 7.11-.598 12.476-2.588l.278-.103 1.349-9.181-.482-.082c-1.233-.212-3.114-1.376-4.384-4.387-.794-1.882-1.344-4.479-1.333-7.986.124.761.28 1.524.475 2.274.904 3.48 2.672 6.815 5.965 8.091l.532.206.135-.554c1.04-4.29 1.45-10.545-.82-15.26-1.143-2.376-2.971-4.367-5.73-5.496-2.575-1.053-5.916-1.337-10.195-.546.684-1.48 2.316-3.573 5.223-4.032l1.385-.219-1.21-.707c-4.337-2.532-9.687-7.413-12.614-14.193-2.915-6.752-3.445-15.423 1.887-25.62zm.595-3.089c1.09-2.361 1.648-5.025.997-7.717-.15-.58-.138-1.41.086-2.455.226-1.057.678-2.366 1.446-3.914.898-1.813 2.235-3.962 4.164-6.43-1.571 1.567-3.15 3.326-4.552 5.191-3.251 4.325-5.458 9.094-4.614 13.322l.015.076-.008.078c-.332 2.925-2.06 4.794-4.442 5.808-2.354 1.001-5.347 1.174-8.315.781-2.974-.394-5.976-1.362-8.37-2.698a15.19 15.19 0 01-2.14-1.426c1.036 1.694 2.508 3.398 4.484 4.734 3.534 2.389 8.737 3.638 16.069 1.442 1.067-.894 2.487-2.37 3.724-4.214.445-.85.93-1.709 1.456-2.578zm-3.78-15.805C29.866 76.63 35.92 70.989 41.71 68.072c5.06-2.55 9.875-2.998 13.342-2.984-4.4-2.269-8.382-2.78-11.89-2.123-3.977.744-7.405 2.998-10.182 6.016-2.778 3.017-4.886 6.78-6.218 10.494-.999 2.785-1.553 5.52-1.634 7.868zm17.85-25.361c4.25-.795 9.07.03 14.345 3.235l-.284.927c-3.387-.163-8.963-.16-14.878 2.82-5.904 2.976-12.209 8.95-16.987 20.846l-.96-.129c-.341-2.942.24-6.73 1.607-10.543 1.37-3.819 3.542-7.703 6.424-10.835 2.883-3.132 6.493-5.528 10.734-6.321zm42.954 11.01c1.56-1.553 3.318-2.693 4.9-2.9l.328.922c-3.041 1.873-4.62 5.235-5.234 8.806-.614 3.57-.249 7.258.509 9.653l.307.97-.956-.35c-2.707-.99-4.17-2.724-4.675-4.806-.498-2.048-.053-4.357.875-6.51.93-2.16 2.371-4.216 3.946-5.784zm-.733 15.764c-.602-2.496-.819-5.85-.258-9.106.438-2.547 1.36-5.077 2.983-7.087-.428.332-.86.713-1.287 1.139-1.489 1.483-2.855 3.434-3.733 5.471-.881 2.044-1.248 4.12-.821 5.877.36 1.487 1.304 2.802 3.116 3.706zm9.653-17.604l.958.471a18.337 18.337 0 012.791 1.706l3.931-1.151-1.341 2.406 3.139-.815-1.424 3.587 3.671-.635-2.784 2.583 2.991.472-2.916 1.259 2.06 1.243-1.897.305L106.142 84h-2.309l1.699 1.241h-2.15l1.87 1.162h-3.385l1.876 2.096-4.009-.963c-.78.483-1.541.763-2.264.986-.245.076-.48.143-.708.21-.516.148-.996.286-1.483.484-1.323.538-2.635 1.499-3.928 4.323l-.486 1.061-.433-1.084c-.906-2.267-1.052-7.982 4.81-13.647l.04-.039.048-.029s.007-.004.021-.018a.507.507 0 00.056-.066c.045-.062.1-.158.155-.296.112-.277.216-.7.263-1.307.095-1.215-.038-3.11-.722-5.925l-.252-1.038zm5.819 15.581l.19.046-.113-.127-.077.081zm2.284-8.016l.47-.436-.594.103c.044.11.085.221.124.333zm-.925-1.865c-.275-.424-.583-.83-.914-1.215l1.557-.404-.643 1.62zm-1.963-2.305a16.004 16.004 0 00-.51-.456l.913-.267-.403.723zm-.594 11.968a13.6 13.6 0 00.899-.938c.324-.375.603-.744.84-1.108.258-.396.467-.785.631-1.166.165-.382.285-.756.367-1.122.09-.402.133-.797.135-1.183v-.064a5.615 5.615 0 00-.135-1.189 6.705 6.705 0 00-.546-1.522c-.448-.903-1.09-1.747-1.837-2.512-.507-.52-1.06-1-1.63-1.434a17.562 17.562 0 00-1.876-1.248c.49 2.31.595 3.984.502 5.164-.053.678-.173 1.205-.332 1.601-.143.357-.337.653-.587.828-4.618 4.481-5.209 8.878-4.853 11.3 1.208-2.146 2.49-3.078 3.853-3.631.538-.219 1.098-.38 1.636-.536.217-.062.43-.124.636-.188.738-.228 1.462-.501 2.194-.984a4.744 4.744 0 00.103-.068zm-87.714 2.109c1.308-.236 2.169-.287 2.924-.203.127.014.252.032.376.054-2.043.41-3.914 1.067-5.48 1.915-2.104 1.14-3.707 2.653-4.39 4.434-.695 1.814-.398 3.813 1.115 5.797 1.241 1.629 3.304 3.257 6.332 4.82-1.173-.174-2.407-.609-3.58-1.254-1.909-1.048-3.593-2.617-4.539-4.397-.939-1.766-1.145-3.721-.16-5.628.992-1.923 3.24-3.884 7.402-5.538zm3.035-1.197c.9.1 1.692.368 2.683.74l-.122.965c-2.787.303-5.321 1.065-7.3 2.137-1.988 1.077-3.367 2.438-3.932 3.912-.552 1.442-.36 3.08.976 4.834 1.353 1.775 3.873 3.652 7.936 5.468l1.515.677-1.636.273c-1.998.333-4.302-.249-6.34-1.369-2.043-1.123-3.885-2.82-4.94-4.804-1.061-1.997-1.33-4.304-.166-6.557 1.152-2.231 3.664-4.324 7.969-6.027l.046-.019.048-.008c1.381-.252 2.361-.322 3.263-.222zm-2.904 10.926c-.003-.382.03-.744.098-1.086.266-1.346 1.048-2.323 2.065-3.005 1.206-.81 2.758-1.22 4.252-1.382-1.706-.494-3.015-.577-3.995-.393-1.373.257-2.136 1.039-2.495 2.061-.372 1.056-.32 2.402.052 3.724l.023.081zm2.236-6.849c1.696-.317 4.012.054 7.077 1.368l-.235.959c-1.978-.149-4.643.11-6.358 1.261-.838.563-1.436 1.328-1.641 2.369-.209 1.054-.028 2.458.834 4.312l-.811.56c-.934-.956-1.68-2.343-2.088-3.79-.407-1.444-.495-3.013-.033-4.326.474-1.347 1.517-2.388 3.255-2.713zm83.033 19.81c.782-.659 1.892-1.062 3.079-1.303 2.383-.485 5.308-.368 7.27-.118l.426.055.01.43c.042 1.764-.157 4.4-.91 6.566-.377 1.083-.906 2.089-1.649 2.803-.67.644-1.508 1.042-2.518 1.047-.394 1.138-1.041 1.952-1.858 2.493-.896.593-1.957.832-3.023.859-2.12.054-4.39-.723-5.83-1.443l-.277-.139v-.309c0-2.401.441-4.525 1.228-6.067.687-1.348 1.686-2.327 2.938-2.545.002-.97.423-1.745 1.114-2.329zm.645.765c-.566.477-.854 1.091-.731 1.948l.081.571h-.576c-.967 0-1.88.673-2.58 2.044-.612 1.201-1.014 2.861-1.101 4.809 1.153-.571 2.6-1.355 3.838-2.172.76-.501 1.424-1.002 1.892-1.463.234-.231.407-.439.518-.62.114-.185.143-.309.143-.379v-.5h.5c.342 0 .855-.198 1.516-.623.642-.414 1.351-.995 2.066-1.655 1.135-1.048 2.255-2.266 3.095-3.253-1.822-.163-4.131-.181-6.027.205-1.12.228-2.039.586-2.634 1.088zm9.123-.297a38.957 38.957 0 01-2.879 2.992c-.736.679-1.493 1.303-2.202 1.76-.543.35-1.106.634-1.636.739a2.135 2.135 0 01-.213.446c-.168.274-.4.546-.668.809-.535.527-1.26 1.07-2.044 1.586-1.202.793-2.583 1.55-3.725 2.124 1.285.516 2.907.947 4.4.908.942-.024 1.802-.234 2.497-.693.685-.454 1.25-1.178 1.566-2.31l.113-.403.416.04c.879.084 1.571-.207 2.14-.754.585-.562 1.047-1.404 1.397-2.41.528-1.517.769-3.314.838-4.834zm-18.256-.194c-.16.014-.445.11-.946.36-.348.174-.513.303-.577.386a.241.241 0 00-.016.023.192.192 0 00.014.034c.1.201.388.371.788.371s.687-.17.787-.371a.875.875 0 00.11-.395.871.871 0 00-.117-.409l-.043.001zm.525-.883c.2.108.332.274.42.45.134.268.214.546.214.841 0 .296-.08.573-.214.842-.33.662-1.062.924-1.682.924-.62 0-1.352-.262-1.682-.924a1.058 1.058 0 01-.117-.577c.02-.209.106-.388.22-.536.212-.276.556-.488.922-.671.5-.25.94-.431 1.31-.462.2-.017.412.006.609.113zm92.574 62.565c-1.033 1.033-1.586 2.45-1.282 3.752.202.866.567 1.543 1.076 2.051.508.509 1.185.874 2.051 1.076 1.302.304 2.719-.249 3.752-1.282s1.587-2.45 1.282-3.752c-.202-.866-.567-1.543-1.076-2.051-.508-.509-1.185-.874-2.051-1.076-1.302-.304-2.719.249-3.752 1.282zm-.707-.707c1.204-1.204 2.959-1.953 4.687-1.549 1.017.238 1.87.682 2.531 1.343.66.66 1.104 1.513 1.342 2.53.404 1.729-.345 3.483-1.549 4.687-1.204 1.204-2.958 1.953-4.687 1.549-1.016-.238-1.869-.682-2.53-1.343-.661-.66-1.105-1.513-1.343-2.53-.404-1.729.345-3.483 1.549-4.687zm-61.061 46.159c-.159-3.038 2.458-5.667 5.499-5.498 2.707.15 4.779 2.212 4.922 4.923.158 3.015-2.439 5.685-5.47 5.526-1.477-.078-2.688-.626-3.547-1.52-.857-.891-1.334-2.094-1.404-3.431zm5.444-4.5c-2.443-.135-4.574 2-4.446 4.447.06 1.132.458 2.097 1.126 2.791.666.692 1.629 1.148 2.879 1.214 2.423.128 4.547-2.037 4.419-4.475-.116-2.197-1.778-3.855-3.978-3.977zm-2.436 24.877l1.129.351c1.921.596 3.913 2.176 5.689 4.276 1.785 2.11 3.392 4.792 4.525 7.668 2.253 5.715 2.7 12.389-1.349 16.806-11.002 12.002-17.445 19.131-21.828 26.433-4.371 7.282-6.703 14.756-9.417 27.472l-.363 1.702-.596-1.635c-2.611-7.167-3.64-25.44 12.712-41.808 8.084-8.093 12.445-14.438 13.876-20.582 1.424-6.119-.038-12.134-3.843-19.628l-.535-1.055zm2.028 1.815c3.411 7.048 4.745 12.991 3.324 19.095-1.496 6.427-6.026 12.937-14.143 21.061-14.79 14.805-15.035 31.128-13.032 38.952 2.555-11.632 4.897-18.849 9.132-25.904 4.446-7.407 10.969-14.617 21.947-26.594 3.656-3.988 3.362-10.169 1.157-15.764-1.096-2.779-2.647-5.365-4.358-7.388-1.316-1.556-2.703-2.752-4.027-3.458z" fill="#000"/><path d="M159 267.801V212h41.662v44.854h-7.211l7.211 6.408V322l-13.086-17.354v-34.175l-14.422-11.214v26.699L159 267.801zM249 212h-41.395v110l36.321-46.99h-17.092l-5.608 5.607v-54.2h14.154v17.088H249V212z" fill="#2A2A2A"/><path fill-rule="evenodd" clip-rule="evenodd" d="M158.5 211.5h42.662v45.854h-6.396l6.396 5.684v60.456l-14.086-18.681v-34.098l-13.422-10.436v27.132L158.5 267.973V211.5zm1 1v55.129l13.154 16.873v-26.267l15.422 11.991v34.252l12.086 16.028v-57.019l-8.026-7.133h8.026V212.5H159.5zm47.605-1H249.5v32.505h-14.62v-17.088h-13.154v52.493l4.901-4.9h18.317l-37.839 48.954V211.5zm1 1v108.036l34.802-45.026h-15.866l-6.315 6.313v-55.906h15.154v17.088h12.62V212.5h-40.395z" fill="#000"/><path d="M186 226h-12v17h12v-17z" fill="#E5E5E5"/><path d="M229.079 271.65l.203-2.47c.658-7.11 2.85-13.135 6.575-18.075h-7.446l-.16 2.404H225v-6.159h14.936v3.755c-1.133 1.525-2.076 2.982-2.831 4.373a25.934 25.934 0 00-1.814 4.172 31.67 31.67 0 00-1.089 4.423 69.279 69.279 0 00-.682 5.107l-.203 2.47h-4.238zm19.87.35c-2.206 0-3.953-.829-5.24-2.487-1.287-1.669-1.93-4.111-1.93-7.326v-5.357c0-3.204.639-5.641 1.916-7.31 1.287-1.68 3.029-2.52 5.225-2.52 2.187 0 3.924.84 5.211 2.52 1.297 1.669 1.945 4.106 1.945 7.31v5.357c0 3.215-.644 5.657-1.931 7.326-1.277 1.658-3.009 2.487-5.196 2.487zm0-3.738c.948 0 1.669-.445 2.163-1.335.493-.891.74-2.315.74-4.273v-6.325c0-1.925-.251-3.332-.755-4.222-.503-.901-1.229-1.352-2.177-1.352-.958 0-1.684.445-2.177 1.335-.494.89-.74 2.303-.74 4.239v6.325c0 1.958.246 3.382.74 4.273.503.89 1.239 1.335 2.206 1.335zm13.194 3.388l.203-2.47c.658-7.11 2.85-13.135 6.575-18.075h-7.446l-.159 2.404h-3.252v-6.159H273v3.755c-1.132 1.525-2.076 2.982-2.83 4.373a26.03 26.03 0 00-1.815 4.172 31.81 31.81 0 00-1.088 4.423 68.745 68.745 0 00-.682 5.107l-.204 2.47h-4.238z" fill="#DA9640"/></svg>