<svg width="61" height="75" fill="none" xmlns="http://www.w3.org/2000/svg"><path d="M37.99 16.35c6.974 9.434 11.169 22.667 12.422 28.193-.523-1.483-1.49-3.745-1.907-4.69-2.942 8.889-13.729 6.108-14.055.873 2.266 3.839 6.21 3.78 7.899 3.272 8.499-3.185 3.25-9.761-.436-12.652 1.918.742 3.959 2.854 4.74 3.818C44.125 24.78 32.07 10.734 26.278 5.062c-6.102-6.271-10.133.11-15.472 4.58C22.9-7.316 26.115 3.809 37.991 16.35z" fill="#fff"/><path d="M33.687 48.906c-.345-1.764-1.896-5.29-5.339-5.29-3.443 0-4.449-.727-4.522-1.09-.436 2.944-.403 8.975 3.215 9.542 3.617.568 5.683-1.145 6.265-2.072-.146 1.145-1.34 3.414-4.958 3.327h-1.307c.326 1.181 1.035 4.58.326 6.707 0-1.309-.577-6.293-1.797-7.035-3.814-2.317-1.91-6.87-2.724-10.688-1.308-.581-3.868-2.345-4.63-2.617 3.922 2.726 7.136 7.198.217 8.234-.327 0-1.09-.098-1.525-.49 1.87.035 5.306-.655 4.085-3.709-.181-.364-.697-1.2-1.307-1.636-.763-.545-2.887-2.508-3.323-4.035-.436-1.527-2.833 1.69-2.452 4.471.305 2.225 3.465 6.35 3.65 10.798.028.66.273 1.09 0 1.69-.817-6.435-3.65-7.929-4.303-10.852-.29.473-.785 2.454-.436 6.599-1.162-.782-3.138-3.523-1.743-8.235-2.18.818-6.004-.185-3.868-3.762-.6 1.563-.622 4.253 4.085 2.508l.273-1.854c-.636-.109-1.765-1.156-1.199-4.471-.09 1.054.066 3.293 1.417 3.817.454-1.873.337-5.399-3.76-4.526.091-.328.48-1.015 1.308-1.146-1.945-1.136-4.794-4.372-2.405-8.934-.287.429-.617.77-.864.973C2.754 26.133 1.31 24.02 1 22.84c.436 1.58 5.23 2.672 5.502.272-.392-1.963 2.052-4.344 3.323-5.29-2.135 2.182-2.451 3.563-2.342 3.981.152.628.02 1.244-.23 1.781.224-.367.48-.743.775-1.126-.8 1.945-1.853 6.216.327 7.743-.527-1.527-.404-5.66 4.303-9.98 1.762-1.726 4.054-5.441-.871-6.488-.963-.146-3.367.174-5.285 2.617.6-1.872 3.03-5.18 7.954-3.435 6.156 2.181.436 9.107.327 9.216-.109.109-6.755 7.961-2.288 11.833.654.418 1.907 1.723 1.689 3.599.308-.018.959-.196 1.09-.764-.654-.636-1.842-2.235-1.363-3.544.128.872.796 2.694 2.452 3-1.725-2.218-4.239-7.744-.49-12.107.236-.509.664-1.941.49-3.599.29.127.839.764.708 2.29l-.003.04c-.114 1.328-.631 7.35 1.79 12.175 1.183-.836 3.549-2.925 2.546-4.495-.461-.037-1.544-.331-2.547-1.394 2.736.818 6.985 2.276 7.4-1.253.6-5.096.773-13.361-9.513-13.798-.315-.241-.92-.669-1.454-.948a6.854 6.854 0 01-.616-.251c.173.039.388.131.616.251 1.19.43 3.499 1.023 6.575 1.166-.363-.563-1.111-1.854-1.198-2.508 1.688 2.836 4.064 3.758 5.48 5.83 0 .873 0 1.906.552 3.31.33 7.83.44 9.237-3.744 9.837.122 1.109-.393 3.686-3.432 5.126l-.666-.873c1.303 2.598 3.458 4.85 6.985 5.835 8.117 2.269 8.612 6.29 7.845 8.017z" fill="#fff"/><path d="M13.367 15.26c-1.508-.073-5.012 0-7.137 5.29-.29-2.51 2.56-8.072 7.137-5.29zm-9.643 8.016c-.763-.782-.98-3.054 1.689-1.909-.89-.067-2.474.222-1.69 1.909z" fill="#fff"/><path d="M3.343 20.222c-3.749 1.483-.927 4.199.708 3.926-3.618-1.616-1.961-3.544.545-3.817-.436-.164-.654-.218-1.253-.11zm15.253-6.817c-1.96-1.49-7.125-3.511-12.094.328 1.199-2.236 9.567-6.697 12.095-.328z" fill="#fff"/><path d="M19.468 11.933c-2.217-2.835-5.972-2.563-7.572-2.072.871-.636 3.53-1.701 7.19-.873.818-.563 2.986-1.265 5.122.437 2.67 2.126 11.168 14.45 11.331 19.74-2.607-7.362-11.724-22.183-15.036-19.74 3.94 2.38 11.506 9.292 10.242 17.886-.817 4.363-1.634 3.654-2.016 10.252-.38-.818-.828-3.959.436-9.98 1.264-6.02-3.613-12.941-6.21-15.65-.618-.618-2.256-1.897-3.868-2.072.254.364.686 1.287.381 2.072zm6.428 50.769c3.574-3.577 3.923-5.671 2.234-8.998 1.58.491 3.606 4.308 1.907 6.162-4.849 5.29-5.72 6.326-6.919 11.943-.563-1.545-.795-5.53 2.779-9.107z" fill="#fff"/><path d="M20.83 21.367c-.181-.454-.229-1.669 1.035-2.89.127-.077.305-.544 0-1.8.2.099.426.234.642.4l.662-.195-.29.521.731-.19-.306.772.637-.11-.508.471.508.08-.475.206v.015l.365.22-.398.064.398.267h-.485l.375.274h-.523l.412.257h-.607l.343.382-.586-.14c-.696.458-1.34.107-1.93 1.396zm-1.09-.817c-.345-1.091-.326-3.327 1.09-4.2-1.253.164-3.356 3.37-1.09 4.2zm.709 4.798c-.048-.095-.148-.083-.368.027-.158.079-.225.15-.177.246.095.19.45.19.545 0a.278.278 0 000-.273zm1.634.6c-.13-.916 1.544-.927 2.397-.818.018.763-.174 2.268-1.09 2.181-.305 1.09-1.616.745-2.233.436 0-1.036.381-1.8.926-1.8zM41.728 38.61c-.668-.156-1.399.575-1.243 1.243.097.416.357.675.772.772.669.157 1.4-.574 1.243-1.243-.097-.415-.356-.675-.772-.772zM29.439 48.906c.031.601-.49 1.134-1.09 1.103-.602-.032-.96-.443-.989-.988a1.059 1.059 0 011.097-1.097c.541.03.953.44.982.982zm11.818 25.163c.063-2.762-1.947-4.771-2.593-5.273.64.25 2.056 1.054 2.593 2.26.187-.419.697-1.206 1.243-1.005-.948.402-1.224 3.18-1.243 4.018z" fill="#fff"/><path fill-rule="evenodd" clip-rule="evenodd" d="M32.293 9.452c1.736 2.078 3.654 4.376 5.88 6.726l.01.011.009.012c7.002 9.474 11.207 22.745 12.464 28.287l-.48.138c-.433-1.227-1.173-2.995-1.65-4.098-.764 1.949-1.929 3.302-3.278 4.159-1.481.94-3.171 1.271-4.77 1.148-1.599-.123-3.117-.7-4.262-1.59-1.144-.89-1.929-2.106-2.016-3.504l.465-.142c2.183 3.697 5.974 3.65 7.604 3.162 2.089-.784 3.294-1.762 3.9-2.803.602-1.036.633-2.172.292-3.325-.689-2.329-2.872-4.655-4.702-6.09l.244-.43c1 .387 2.015 1.122 2.87 1.87.474.414.903.836 1.26 1.214-1.453-4.912-4.861-10.552-8.645-15.703-4.045-5.507-8.498-10.427-11.385-13.253l-.004-.004c-1.503-1.545-2.853-2.284-4.102-2.487-1.246-.202-2.431.125-3.619.792-1.191.67-2.368 1.673-3.59 2.8-.354.327-.712.663-1.074 1.005-.884.832-1.797 1.691-2.748 2.487l-.364-.336c3.029-4.247 5.525-6.772 7.768-7.947 1.126-.59 2.194-.842 3.232-.796 1.037.047 2.028.39 3.005.963 1.941 1.139 3.86 3.208 6.017 5.746.54.635 1.094 1.3 1.67 1.988zm-19.84-1.609c2.37-3.056 4.366-4.916 6.149-5.85 1.06-.555 2.04-.78 2.978-.738.938.042 1.85.352 2.774.894 1.858 1.09 3.725 3.093 5.889 5.639.534.629 1.086 1.29 1.66 1.976 1.733 2.077 3.663 4.388 5.896 6.747 5.603 7.586 9.409 17.645 11.323 24.136a87.025 87.025 0 00-.388-.895l-.263-.593-.203.616c-.72 2.173-1.912 3.616-3.288 4.49-1.38.875-2.958 1.187-4.464 1.072-1.508-.116-2.93-.66-3.993-1.486-.692-.539-1.224-1.191-1.532-1.918 2.388 2.877 5.854 2.78 7.43 2.304l.008-.002.008-.003c2.155-.808 3.479-1.845 4.164-3.022.688-1.184.709-2.47.34-3.72-.484-1.634-1.642-3.238-2.907-4.558a17.143 17.143 0 012.425 2.389l.437-.216c-1.277-5.242-4.947-11.383-9.005-16.907-4.06-5.529-8.53-10.467-11.436-13.312-1.548-1.59-2.989-2.404-4.378-2.63-1.392-.225-2.693.147-3.944.85-1.246.7-2.46 1.739-3.685 2.869-.361.333-.723.675-1.088 1.018-.3.283-.602.567-.907.85zM24.052 9.62c-2.028-1.615-4.072-.944-4.823-.426l-.09.062-.107-.024c-2.217-.502-4.05-.293-5.319.079a8.648 8.648 0 011.777.092c1.322.21 2.722.774 3.833 1.974a2.046 2.046 0 00-.077-.573 2.737 2.737 0 00-.364-.8l-.316-.45.548.058c.857.093 1.706.477 2.41.905.706.43 1.285.917 1.607 1.24l.004.003c1.314 1.37 3.198 3.799 4.597 6.646 1.397 2.844 2.326 6.14 1.678 9.23-.63 2.995-.831 5.268-.83 6.888 0 .42.015.794.038 1.125.186-2.041.433-3.166.716-4.122.095-.318.192-.614.291-.916.279-.848.575-1.747.873-3.341.618-4.21-.923-8.02-3.125-11.086-2.204-3.069-5.054-5.37-7-6.545l-.32-.194.302-.221c.497-.367 1.092-.395 1.716-.192.616.2 1.283.631 1.974 1.221 1.386 1.182 2.932 3.056 4.445 5.222 2.382 3.408 4.71 7.576 6.234 11.004a24.587 24.587 0 00-.877-2.229c-.856-1.92-2.01-4.012-3.247-6.01a68.62 68.62 0 00-3.717-5.426c-1.175-1.537-2.19-2.683-2.831-3.194zm-5.014-.899c.942-.593 3.157-1.22 5.325.508.694.553 1.742 1.744 2.917 3.282a69.124 69.124 0 013.746 5.466c1.243 2.01 2.41 4.124 3.277 6.07.864 1.938 1.444 3.737 1.486 5.11l-.486.092c-1.294-3.656-4.213-9.181-7.222-13.488-1.506-2.154-3.023-3.987-4.36-5.127-.67-.572-1.279-.955-1.805-1.127-.345-.112-.643-.13-.902-.059 1.971 1.262 4.656 3.508 6.765 6.444 2.249 3.132 3.858 7.073 3.213 11.455l-.001.01c-.306 1.632-.615 2.572-.896 3.428a31.36 31.36 0 00-.282.885c-.346 1.168-.644 2.62-.834 5.907l-.476.092c-.215-.46-.421-1.495-.423-3.145-.001-1.66.206-3.968.84-6.992.616-2.93-.261-6.105-1.637-8.905-1.372-2.795-3.224-5.18-4.507-6.519a8.57 8.57 0 00-1.512-1.164c-.525-.32-1.114-.599-1.706-.745.065.144.124.304.17.474.11.404.152.89-.027 1.35l-.16.41-.27-.346c-1.06-1.356-2.49-1.973-3.86-2.19-1.374-.219-2.674-.032-3.442.203l-.22-.441c.923-.674 3.614-1.738 7.289-.938zM8.279 12.32c3.895-1.93 7.65-.824 9.705.38-.592-1.045-1.382-1.674-2.264-2.011-1.097-.42-2.363-.396-3.612-.103-1.248.291-2.46.847-3.431 1.467a9.173 9.173 0 00-.398.267zm7.619-2.098c1.23.47 2.275 1.44 2.93 3.091l.195.49c.721.11 1.516.2 2.378.254a15.27 15.27 0 01-.461-.83c-.242-.473-.471-.995-.521-1.37l.462-.16c.823 1.381 1.814 2.3 2.79 3.139l.348.297c.853.726 1.69 1.438 2.334 2.38l.044.064v.077c0 .866 0 1.86.534 3.218l.015.039.002.042.012.28c.077 1.825.14 3.299.132 4.488-.009 1.247-.095 2.209-.334 2.95-.244.754-.648 1.283-1.28 1.656-.57.338-1.315.54-2.259.687.037 1.273-.62 3.68-3.481 5.087 1.306 2.04 3.26 3.734 6.171 4.548 4.09 1.142 6.304 2.739 7.392 4.31 1.091 1.574 1.034 3.103.614 4.048l-.321.724-.153-.777c-.166-.852-.627-2.136-1.459-3.2-.828-1.06-2.01-1.888-3.634-1.888-1.736 0-2.877-.183-3.603-.422a3.036 3.036 0 01-.742-.342c-.16 1.428-.196 3.35.155 5.035.401 1.925 1.277 3.427 2.921 3.684 3.52.552 5.487-1.116 6.015-1.958l.46.165c-.08.628-.441 1.537-1.257 2.279-.802.73-2.03 1.284-3.823 1.268.368.182.729.497 1.05.877a6.309 6.309 0 011.022 1.73c.503 1.278.623 2.819-.325 3.853-2.43 2.651-3.84 4.213-4.798 5.809-.952 1.586-1.463 3.216-2.06 6.017l-.182.85-.298-.817c-.592-1.626-.813-5.716 2.837-9.369 1.779-1.78 2.717-3.157 3.023-4.473.304-1.303-.003-2.594-.836-4.234l-.124-.245h-.419c.162.645.366 1.641.477 2.723.13 1.273.135 2.698-.236 3.813l-.488-.079c0-.634-.142-2.19-.436-3.681-.147-.745-.33-1.463-.55-2.036a4.128 4.128 0 00-.345-.723c-.122-.193-.24-.316-.346-.38-2.01-1.222-2.503-3.041-2.607-4.983a30.808 30.808 0 01-.015-2.11c.005-.286.009-.573.01-.856.004-.953-.026-1.889-.202-2.78-.554-.26-1.285-.69-2-1.124.15.15.296.303.436.456.756.832 1.34 1.713 1.569 2.563.233.864.1 1.703-.585 2.385-.667.663-1.827 1.148-3.576 1.41l-.018.003h-.019a3.34 3.34 0 01-.784-.106c-.305-.078-.648-.214-.909-.45l-.498-.448.67.013c.916.018 2.189-.145 3.071-.66.437-.256.76-.588.915-1.01.153-.42.152-.968-.133-1.685a5.583 5.583 0 00-.466-.745c-.22-.3-.484-.594-.758-.79-.399-.285-1.134-.925-1.824-1.685-.685-.754-1.36-1.663-1.595-2.486-.044-.157-.099-.196-.116-.205-.014-.006-.057-.02-.158.027-.213.099-.51.394-.806.863-.584.927-1.064 2.367-.883 3.684.071.518.312 1.165.654 1.933.184.415.39.848.608 1.307.189.398.386.815.588 1.256.853 1.87 1.707 4.05 1.802 6.325.006.151.025.29.047.43l.018.108c.017.103.034.209.046.312.034.293.028.6-.133.954l-.365.803-.11-.874c-.404-3.179-1.303-5.13-2.182-6.65-.219-.377-.436-.729-.646-1.07l-.008-.01a31.846 31.846 0 01-.604-1.006 8.875 8.875 0 01-.638-1.34 9.294 9.294 0 00-.188 1.142c-.114 1.053-.15 2.568.023 4.628l.043.519-.432-.29c-1.22-.821-3.142-3.528-1.967-8.069-1.085.271-2.41.17-3.32-.394-.53-.329-.929-.822-1.034-1.491-.105-.663.083-1.456.635-2.38l.448.218a3.811 3.811 0 00-.26 1.215c-.012.412.071.774.277 1.036.198.255.543.454 1.139.483.579.027 1.38-.107 2.47-.499l.22-1.492c-.361-.148-.743-.502-1.002-1.114-.316-.749-.452-1.892-.164-3.578l.495.064c-.043.506-.027 1.3.16 2.023.159.61.425 1.12.832 1.399.163-.877.176-1.983-.223-2.81-.219-.456-.56-.825-1.075-1.035-.52-.213-1.24-.274-2.233-.063l-.404.086.11-.397c.084-.302.378-.858.97-1.154-.905-.636-1.896-1.658-2.478-3.008-.554-1.283-.734-2.85-.139-4.639-1.718.52-2.988.24-3.872-.358a3.792 3.792 0 01-1.509-2.108l.483-.13c.065.235.27.485.599.716a2.476 2.476 0 01-.383-.528c-.25-.473-.319-1.03-.037-1.576.276-.534.865-1.014 1.83-1.396l.023-.009.025-.004c.31-.057.542-.075.76-.05.217.024.406.089.625.171l-.06.482c-.6.066-1.141.23-1.56.456-.422.229-.694.507-.803.79-.101.266-.074.577.196.932.278.365.81.767 1.697 1.163l.706.315a2.36 2.36 0 00.632-.16c.414-.177.693-.479.758-.955-.196-1.08.371-2.227 1.091-3.185a12.28 12.28 0 012.336-2.313l.328.375c-1.054 1.078-1.65 1.947-1.968 2.588-.158.32-.246.581-.289.78-.043.202-.036.324-.022.375v.005c.05.203.072.405.072.602l.032-.041.43.247c-.392.955-.847 2.481-.935 3.948-.07 1.144.086 2.196.609 2.931-.238-1.997.47-5.644 4.553-9.391a8.97 8.97 0 001.26-1.548c.376-.591.654-1.216.736-1.805.081-.582-.03-1.122-.423-1.58-.4-.464-1.119-.873-2.317-1.13-.884-.13-3.19.165-5.043 2.527l-.435-.231c.314-.98 1.101-2.327 2.457-3.208 1.368-.888 3.289-1.283 5.819-.387l.165.06.024-.068c.2.045.433.146.662.266.703.252 1.806.564 3.232.803l-.178-.136c-1.907-1.45-6.943-3.419-11.79.327l-.373-.316c.33-.617 1.122-1.343 2.126-1.983 1.012-.646 2.276-1.227 3.586-1.533 1.309-.306 2.683-.344 3.904.123zm1.057 4.153c2.426.132 4.229.713 5.564 1.573.299.193.576.4.831.62l-.794.233a4.166 4.166 0 00-.58-.348l-.48-.235.126.518c.149.613.175 1.015.156 1.263a.867.867 0 01-.061.276l-.005.003-.02.02c-1.33 1.284-1.317 2.604-1.094 3.162l.216.542.243-.53c.273-.596.538-.78.792-.883.1-.04.196-.068.306-.1.051-.015.106-.03.166-.05.15-.045.313-.104.481-.201l1.264.304-.503-.563h.923l-.412-.257h.412l-.374-.274h.54l-.553-.37.445-.072-.548-.33.826-.357c.202.335.378.684.53 1.044 1.14 2.692.957 5.974.657 8.52-.097.827-.413 1.326-.841 1.623-.439.305-1.034.425-1.736.413-1.287-.023-2.815-.484-4.123-.88l-.38-.113-.894-.268.64.679c.966 1.023 2.012 1.375 2.576 1.456.326.623.073 1.371-.5 2.14-.516.69-1.238 1.321-1.8 1.744-2.237-4.709-1.747-10.47-1.634-11.777l.003-.04c.135-1.575-.424-2.35-.857-2.54l-.114-.05c.318-.565.63-1.212.857-1.891.345-1.033.503-2.169.15-3.2a3.354 3.354 0 00-.401-.804zm-.832 6.284a15.189 15.189 0 01-.871 1.285c-.152.2-.264.335-.292.363l-.078.092a21.399 21.399 0 00-.926 1.226c-.563.804-1.256 1.903-1.806 3.114-.55 1.215-.95 2.525-.948 3.757.004 1.218.4 2.356 1.443 3.268.3.194.71.556 1.064 1.061-.175-.532-.233-1.109-.032-1.656l.482.05c.059.407.247 1.045.614 1.612.235.363.537.689.919.911-.764-1.164-1.556-2.834-1.873-4.694-.384-2.25-.072-4.792 1.84-7.035.22-.492.607-1.815.463-3.354zm-1.84 15.32c.12.386.189.814.174 1.28.072-.023.148-.053.22-.092a.703.703 0 00.31-.302 6.355 6.355 0 01-.704-.886zm5.314-.367l-.386-.506c.59-.44 1.374-1.116 1.94-1.874.624-.837 1.057-1.88.464-2.808l-.067-.105-.124-.01c-.275-.021-.836-.153-1.468-.554 1.12.327 2.37.644 3.467.664.1.001.2 0 .3-.003-.246.05-.513.096-.804.138l-.24.034.027.24c.11.997-.34 3.382-3.11 4.784zm6.868-14.254l-.005-.111-.01-.232a8.719 8.719 0 01-.186-.53c.078.288.145.58.2.873zm-.308-1.241c-.25-.954-.26-1.724-.26-2.384-.598-.853-1.363-1.505-2.2-2.219a98.143 98.143 0 01-.351-.299 17.964 17.964 0 01-1.54-1.456c.1.17.193.32.27.438l.262.408-.485-.023a27.58 27.58 0 01-1.288-.088c.845.27 1.582.62 2.224 1.034 1.469.946 2.423 2.222 3.024 3.64.131.31.245.627.345.949zm-1.34-1.805a7.455 7.455 0 00-.374-.561l-.463.429.837.132zm-1.116-.65l.596-.102a7.19 7.19 0 00-.38-.444l-.216.547zm.03-.739a7.075 7.075 0 00-.194-.187l-.155.278.35-.09zm-1.098 2.831a2.415 2.415 0 00.355-.419 1.58 1.58 0 00.128-.236 1.088 1.088 0 00.1-.453v-.013a1.14 1.14 0 00-.027-.233 1.337 1.337 0 00-.11-.304 2.081 2.081 0 00-.38-.518 3.17 3.17 0 00-.476-.4c.059.361.07.643.053.86a1.35 1.35 0 01-.082.395.546.546 0 01-.17.238c-.748.729-.99 1.437-1.032 1.948.21-.254.432-.397.67-.493.125-.052.26-.09.381-.126.046-.013.09-.025.13-.038.158-.049.303-.104.45-.2l.01-.008zM7.146 24.285c-1.153 2.21-1.034 4.076-.408 5.525.631 1.463 1.788 2.519 2.724 3.066l.605.353-.692.11a1.37 1.37 0 00-.904.565c.825-.115 1.495-.043 2.032.177.645.264 1.072.73 1.337 1.28.521 1.084.423 2.502.19 3.46l-.067.278-.266-.103c-.466-.18-.798-.53-1.034-.946.027.085.056.163.087.236.266.632.648.848.862.885l.24.04-.329 2.243-.139.051c-1.192.443-2.11.613-2.807.58-.705-.034-1.2-.278-1.51-.674a1.61 1.61 0 01-.158-.246c.122.387.387.69.75.915.883.547 2.3.599 3.333.211l.47-.176-.143.481c-1.195 4.037.143 6.55 1.21 7.597-.123-1.791-.084-3.15.023-4.136.117-1.079.317-1.74.494-2.027l.322-.524.134.6c.156.697.443 1.314.807 1.956.183.32.383.645.596.99l.008.013c.21.339.43.696.653 1.08a16.43 16.43 0 011.528 3.449c-.315-1.551-.92-3.04-1.54-4.4a93.461 93.461 0 00-.579-1.238c-.222-.469-.435-.917-.618-1.329-.342-.77-.61-1.473-.692-2.068-.201-1.464.327-3.022.955-4.018.31-.492.67-.889 1.018-1.05.179-.084.391-.12.59-.022.196.097.312.291.376.516.201.704.807 1.54 1.484 2.286.671.74 1.38 1.354 1.744 1.615.336.24.635.581.87.9.237.32.419.633.516.827l.005.01.004.01c.321.804.348 1.484.142 2.05-.206.565-.628.976-1.132 1.27-.66.387-1.488.59-2.25.677.172.03.325.043.429.044 1.699-.257 2.726-.718 3.278-1.267.536-.534.65-1.177.455-1.901-.2-.74-.723-1.551-1.456-2.357-.73-.802-1.651-1.58-2.62-2.254l.227-.44c.216.076.538.25.903.46.35.203.756.45 1.177.707l.077.047c.905.551 1.856 1.127 2.491 1.41l.117.052.026.124c.21.982.243 2.004.238 3.008-.001.296-.006.59-.01.88-.011.704-.022 1.39.014 2.057.1 1.87.563 3.485 2.367 4.582.2.12.367.315.51.541.144.229.274.506.39.811.233.611.423 1.36.572 2.118.1.507.184 1.024.25 1.511 0-.47-.03-.948-.078-1.416a19.25 19.25 0 00-.543-2.958l-.088-.316h1.642c1.752.042 2.89-.485 3.607-1.136a3.64 3.64 0 00.716-.893c-1.066.87-2.955 1.698-5.675 1.271-1.974-.31-2.923-2.107-3.333-4.075-.414-1.986-.31-4.261-.09-5.751l.492-.013s.004.017.029.05a.66.66 0 00.13.123c.13.099.343.213.671.32.657.216 1.74.397 3.447.397 1.82 0 3.134.936 4.028 2.08.62.792 1.044 1.692 1.305 2.473.069-.747-.108-1.69-.79-2.676-.998-1.439-3.089-2.987-7.116-4.113-3.607-1.008-5.813-3.314-7.141-5.963-2.453-4.89-1.93-10.967-1.816-12.304v-.006l.004-.039c.062-.724-.036-1.213-.169-1.53.008 1.373-.34 2.504-.554 2.965l-.014.032-.023.026c-1.815 2.112-2.116 4.504-1.75 6.653.367 2.156 1.406 4.054 2.248 5.137l.404.518-.646-.119c-.901-.166-1.528-.737-1.942-1.363l.015.032a5.68 5.68 0 001.057 1.451l.1.099-.031.137c-.087.375-.345.611-.603.751a1.802 1.802 0 01-.716.206l-.297.017.034-.296c.203-1.746-.967-2.97-1.575-3.36l-.015-.01-.014-.011c-1.18-1.023-1.625-2.313-1.629-3.655-.003-1.333.428-2.719.993-3.965.567-1.25 1.277-2.376 1.851-3.195.57-.815 1.017-1.34 1.06-1.384l.001-.002c.011-.012.1-.117.247-.31.151-.2.356-.483.58-.827.45-.69.97-1.614 1.298-2.595.329-.984.453-1.996.151-2.88-.298-.87-1.026-1.664-2.51-2.19-2.396-.848-4.152-.462-5.38.336-.65.422-1.16.965-1.539 1.515 1.71-1.436 3.519-1.644 4.37-1.515h.007l.008.002c1.26.268 2.1.715 2.599 1.294.506.588.636 1.281.54 1.975-.096.686-.413 1.38-.81 2.004a9.463 9.463 0 01-1.335 1.64l-.006.005c-4.65 4.268-4.723 8.301-4.236 9.714l.251.728-.631-.442c-1.202-.843-1.478-2.414-1.386-3.935.046-.768.187-1.548.368-2.26l-.048.074zm-.113-.818c.23-.5.341-1.052.208-1.603-.04-.157-.033-.364.018-.605.04-.185.109-.4.214-.645-.554.834-.876 1.694-.725 2.45l.008.038-.004.038c-.08.703-.5 1.154-1.064 1.394-.55.234-1.239.271-1.907.182a5.58 5.58 0 01-1.703-.51c.138.14.295.273.47.39.736.498 1.83.772 3.398.31.222-.19.514-.496.77-.877.097-.185.203-.373.317-.562zm-.461-4.258c.991-1.892 2.187-2.954 3.346-3.539.87-.438 1.706-.6 2.399-.652-.73-.277-1.395-.324-1.99-.212-.84.157-1.571.635-2.169 1.284-.598.65-1.054 1.463-1.343 2.268-.104.29-.185.576-.243.85zm3.663-4.895c.976-.182 2.075.01 3.262.732l-.142.463c-.738-.035-1.94-.034-3.212.608-1.267.638-2.637 1.927-3.68 4.525l-.48-.064c-.079-.677.055-1.535.362-2.39.307-.856.795-1.73 1.445-2.436.65-.708 1.473-1.256 2.445-1.438zm9.402 2.468c.352-.35.767-.628 1.162-.68l.163.461c-.623.384-.958 1.08-1.09 1.847-.132.766-.052 1.557.108 2.064l.153.485-.477-.175c-.637-.233-.996-.65-1.12-1.159-.12-.492-.01-1.034.2-1.524.214-.493.542-.961.901-1.32zm-.264 3.282a5.403 5.403 0 01.006-1.739 4.39 4.39 0 01.163-.648 3.708 3.708 0 00-.346.622c-.188.436-.258.861-.174 1.208.05.206.157.398.35.557zm-15.87 1.669c.084-.11.186-.201.3-.277.089-.06.186-.11.287-.153a1.029 1.029 0 00-.128.015c-.251.047-.38.183-.444.364a.744.744 0 00-.016.051zm.367-.906c.414-.078.955.016 1.642.31l-.117.48c-.425-.033-.975.026-1.314.254a.664.664 0 00-.303.434c-.038.194-.01.472.174.865l-.406.28a2.14 2.14 0 01-.495-.895c-.095-.336-.12-.713-.005-1.04.12-.341.39-.607.824-.688zm18.994 4.082c.546-.11 1.209-.083 1.649-.027l.213.027.005.215c.01.398-.035.998-.209 1.498-.086.249-.212.494-.398.673a.933.933 0 01-.555.264 1.16 1.16 0 01-.43.532c-.226.15-.488.206-.74.213-.5.013-1.024-.168-1.353-.333l-.138-.07v-.154c0-.544.1-1.036.286-1.402.144-.282.359-.52.64-.609a.798.798 0 01.288-.509c.199-.168.47-.262.742-.318zm-.42.7a.303.303 0 00-.113.303l.041.286h-.288c-.138 0-.302.095-.445.375a2.27 2.27 0 00-.208.759c.2-.106.418-.23.61-.358.165-.108.303-.213.397-.306a.638.638 0 00.104-.13v-.24h.25c.033 0 .117-.024.259-.116.132-.085.282-.207.436-.35.17-.156.338-.33.486-.494a4.36 4.36 0 00-1.01.061c-.237.049-.413.121-.518.21zm1.747.23c-.116.122-.24.245-.364.36a3.858 3.858 0 01-.505.404 1.366 1.366 0 01-.335.163 1.115 1.115 0 01-.198.258 3.2 3.2 0 01-.472.368 7.683 7.683 0 01-.546.324c.2.057.414.093.614.088a.896.896 0 00.478-.13c.12-.08.226-.21.288-.43l.056-.202.208.02a.432.432 0 00.362-.128c.107-.103.2-.265.273-.477.067-.192.112-.407.14-.618zm-3.669-.762c.075.04.122.101.151.16a.55.55 0 01.062.247.55.55 0 01-.062.248c-.105.21-.328.281-.496.281-.167 0-.39-.07-.496-.28a.373.373 0 01-.04-.204.37.37 0 01.077-.19.718.718 0 01.252-.188.994.994 0 01.34-.116.376.376 0 01.212.042zm20.453 14.022c-.204.204-.299.47-.245.697.04.17.109.295.2.386.09.09.215.16.385.2.228.053.493-.042.697-.246.204-.204.3-.47.246-.697a.779.779 0 00-.2-.385.78.78 0 00-.386-.2c-.227-.053-.493.041-.697.245zm-.353-.353c.29-.29.723-.482 1.164-.38.246.058.458.167.625.334.167.167.276.38.334.625.103.441-.09.875-.38 1.165-.289.29-.723.482-1.164.379a1.276 1.276 0 01-.625-.334 1.276 1.276 0 01-.333-.625c-.103-.44.09-.875.379-1.164zM27.11 49.034a1.308 1.308 0 011.36-1.36 1.273 1.273 0 011.217 1.218c.04.746-.6 1.406-1.353 1.366a1.28 1.28 0 01-.876-.378 1.302 1.302 0 01-.348-.846zm1.332-.86a.809.809 0 00-.833.834c.011.22.088.4.21.526.12.124.297.212.541.225.45.024.852-.383.828-.84a.773.773 0 00-.746-.745zm.26 6.154c.599 1.373.818 2.587.527 3.838-.339 1.457-1.362 2.916-3.157 4.713-2.857 2.86-3.217 5.971-2.963 7.813.512-2.2 1.021-3.667 1.884-5.106.99-1.648 2.44-3.25 4.858-5.889.752-.82.708-2.114.229-3.331a5.81 5.81 0 00-.938-1.591 3.843 3.843 0 00-.44-.447zm9.808 14.665l.244-.43c.342.134.876.409 1.396.806.404.308.81.699 1.108 1.165.087-.134.19-.27.306-.388.236-.241.602-.484 1.022-.33l.593.219-.582.246c-.151.064-.312.244-.464.558a5.29 5.29 0 00-.36 1.112c-.185.83-.258 1.718-.267 2.123l-.5-.011c.03-1.318-.434-2.462-.992-3.345s-1.202-1.49-1.504-1.725zm2.715 3.139a7.717 7.717 0 01.21-.865l-.179.403-.228-.513c-.197-.442-.528-.833-.902-1.161.105.143.21.295.31.455.307.484.59 1.05.79 1.68z" fill="#E8E8E8"/><path fill-rule="evenodd" clip-rule="evenodd" d="M35.353 47.044h10.19V57.94h-.775l.775.688v14.675l-3.887-5.154v-7.461l-2.18-1.696v6.322l-4.123-5.288v-12.98zm1 1v11.637l2.122 2.723v-5.458l4.181 3.252v7.615l1.887 2.502V59.077l-2.406-2.139h2.406v-8.894h-8.19zm9.721-1h10.132v7.95H52.2v-3.77h-2.12v10.25l.53-.53h4.996l-9.53 12.33v-26.23zm1 1v22.3l6.494-8.4h-2.545l-1.944 1.943V50.224h4.122v3.77h2.005v-5.95h-8.132zm-8.42 2.488h3.647v4.75h-3.647v-4.75zm1 1v2.75h1.647v-2.75h-1.647z" fill="#fff"/><path d="M51.312 60.702l.044-.545c.145-1.568.629-2.897 1.45-3.987h-1.642l-.035.53h-.717v-1.358h3.294v.828c-.25.337-.457.658-.624.965a5.74 5.74 0 00-.4.92c-.1.307-.18.632-.24.976-.06.34-.11.716-.15 1.126l-.046.545h-.934zm4.383.078c-.487 0-.872-.183-1.156-.55-.284-.367-.426-.906-.426-1.615v-1.182c0-.707.141-1.244.423-1.612.284-.371.668-.556 1.152-.556.483 0 .866.185 1.15.556.286.368.429.905.429 1.612v1.182c0 .709-.142 1.248-.426 1.616-.282.366-.664.548-1.146.548zm0-.825c.209 0 .368-.098.477-.295.109-.196.163-.51.163-.942v-1.395c0-.425-.055-.735-.166-.932-.111-.199-.271-.298-.48-.298a.52.52 0 00-.48.294c-.11.197-.164.509-.164.936v1.395c0 .432.054.746.163.942a.53.53 0 00.487.295zm2.91.747l.045-.545c.145-1.568.629-2.897 1.45-3.987h-1.642l-.035.53h-.718v-1.358H61v.828c-.25.337-.458.658-.624.965a5.732 5.732 0 00-.4.92c-.1.307-.18.632-.24.976-.06.34-.11.716-.151 1.126l-.045.545h-.935z" fill="#DA9640"/></svg>