<svg width="121" height="147" fill="none" xmlns="http://www.w3.org/2000/svg"><path d="M74.659 31.566c13.885 18.786 22.238 45.137 24.733 56.14-1.04-2.954-2.965-7.456-3.796-9.338-5.858 17.7-27.338 12.162-27.989 1.737 4.513 7.645 12.367 7.529 15.73 6.515 16.923-6.341 6.473-19.437-.868-25.192 3.819 1.477 7.883 5.683 9.438 7.601-5.033-20.675-29.036-48.647-40.572-59.94-12.15-12.488-20.177.217-30.808 9.121C44.609-15.56 51.01 6.591 74.659 31.566z" fill="#fff"/><path d="M66.089 96.393c-.687-3.51-3.775-10.533-10.631-10.533s-8.86-1.448-9.004-2.171c-.868 5.863-.803 17.873 6.4 19.002 7.203 1.13 11.318-2.28 12.475-4.126-.289 2.28-2.668 6.798-9.871 6.624h-2.604c.65 2.353 2.061 9.121.65 13.356 0-2.606-1.149-12.531-3.579-14.008-7.594-4.615-3.804-13.682-5.424-21.283-2.604-1.158-7.702-4.67-9.22-5.212 7.81 5.43 14.21 14.334.433 16.397-.65 0-2.17-.196-3.038-.978 3.725.073 10.567-1.303 8.137-7.384-.362-.724-1.389-2.388-2.604-3.257-1.519-1.086-5.75-4.995-6.617-8.036-.868-3.04-5.641 3.367-4.882 8.904.608 4.43 6.9 12.644 7.268 21.501.055 1.313.543 2.172 0 3.366-1.627-12.813-7.268-15.789-8.57-21.609-.578.941-1.562 4.887-.868 13.139-2.314-1.556-6.248-7.014-3.471-16.396-4.34 1.628-11.955-.37-7.702-7.493-1.193 3.113-1.237 8.47 8.136 4.995l.542-3.692c-1.265-.217-3.514-2.302-2.386-8.904-.181 2.1.13 6.558 2.82 7.601.904-3.728.673-10.75-7.485-9.013.18-.651.955-2.02 2.604-2.28-3.874-2.262-9.547-8.707-4.79-17.79a9.317 9.317 0 01-1.72 1.936C4.494 51.047 1.616 46.841 1 44.49c.868 3.149 10.414 5.32 10.957.542-.782-3.909 4.086-8.65 6.617-10.533-4.253 4.344-4.882 7.095-4.665 7.927.303 1.25.04 2.477-.457 3.547.445-.732.957-1.48 1.542-2.244-1.591 3.873-3.688 12.38.651 15.42-1.049-3.04-.803-11.272 8.57-19.872 3.508-3.438 8.071-10.837-1.736-12.922-1.916-.29-6.704.348-10.522 5.212 1.193-3.728 6.031-10.315 15.838-6.84 12.258 4.343.868 18.134.65 18.35-.216.218-13.45 15.855-4.555 23.564 1.301.833 3.796 3.432 3.363 7.167.614-.036 1.909-.39 2.17-1.52-1.303-1.267-3.667-4.452-2.713-7.058.253 1.737 1.584 5.364 4.882 5.972-3.435-4.416-8.44-15.42-.977-24.106.47-1.014 1.324-3.866.977-7.167.578.253 1.67 1.52 1.41 4.56l-.007.078c-.227 2.646-1.256 14.637 3.564 24.246 2.358-1.665 7.068-5.825 5.072-8.952-.92-.073-3.075-.66-5.072-2.775 5.447 1.628 13.909 4.532 14.735-2.496 1.194-10.147 1.538-26.606-18.943-27.475-.627-.481-1.834-1.332-2.895-1.888a13.676 13.676 0 01-1.227-.5c.344.078.772.262 1.227.5 2.37.855 6.966 2.038 13.092 2.323-.723-1.122-2.213-3.692-2.386-4.995 3.363 5.646 8.092 7.483 10.913 11.61 0 1.737 0 3.794 1.098 6.588.659 15.594.878 18.396-7.455 19.59.244 2.208-.781 7.34-6.834 10.207l-1.325-1.737c2.595 5.173 6.885 9.656 13.908 11.619C66.63 84.948 67.616 92.955 66.09 96.393z" fill="#fff"/><path d="M25.625 29.395c-3.001-.145-9.98 0-14.21 10.533-.58-4.995 5.098-16.071 14.21-10.533zM6.424 45.357c-1.519-1.556-1.953-6.08 3.363-3.8-1.772-.133-4.925.441-3.363 3.8z" fill="#fff"/><path d="M5.665 39.276c-7.464 2.954-1.844 8.361 1.41 7.818-7.203-3.218-3.905-7.058 1.085-7.6-.868-.326-1.302-.435-2.495-.218zM36.04 25.703c-3.906-2.968-14.19-6.993-24.083.651 2.386-4.452 19.049-13.334 24.082-.651z" fill="#fff"/><path d="M37.775 22.77c-4.414-5.646-11.892-5.103-15.079-4.125 1.736-1.267 7.03-3.388 14.32-1.738 1.627-1.122 5.945-2.519 10.197.869 5.316 4.235 22.239 28.776 22.564 39.309-5.192-14.66-23.345-44.174-29.94-39.31 7.846 4.743 22.91 18.504 20.394 35.618-1.628 8.687-3.255 7.275-4.014 20.414-.76-1.629-1.649-7.883.868-19.871 2.517-11.989-7.196-25.772-12.367-31.165-1.23-1.23-4.491-3.779-7.702-4.126.506.724 1.367 2.562.76 4.126zm12.801 101.096c7.116-7.123 7.81-11.293 4.448-17.917 3.146.977 7.18 8.578 3.797 12.27C49.166 128.752 47.43 130.815 45.043 142c-1.12-3.077-1.583-11.011 5.533-18.134z" fill="#fff"/><path d="M40.487 41.557c-.361-.905-.455-3.323 2.061-5.756.253-.153.608-1.084 0-3.583.4.196.848.465 1.28.794l1.317-.386-.578 1.037 1.456-.378-.61 1.537 1.27-.22-1.012.94 1.011.159-.947.409v.03l.728.44-.792.127.792.531h-.966l.746.546h-1.041l.821.51h-1.208l.682.762-1.167-.28c-1.386.913-2.667.213-3.843 2.78zm-2.169-1.629c-.688-2.172-.651-6.624 2.17-8.362-2.496.326-6.683 6.711-2.17 8.362zm1.41 9.555c-.095-.19-.293-.165-.733.054-.313.157-.447.3-.352.49.19.379.895.379 1.085 0a.554.554 0 000-.544zm3.254 1.195c-.26-1.824 3.074-1.846 4.773-1.629.037 1.52-.347 4.517-2.17 4.344-.607 2.171-3.218 1.484-4.447.868 0-2.063.76-3.583 1.844-3.583zm39.119 25.214c-1.33-.31-2.786 1.145-2.475 2.476.193.827.71 1.344 1.538 1.537 1.33.311 2.786-1.144 2.475-2.475-.194-.827-.71-1.344-1.538-1.538zM57.63 96.393c.062 1.198-.975 2.26-2.172 2.197-1.198-.063-1.91-.882-1.967-1.967-.063-1.205.98-2.251 2.184-2.184a2.037 2.037 0 011.954 1.954zM81.164 146.5C81.289 141 77.286 137 76 136c1.276.5 4.094 2.1 5.164 4.5.37-.833 1.386-2.4 2.475-2-1.89.8-2.438 6.333-2.475 8z" fill="#fff"/><path fill-rule="evenodd" clip-rule="evenodd" d="M63.12 17.985c3.456 4.14 7.283 8.724 11.72 13.41l.01.01.01.013C88.775 50.243 97.138 76.63 99.636 87.65l-.48.138c-.942-2.672-2.611-6.623-3.533-8.737-1.499 4.143-3.878 6.975-6.646 8.731-2.9 1.84-6.209 2.49-9.347 2.25-3.137-.242-6.114-1.374-8.352-3.115-2.238-1.741-3.752-4.103-3.92-6.797l.465-.143c4.43 7.503 12.13 7.397 15.434 6.405 4.196-1.573 6.655-3.55 7.9-5.69 1.243-2.136 1.299-4.473.606-6.818-1.393-4.71-5.79-9.383-9.448-12.25l.245-.43c1.949.754 3.946 2.197 5.642 3.68a36.536 36.536 0 013.193 3.167c-2.724-10.057-9.74-21.74-17.537-32.353-8.064-10.978-16.94-20.783-22.698-26.42l-.004-.005c-3.014-3.098-5.748-4.608-8.305-5.022-2.555-.415-4.971.258-7.367 1.605-2.4 1.348-4.761 3.363-7.198 5.61-.707.653-1.422 1.326-2.145 2.007-1.758 1.655-3.566 3.358-5.454 4.939l-.364-.337c6.025-8.45 10.97-13.438 15.38-15.749C37.914 1.158 39.996.67 42.013.761c2.017.09 3.951.757 5.869 1.882 3.825 2.244 7.62 6.332 11.919 11.39a597.977 597.977 0 013.319 3.952zM21.995 16.61c5.443-7.376 9.944-11.758 13.94-13.852 2.145-1.123 4.14-1.585 6.056-1.499 1.917.086 3.773.72 5.638 1.814 3.741 2.195 7.486 6.217 11.79 11.282 1.067 1.255 2.168 2.573 3.31 3.94 3.455 4.14 7.293 8.737 11.738 13.431 12.398 16.78 20.38 39.614 23.705 52.098-.889-2.2-1.83-4.387-2.348-5.558l-.262-.594-.204.616c-1.448 4.376-3.855 7.299-6.65 9.072-2.796 1.775-5.995 2.407-9.04 2.173-3.046-.234-5.928-1.335-8.083-3.01-1.831-1.425-3.128-3.256-3.574-5.32C72.674 88 80.132 87.848 83.41 86.86l.008-.003.008-.002c4.262-1.597 6.84-3.634 8.165-5.911 1.328-2.283 1.374-4.77.652-7.21-1.233-4.172-4.72-8.263-8.011-11.165 1.265.74 2.513 1.695 3.642 2.682 1.676 1.466 3.071 2.987 3.84 3.936l.437-.217c-2.529-10.388-9.813-22.583-17.89-33.577-8.078-11-16.97-20.825-22.748-26.48-3.06-3.145-5.884-4.729-8.581-5.166-2.7-.438-5.233.28-7.692 1.663-2.455 1.38-4.853 3.43-7.292 5.679-.715.66-1.434 1.337-2.16 2.02a177.86 177.86 0 01-3.792 3.502zm25.062 1.36c-4.144-3.301-8.337-1.935-9.9-.858l-.09.062-.106-.024c-5.72-1.295-10.184-.242-12.625.859a17.3 17.3 0 015.479-.033c2.739.435 5.635 1.642 7.855 4.268.123-.591.058-1.213-.098-1.787a5.69 5.69 0 00-.761-1.67l-.316-.451.548.06c1.657.178 3.311.922 4.697 1.766 1.388.845 2.526 1.802 3.155 2.431l.003.004c2.601 2.713 6.338 7.527 9.11 13.172 2.771 5.64 4.596 12.144 3.322 18.217-1.256 5.98-1.66 10.523-1.658 13.769.002 2.07.17 3.604.383 4.641.381-5.617.944-8.315 1.604-10.538.185-.625.377-1.21.574-1.809.557-1.694 1.153-3.505 1.751-6.699 1.244-8.469-1.859-16.121-6.267-22.26-4.41-6.141-10.111-10.745-14.01-13.101l-.32-.193.3-.222c.909-.67 2.004-.733 3.194-.346 1.182.385 2.482 1.22 3.848 2.385 2.735 2.332 5.799 6.044 8.81 10.351 5.523 7.905 10.901 17.87 13.763 25.14-.413-2.268-1.363-4.98-2.669-7.909-1.71-3.834-4.015-8.012-6.48-11.996-2.463-3.984-5.082-7.771-7.416-10.825-2.34-3.06-4.377-5.366-5.68-6.404zm-10.092-1.33c1.757-1.154 6.12-2.473 10.404.94 1.355 1.08 3.426 3.43 5.765 6.492 2.344 3.067 4.973 6.868 7.445 10.865 2.472 3.997 4.79 8.194 6.511 12.056 1.718 3.854 2.854 7.4 2.937 10.084l-.486.091c-2.586-7.304-8.41-18.327-14.413-26.916-3.001-4.295-6.037-7.966-8.723-10.258-1.345-1.146-2.586-1.934-3.679-2.29-.932-.302-1.738-.287-2.416.069 3.933 2.443 9.486 7 13.813 13.026 4.455 6.205 7.626 13.988 6.355 22.63l-.001.01c-.606 3.232-1.215 5.084-1.774 6.785a62.744 62.744 0 00-.565 1.778c-.698 2.35-1.292 5.262-1.671 11.82l-.477.09c-.403-.865-.815-2.88-.818-6.156-.002-3.286.407-7.864 1.668-13.872 1.242-5.915-.53-12.297-3.28-17.894-2.747-5.59-6.45-10.363-9.02-13.044-.602-.602-1.708-1.533-3.06-2.356-1.205-.733-2.589-1.37-3.973-1.622.2.37.406.84.547 1.36.21.774.284 1.684-.046 2.534l-.159.41-.27-.347c-2.16-2.762-5.069-4.014-7.843-4.454-2.778-.442-5.405-.066-6.966.413l-.221-.441c1.788-1.306 7.114-3.425 14.416-1.803zm-23.799 8.536c.735-.766 1.76-1.591 2.987-2.374 1.956-1.248 4.394-2.367 6.91-2.956s5.091-.642 7.336.215c2.034.777 3.82 2.31 5.056 4.922-4.193-2.773-13.277-5.817-22.288.193zm17.412-5.582c2.378.909 4.412 2.787 5.694 6.017l.331.834-.715-.543c-3.851-2.927-14.006-6.9-23.778.65l-.374-.316c.628-1.17 2.16-2.588 4.148-3.856 1.997-1.273 4.486-2.417 7.064-3.02 2.577-.603 5.26-.67 7.63.234zm9.336 2.993l.462-.161c1.66 2.787 3.659 4.637 5.609 6.313.231.2.463.396.693.592 1.7 1.448 3.34 2.844 4.603 4.692l.044.063v.078c0 1.73 0 3.748 1.08 6.497l.016.039.002.042.023.556c.154 3.636.278 6.565.262 8.927-.017 2.48-.188 4.36-.653 5.799-.468 1.45-1.238 2.453-2.437 3.161-1.14.674-2.655 1.074-4.63 1.37.155 2.407-1.041 7.4-6.997 10.22l-.037.017c2.63 4.214 6.603 7.727 12.58 9.398 8.113 2.267 12.462 5.422 14.583 8.484 2.124 3.066 2 6.02 1.2 7.82l-.321.725-.153-.778c-.337-1.725-1.267-4.32-2.953-6.477-1.682-2.152-4.102-3.854-7.432-3.854-3.443 0-5.687-.363-7.097-.827-.705-.231-1.21-.491-1.554-.75a2.49 2.49 0 01-.195-.162c-.366 2.898-.483 6.979.26 10.543.804 3.855 2.584 6.992 6.02 7.53 7.106 1.114 11.122-2.251 12.226-4.012l.46.165c-.152 1.195-.846 2.95-2.424 4.385-1.583 1.44-4.043 2.544-7.7 2.457H53.18a39.63 39.63 0 011.021 5.697c.259 2.525.263 5.319-.459 7.488l-.487-.079c0-1.283-.285-4.399-.874-7.379-.294-1.489-.663-2.934-1.105-4.094a8.531 8.531 0 00-.71-1.482c-.255-.402-.513-.683-.77-.839-3.9-2.37-4.867-5.892-5.073-9.722-.073-1.356-.051-2.763-.03-4.175.01-.573.018-1.147.02-1.718.01-1.943-.055-3.87-.43-5.706-1.317-.603-3.197-1.744-4.93-2.8l-.15-.09a298.23 298.23 0 00-1.18-.717 28.467 28.467 0 012.742 2.613c1.495 1.644 2.627 3.365 3.069 5.001.446 1.652.19 3.226-1.1 4.51-1.272 1.266-3.52 2.22-6.983 2.739l-.018.003h-.019c-.345 0-.909-.052-1.5-.204-.588-.151-1.228-.409-1.705-.838l-.498-.449.67.013c1.843.036 4.43-.289 6.245-1.35.903-.528 1.597-1.227 1.93-2.14.33-.909.316-2.066-.272-3.541-.175-.35-.513-.93-.954-1.529-.447-.605-.99-1.215-1.566-1.628-.777-.555-2.227-1.816-3.593-3.32-1.36-1.497-2.669-3.27-3.12-4.85-.098-.346-.237-.501-.36-.562-.12-.06-.29-.062-.53.05-.49.228-1.112.866-1.709 1.812-1.185 1.879-2.164 4.806-1.794 7.502.146 1.069.64 2.384 1.32 3.915.367.825.78 1.695 1.216 2.614.377.793.77 1.623 1.167 2.491 1.697 3.72 3.38 8.024 3.567 12.503.013.315.052.604.097.884l.036.224c.033.202.067.404.09.602.064.556.05 1.119-.245 1.77l-.365.803-.11-.874c-.81-6.368-2.613-10.284-4.376-13.334a82.791 82.791 0 00-1.29-2.134l-.015-.025a63.366 63.366 0 01-1.2-1.994c-.623-1.097-1.152-2.19-1.503-3.392-.213.627-.444 1.637-.601 3.093-.23 2.116-.302 5.15.044 9.263l.043.519-.432-.29c-2.372-1.596-6.248-7.015-3.704-16.215-2.175.664-4.973.511-6.833-.641-1.006-.624-1.748-1.548-1.945-2.797-.196-1.242.153-2.762 1.233-4.572l.448.218c-.29.758-.509 1.649-.533 2.5-.025.852.146 1.64.603 2.224.45.576 1.21.995 2.452 1.054 1.223.06 2.898-.232 5.155-1.056l.488-3.32c-.692-.214-1.5-.868-2.041-2.15-.604-1.432-.88-3.656-.312-6.985l.496.063c-.089 1.03-.056 2.64.326 4.113.357 1.373 1 2.567 2.07 3.115.392-1.819.485-4.268-.394-6.096-.46-.954-1.183-1.737-2.272-2.182-1.095-.448-2.584-.566-4.592-.138l-.403.086.11-.398c.173-.622.837-1.839 2.21-2.312-1.868-1.218-4.006-3.313-5.226-6.14-1.164-2.696-1.486-6.044.039-9.904a7.697 7.697 0 01-.528.482l-.039.032-.048.014c-3.36 1.018-5.808.463-7.5-.68-1.68-1.136-2.583-2.832-2.903-4.056l.483-.13c.19.69.876 1.372 1.883 1.933.995.555 2.256.964 3.51 1.13 1.255.166 2.477.085 3.406-.31.905-.385 1.53-1.064 1.664-2.134-.392-2.055.685-4.278 2.12-6.186 1.452-1.933 3.32-3.605 4.6-4.557l.329.375c-2.113 2.158-3.316 3.911-3.963 5.216-.324.653-.507 1.191-.597 1.61-.09.423-.082.708-.042.863l.001.004c.165.68.17 1.349.067 1.99.184-.259.376-.519.577-.78l.43.247c-.789 1.92-1.702 4.986-1.88 7.942-.162 2.663.276 5.16 1.848 6.687-.78-3.603.116-11.342 8.849-19.357a18.083 18.083 0 002.549-3.13c.757-1.193 1.33-2.47 1.5-3.692.17-1.214-.06-2.365-.9-3.34-.847-.983-2.339-1.817-4.757-2.333-1.838-.274-6.527.337-10.282 5.12l-.434-.23c.61-1.907 2.148-4.539 4.79-6.255 2.655-1.724 6.399-2.506 11.37-.745.12.043.24.087.356.132l.05-.14c.372.084.817.277 1.271.515 2.29.823 6.677 1.957 12.524 2.278a30.786 30.786 0 01-1.154-2.042c-.483-.943-.919-1.947-1.012-2.646zm-8.562 3.502c2.604.731 6.44 1.489 11.185 1.71l.484.022-.263-.408a30.107 30.107 0 01-1.387-2.408 19.775 19.775 0 01-.326-.665c1.45 1.975 3.059 3.442 4.614 4.778.234.201.466.4.696.595 1.685 1.436 3.254 2.772 4.47 4.528 0 1.721.016 3.786 1.1 6.564l.021.505c.154 3.645.278 6.562.262 8.912-.017 2.47-.188 4.287-.628 5.648-.436 1.348-1.133 2.245-2.216 2.885-1.097.648-2.605 1.042-4.681 1.34l-.24.034.026.24c.232 2.096-.728 7.036-6.51 9.867l-1.045-1.37c1.183-.86 2.84-2.26 4.014-3.832 1.233-1.653 2.003-3.602.914-5.309l-.067-.105-.124-.01c-.754-.059-2.45-.495-4.17-1.986 2.538.766 5.58 1.663 8.174 1.709 1.475.026 2.841-.222 3.897-.955 1.065-.74 1.777-1.948 1.99-3.76.598-5.075.992-11.785-1.36-17.343-1.18-2.786-3.05-5.284-5.927-7.138-2.86-1.844-6.7-3.041-11.815-3.269a25.3 25.3 0 00-1.088-.779zm.91 1.272l.078.003c5.088.216 8.86 1.399 11.644 3.193 2.782 1.793 4.591 4.207 5.737 6.913 2.297 5.426 1.922 12.018 1.325 17.09-.2 1.701-.856 2.766-1.78 3.407-.933.649-2.178.891-3.602.866-2.599-.046-5.677-.975-8.274-1.76l-.76-.228-.893-.267.64.678c1.957 2.074 4.072 2.722 5.105 2.84.816 1.4.23 3.052-.955 4.639-1.121 1.503-2.717 2.858-3.875 3.702-4.636-9.494-3.633-21.224-3.408-23.85l.007-.077c.265-3.09-.838-4.495-1.559-4.811l-.394-.173.045.428c.338 3.217-.484 6-.94 7.004-3.77 4.406-4.388 9.398-3.633 13.833.695 4.077 2.55 7.695 4.195 9.988-1.212-.416-2.106-1.288-2.746-2.276-.754-1.166-1.14-2.471-1.262-3.31l-.482-.05c-.512 1.397-.126 2.923.52 4.228a12.107 12.107 0 002.147 2.99c-.135.403-.436.684-.79.876a2.841 2.841 0 01-.821.284c.277-3.681-2.176-6.233-3.491-7.081-2.15-1.871-2.965-4.216-2.972-6.704-.007-2.503.805-5.15 1.91-7.584 1.104-2.431 2.491-4.633 3.618-6.243a42.341 42.341 0 011.423-1.919 26.602 26.602 0 01.602-.735l.002-.002a11.6 11.6 0 00.559-.698c.311-.41.73-.989 1.187-1.69.913-1.4 1.986-3.3 2.667-5.337.68-2.034.977-4.233.3-6.214a6.454 6.454 0 00-1.074-1.953zm-19.24 19.88a8.71 8.71 0 00.651-1.151c.143-.236.294-.473.451-.712-.599 1.831-1.143 4.12-1.278 6.357-.182 3.01.373 6.018 2.655 7.617l.632.443-.252-.729c-1.009-2.926-.813-11.057 8.503-19.606l.006-.005a18.59 18.59 0 002.624-3.221c.778-1.227 1.39-2.573 1.574-3.892.184-1.326-.065-2.63-1.018-3.736-.945-1.098-2.558-1.969-5.039-2.496l-.007-.002h-.007c-1.832-.278-6.075.258-9.754 4.14.775-1.575 2.092-3.342 4.019-4.594 2.514-1.632 6.093-2.406 10.93-.693 3.009 1.067 4.527 2.695 5.15 4.515.627 1.833.362 3.909-.3 5.893-.662 1.981-1.711 3.841-2.612 5.223a28.94 28.94 0 01-1.166 1.661 19.355 19.355 0 01-.477.603l-.036.042-.002.002c-.07.07-.949 1.104-2.082 2.723-1.138 1.624-2.544 3.854-3.664 6.323-1.12 2.465-1.962 5.187-1.955 7.791.007 2.614.87 5.11 3.158 7.092l.014.012.015.01c1.256.803 3.668 3.322 3.25 6.927l-.035.296.297-.017c.337-.02.852-.126 1.322-.38.474-.257.925-.678 1.077-1.334l.031-.137-.1-.098a11.564 11.564 0 01-2.153-2.96c-.431-.869-.717-1.793-.705-2.681a9.294 9.294 0 001.06 2.307c.8 1.237 2.01 2.352 3.747 2.673l.646.119-.403-.519c-1.697-2.181-3.787-5.999-4.526-10.34-.738-4.333-.13-9.175 3.542-13.45l.023-.026.014-.031c.46-.99 1.254-3.624 1.047-6.732.48.527 1.059 1.724.864 4l-.007.083c-.228 2.653-1.263 14.7 3.59 24.373 2.62 5.224 6.961 9.762 14.064 11.748 8.05 2.25 12.276 5.356 14.306 8.287 1.73 2.496 1.877 4.877 1.432 6.54-.454-1.72-1.369-3.941-2.855-5.843-1.747-2.236-4.3-4.046-7.825-4.046-3.414 0-5.6-.36-6.941-.802-.67-.22-1.122-.458-1.41-.674-.292-.221-.39-.4-.408-.495l-.493.013c-.436 2.95-.64 7.45.176 11.364.813 3.899 2.667 7.332 6.433 7.922 6.234.978 10.218-1.397 12.002-3.315a7.338 7.338 0 01-1.999 2.989c-1.479 1.345-3.81 2.412-7.354 2.327h-2.938l.087.317c.322 1.165.835 3.431 1.09 5.931.192 1.871.238 3.854-.037 5.599a53.315 53.315 0 00-.794-5.717c-.297-1.502-.672-2.978-1.129-4.175a8.96 8.96 0 00-.755-1.571c-.274-.434-.583-.787-.933-.999-3.694-2.245-4.63-5.564-4.833-9.322-.072-1.337-.05-2.718-.029-4.121.01-.578.018-1.159.02-1.743.01-1.995-.057-4.008-.468-5.936l-.026-.124-.116-.052c-1.284-.571-3.193-1.728-4.99-2.822l-.15-.092c-.84-.512-1.649-1.004-2.342-1.406-.73-.422-1.352-.755-1.757-.9l-.227.441c1.941 1.35 3.79 2.912 5.258 4.526 1.472 1.617 2.544 3.269 2.956 4.795.408 1.51.17 2.89-.97 4.025-1.158 1.151-3.271 2.082-6.685 2.596A5.936 5.936 0 0134.339 94a4.634 4.634 0 01-.835-.297c1.788-.063 4.015-.44 5.675-1.411.97-.568 1.763-1.347 2.146-2.4.384-1.056.344-2.347-.28-3.908l-.004-.01-.005-.01a11.78 11.78 0 00-1.004-1.61c-.461-.626-1.04-1.282-1.677-1.739-.743-.53-2.167-1.766-3.514-3.249-1.352-1.489-2.592-3.19-3.009-4.651-.118-.414-.318-.724-.62-.873-.304-.151-.643-.103-.961.044-.625.291-1.312 1.031-1.922 2-1.229 1.948-2.256 4.993-1.867 7.835.157 1.147.678 2.519 1.36 4.051.365.822.785 1.707 1.226 2.636.378.796.77 1.625 1.158 2.474 1.693 3.71 3.34 7.939 3.522 12.316.006.141.017.276.03.406-.937-4.781-2.468-8.003-3.97-10.602-.44-.762-.878-1.47-1.296-2.145l-.016-.027a62.926 62.926 0 01-1.19-1.978c-.732-1.287-1.316-2.54-1.634-3.961l-.134-.601-.323.524c-.32.521-.714 1.79-.947 3.932-.223 2.057-.298 4.946-.001 8.806-2.246-1.85-5.515-7.089-2.938-15.793l.142-.482-.47.176c-2.112.793-5.017.695-6.853-.442-.908-.563-1.545-1.372-1.715-2.45-.09-.576-.05-1.241.163-2l-.01.21c-.026.917.155 1.836.71 2.546.56.717 1.472 1.181 2.822 1.246 1.342.064 3.133-.264 5.492-1.139l.139-.051.6-4.08-.241-.041c-.53-.091-1.349-.594-1.903-1.909-.32-.756-.549-1.778-.58-3.132.042.215.09.43.145.643.398 1.531 1.179 3.008 2.639 3.574l.266.103.067-.277c.458-1.887.64-4.643-.362-6.723-.505-1.05-1.313-1.93-2.533-2.43-1.126-.46-2.581-.586-4.437-.252.312-.639 1.017-1.506 2.247-1.7l.692-.11-.605-.353c-1.9-1.11-4.245-3.25-5.528-6.22-1.277-2.957-1.51-6.756.827-11.226zm.21-1.387c.476-1.032.718-2.195.435-3.368-.068-.26-.062-.631.037-1.092.1-.467.3-1.045.638-1.727.347-.7.843-1.516 1.534-2.439a20.98 20.98 0 00-1.653 1.927c-1.427 1.898-2.39 3.984-2.021 5.827l.007.039-.004.039c-.147 1.297-.915 2.126-1.97 2.575-1.04.443-2.36.518-3.667.345-1.31-.173-2.633-.6-3.688-1.188a6.958 6.958 0 01-.807-.523 6.712 6.712 0 001.869 1.924c1.542 1.043 3.816 1.592 7.026.631a9.122 9.122 0 001.624-1.839c.196-.373.409-.75.64-1.13zm-1.596-7.087c2.073-4.616 4.709-7.061 7.232-8.333 2.168-1.092 4.233-1.309 5.748-1.314-1.883-.945-3.587-1.154-5.09-.873-1.74.326-3.24 1.312-4.457 2.634-1.216 1.322-2.14 2.971-2.725 4.6-.415 1.158-.654 2.295-.708 3.286zm7.797-11.01c1.875-.352 4 .013 6.322 1.424l-.142.463c-1.485-.071-3.929-.07-6.52 1.236-2.586 1.303-5.35 3.921-7.447 9.141l-.48-.065c-.15-1.298.106-2.967.708-4.645.602-1.68 1.559-3.39 2.828-4.769 1.27-1.38 2.86-2.436 4.731-2.786zM38.285 32.6c.686-.684 1.465-1.19 2.17-1.282l.163.46c-1.325.817-2.015 2.284-2.285 3.848-.269 1.563-.108 3.178.223 4.225l.153.485-.477-.174c-1.198-.439-1.848-1.208-2.073-2.133-.22-.908-.023-1.93.386-2.879a8.4 8.4 0 011.74-2.55zm-.345 6.889a10.376 10.376 0 01-.1-3.948c.18-1.037.54-2.07 1.16-2.921a6.889 6.889 0 00-.363.334 7.899 7.899 0 00-1.633 2.394c-.386.895-.545 1.8-.36 2.563.153.627.545 1.186 1.296 1.578zm4.24-7.732l.478.236c.382.187.806.438 1.219.743l1.783-.522-.59 1.06 1.368-.356-.628 1.581 1.66-.287-1.252 1.161 1.355.215-1.322.57.925.56-.84.134.947.635h-1.02l.746.546h-.931l.821.51h-1.525l.843.942-1.843-.442a4.23 4.23 0 01-.99.43l-.314.092a6.357 6.357 0 00-.646.211c-.573.233-1.144.65-1.71 1.884l-.242.53-.217-.542c-.403-1.008-.463-3.532 2.12-6.027l.02-.02.024-.014c.005-.005.044-.04.09-.153.047-.118.092-.3.113-.565.041-.53-.017-1.359-.317-2.593l-.126-.519zm3.617 3.325l.097-.09-.123.021.026.07zm-.427-.83a5 5 0 00-.34-.452l.58-.15-.24.601zm-.863-.996a6.876 6.876 0 00-.154-.138l.276-.081-.122.219zm.978 2.854a2.44 2.44 0 00-.059-.516 2.893 2.893 0 00-.237-.661 4.391 4.391 0 00-.801-1.096 6.562 6.562 0 00-.713-.627 7.677 7.677 0 00-.762-.512c.204.982.247 1.7.207 2.21-.023.3-.076.535-.148.712a.826.826 0 01-.266.376c-1.966 1.908-2.26 3.777-2.133 4.847.52-.893 1.074-1.29 1.662-1.53.238-.096.487-.168.724-.237l.277-.081a3.59 3.59 0 00.999-.458 5.87 5.87 0 00.39-.408c.143-.163.264-.325.367-.483.113-.173.204-.342.275-.508a2.468 2.468 0 00.218-1v-.029zM5.734 39.517C3.91 40.243 2.932 41.1 2.5 41.935c-.427.827-.338 1.675.07 2.444.412.776 1.147 1.461 1.981 1.92.45.246.92.422 1.372.513-1.239-.66-2.094-1.347-2.619-2.035-.67-.879-.803-1.768-.494-2.576.304-.791 1.015-1.461 1.942-1.963a8.6 8.6 0 012.246-.81c-.325-.034-.698-.012-1.265.09zm1.328-.585c.4.044.75.163 1.186.326l-.061.483c-1.221.133-2.33.467-3.196.935-.87.471-1.468 1.064-1.713 1.703-.238.622-.157 1.33.425 2.094.59.774 1.691 1.596 3.474 2.392l.757.339-.818.136c-.886.148-1.905-.11-2.804-.605-.902-.495-1.716-1.244-2.182-2.122-.47-.884-.59-1.908-.073-2.908.51-.99 1.621-1.913 3.516-2.662l.023-.01.024-.004c.608-.11 1.042-.142 1.442-.097zm-1.303 4.62a2.41 2.41 0 01.037-.274c.119-.6.468-1.036.92-1.34.494-.33 1.117-.51 1.73-.593-.675-.18-1.198-.205-1.595-.13-.591.11-.918.446-1.073.885-.145.413-.141.93-.019 1.452zm1-2.83c.754-.14 1.778.025 3.127.604l-.118.479c-.866-.065-2.029.049-2.773.549-.363.243-.62.573-.708 1.021-.09.455-.013 1.065.364 1.876l-.406.28c-.414-.425-.744-1.038-.924-1.678-.18-.638-.22-1.334-.014-1.919.211-.601.678-1.066 1.452-1.211zm37.825 8.13c1.051-.214 2.34-.162 3.203-.052l.213.027.005.215c.019.777-.069 1.94-.401 2.895-.166.478-.4.925-.732 1.243-.295.284-.663.46-1.105.469-.176.495-.462.851-.822 1.09-.4.264-.871.37-1.343.382-.939.024-1.94-.32-2.576-.637l-.138-.07v-.154c0-1.058.194-1.996.543-2.679.3-.587.736-1.023 1.287-1.13.008-.423.196-.763.5-1.02.35-.294.843-.472 1.366-.579zm-1.044.961a.851.851 0 00-.31.829l.04.285h-.288c-.408 0-.801.284-1.106.882-.261.511-.435 1.218-.478 2.048.498-.248 1.11-.582 1.636-.93.334-.219.623-.438.827-.639.102-.1.176-.19.223-.266.048-.079.058-.127.058-.15v-.25h.25c.141 0 .36-.083.65-.27.28-.18.59-.434.903-.723.48-.444.955-.957 1.319-1.381-.789-.067-1.771-.07-2.58.094-.49.1-.888.256-1.144.471zm3.954-.067c-.35.398-.776.85-1.21 1.25a7.44 7.44 0 01-.971.777c-.234.15-.478.275-.712.325a1.004 1.004 0 01-.09.186c-.077.123-.18.244-.3.36a6.131 6.131 0 01-.901.701c-.508.335-1.089.656-1.579.904.551.215 1.23.388 1.858.372.41-.01.782-.102 1.08-.3.295-.194.539-.506.676-.997l.056-.201.208.02c.377.036.672-.089.916-.323.253-.242.453-.607.607-1.047.22-.634.326-1.381.362-2.027zm-7.984-.14c-.064.005-.185.045-.403.154a1.38 1.38 0 00-.17.097.371.371 0 00-.069.06c.038.073.15.143.317.143.17 0 .282-.072.32-.146a.355.355 0 00.044-.16.342.342 0 00-.04-.149zm.244-.446a.48.48 0 01.198.21.85.85 0 01.097.384.85.85 0 01-.097.383c-.153.305-.488.423-.767.423s-.613-.118-.766-.423a.495.495 0 01-.054-.27.485.485 0 01.103-.25c.097-.128.254-.224.415-.304.22-.11.418-.192.587-.206a.502.502 0 01.284.053zm40.67 27.53c-.448.448-.685 1.06-.554 1.62.087.375.245.667.464.886.219.219.51.377.886.465.56.13 1.172-.107 1.62-.555.449-.449.686-1.061.555-1.62-.087-.376-.245-.668-.464-.887-.219-.218-.51-.376-.886-.464-.56-.13-1.172.107-1.62.555zm-.353-.353c.534-.535 1.315-.87 2.087-.689.451.105.832.303 1.126.598.295.295.493.675.598 1.126.18.772-.154 1.553-.688 2.087-.534.534-1.315.869-2.087.689-.451-.106-.832-.303-1.126-.598-.295-.295-.493-.675-.598-1.126-.18-.772.154-1.553.688-2.087zm-26.83 20.298c-.07-1.352 1.094-2.522 2.448-2.447a2.287 2.287 0 012.19 2.191c.07 1.342-1.085 2.53-2.434 2.46-.656-.035-1.196-.279-1.579-.677-.382-.398-.594-.933-.625-1.527zm2.42-1.948c-1.055-.058-1.976.865-1.92 1.922.025.49.198.907.485 1.206.287.298.702.496 1.245.524 1.046.055 1.964-.88 1.909-1.934a1.787 1.787 0 00-1.72-1.718zm-1.128 10.847l.565.175c.851.265 1.73.963 2.513 1.888.786.929 1.494 2.11 1.992 3.376.991 2.515 1.192 5.461-.598 7.414-4.833 5.273-7.661 8.402-9.584 11.606-1.918 3.194-2.941 6.473-4.133 12.058l-.182.851-.297-.817c-1.151-3.159-1.602-11.198 5.59-18.397 3.55-3.553 5.46-6.335 6.087-9.026.623-2.678-.015-5.312-1.685-8.601l-.268-.527zm1.02.92c1.468 3.061 2.04 5.656 1.42 8.322-.66 2.831-2.654 5.696-6.22 9.266-6.41 6.416-6.59 13.481-5.748 16.955 1.112-5.037 2.14-8.184 3.987-11.261 1.955-3.257 4.823-6.426 9.644-11.687 1.594-1.738 1.47-4.438.502-6.892-.48-1.218-1.16-2.351-1.909-3.237-.55-.65-1.125-1.154-1.677-1.466zm20.294 29.742l.244-.43c.659.258 1.703.795 2.72 1.572.89.68 1.773 1.555 2.354 2.604.2-.358.47-.755.788-1.08.454-.464 1.082-.851 1.772-.598l.594.218-.583.247c-.386.164-.74.59-1.05 1.232-.306.633-.548 1.431-.735 2.268a24.615 24.615 0 00-.537 4.276l-.5-.012c.06-2.686-.886-5.013-2.014-6.798-1.13-1.786-2.431-3.015-3.053-3.499zm5.31 7.622c.078-.552.18-1.131.306-1.699.191-.854.443-1.694.772-2.376a4.18 4.18 0 01.597-.936 2.12 2.12 0 00-.521.404c-.41.418-.741.99-.92 1.39l-.228.512-.228-.512c-.51-1.148-1.448-2.117-2.428-2.866-.353-.27-.709-.509-1.049-.716a16.22 16.22 0 011.864 2.409c.774 1.224 1.472 2.707 1.834 4.39z" fill="#E8E8E8"/><path d="M82.247 100.628h-5.271v7.468h5.27v-7.468z" fill="#2A2A2A"/><path fill-rule="evenodd" clip-rule="evenodd" d="M69.902 93.182h19.3v20.703H86.85l2.352 2.09v27.519l-6.748-8.95V119.61l-5.335-4.148v12.16l-7.217-9.257V93.182zm1 1v23.839l5.217 6.692v-11.295l7.335 5.703v15.089l4.748 6.296v-24.082l-3.983-3.539h3.983V94.182h-17.3zm20.35-1h19.183v14.839h-6.983v-7.506h-5.217v22.1l1.756-1.756h8.733l-17.472 22.605V93.182zm1 1v46.354l14.435-18.677h-6.282l-3.17 3.17V99.515h7.217v7.506h4.983V94.182H92.252zm-15.776 5.946h6.27v8.468h-6.27v-8.468zm1 1v6.468h4.27v-6.468h-4.27z" fill="#fff"/><path d="M101.184 119.883l.089-1.084c.289-3.123 1.252-5.77 2.889-7.94h-3.271l-.07 1.056h-1.428v-2.705h6.56v1.649c-.497.67-.912 1.31-1.243 1.921a11.422 11.422 0 00-.797 1.833c-.2.611-.359 1.258-.478 1.942-.119.68-.219 1.427-.3 2.244l-.089 1.084h-1.862zm8.728.154c-.969 0-1.736-.364-2.301-1.092-.566-.733-.848-1.806-.848-3.218v-2.353c0-1.408.28-2.478.841-3.211.566-.738 1.331-1.107 2.296-1.107.96 0 1.723.369 2.288 1.107.57.733.855 1.803.855 3.211v2.353c0 1.412-.283 2.485-.848 3.218-.561.728-1.322 1.092-2.283 1.092zm0-1.642c.417 0 .734-.195.95-.586.217-.391.325-1.017.325-1.877v-2.778c0-.846-.11-1.464-.331-1.855-.221-.396-.54-.594-.956-.594-.421 0-.74.196-.957.587-.217.391-.325 1.012-.325 1.862v2.778c0 .86.108 1.486.325 1.877.221.391.544.586.969.586zm5.796 1.488l.089-1.084c.289-3.123 1.252-5.77 2.888-7.94h-3.271l-.07 1.056h-1.428v-2.705h6.561v1.649c-.498.67-.912 1.31-1.244 1.921a11.512 11.512 0 00-.797 1.833 14.028 14.028 0 00-.478 1.942c-.119.68-.219 1.427-.299 2.244l-.09 1.084h-1.861z" fill="#DA9640"/></svg>