<svg width="42" height="42" fill="none" xmlns="http://www.w3.org/2000/svg"><g clip-path="url(#clip0)" fill="#fff"><path d="M18.496 0C8.298 0 0 8.298 0 18.496c0 10.199 8.298 18.496 18.496 18.496 10.199 0 18.496-8.297 18.496-18.496C36.992 8.298 28.695 0 18.496 0zm0 33.577c-8.316 0-15.081-6.765-15.081-15.081 0-8.316 6.765-15.081 15.08-15.081 8.317 0 15.082 6.765 15.082 15.08 0 8.317-6.765 15.082-15.081 15.082z"/><path d="M19.711 17.212H25v2.146h-5.289V25H17.29v-5.642H12v-2.146h5.289V12h2.422v5.212zM41.5 39.086l-9.789-9.79a1.706 1.706 0 10-2.414 2.415l9.789 9.789a1.703 1.703 0 002.414 0 1.706 1.706 0 000-2.414z"/></g><defs><clipPath id="clip0"><path fill="#fff" d="M0 0h42v42H0z"/></clipPath></defs></svg>