<svg width="34" height="32" fill="none" xmlns="http://www.w3.org/2000/svg"><path d="M32.115 18.254a.664.664 0 00-.778.526c-1.32 6.851-7.35 11.823-14.337 11.823-6.84 0-12.763-4.765-14.248-11.392l.174.173a.662.662 0 00.939 0 .663.663 0 000-.939L2.499 17.08a.664.664 0 00-.939 0L.194 18.445a.664.664 0 10.94.94l.246-.247C2.86 26.558 9.412 31.931 17 31.931c7.623 0 14.201-5.425 15.641-12.9a.664.664 0 00-.526-.777zm1.691-5.638a.664.664 0 00-.94 0l-.245.246C31.137 5.442 24.587.069 17 .069c-7.623 0-14.201 5.425-15.641 12.9a.664.664 0 001.304.25C3.983 6.37 10.013 1.398 17 1.398c6.84 0 12.763 4.765 14.248 11.392l-.174-.173a.664.664 0 10-.939.939l1.366 1.366a.664.664 0 00.939 0l1.365-1.366c.26-.26.26-.68 0-.94z" fill="#DA9640"/></svg>