<svg width="61" height="75" viewBox="0 0 61 75" fill="none" xmlns="http://www.w3.org/2000/svg">
<path d="M37.9907 16.3501C44.9639 25.7842 49.1587 39.0171 50.4117 44.5429C49.8888 43.0596 48.9227 40.7985 48.505 39.8533C45.5632 48.742 34.7765 45.9608 34.4496 40.7258C36.7159 44.5648 40.6601 44.5067 42.349 43.9977C50.8476 40.8131 45.5995 34.2366 41.9131 31.3464C43.8308 32.088 45.8719 34.2002 46.6527 35.1636C44.125 24.7808 32.0707 10.7334 26.2779 5.06215C20.1763 -1.20898 16.1449 5.17124 10.8061 9.64275C22.9002 -7.31656 26.1145 3.80795 37.9907 16.3501Z" fill="white"/>
<path d="M33.6869 48.9055C33.3419 47.1424 31.7911 43.616 28.3481 43.616C24.905 43.616 23.899 42.8889 23.8264 42.5254C23.3905 45.4701 23.4232 51.5012 27.0406 52.0684C30.6579 52.6355 32.7245 50.9232 33.3056 49.9962C33.1603 51.1413 31.9654 53.4099 28.3481 53.3226H27.0406C27.3675 54.5041 28.0757 57.9033 27.3675 60.03C27.3675 58.7212 26.79 53.737 25.5697 52.9954C21.7562 50.6778 23.6591 46.1244 22.8458 42.3072C21.5383 41.7256 18.9778 39.9624 18.2151 39.6897C22.1376 42.4163 25.3518 46.8879 18.433 47.924C18.1062 47.924 17.3435 47.8258 16.9076 47.4332C18.7781 47.4695 22.2138 46.7788 20.9935 43.725C20.8119 43.3615 20.2962 42.5254 19.686 42.0891C18.9233 41.5438 16.7987 39.5807 16.3629 38.0538C15.927 36.5269 13.53 39.7442 13.9113 42.5254C14.2164 44.7502 17.3762 48.875 17.5614 53.3226C17.5888 53.9822 17.8338 54.4132 17.5614 55.0131C16.7442 48.5784 13.9113 47.0842 13.2576 44.1613C12.9671 44.6339 12.4731 46.6152 12.8218 50.7596C11.6596 49.978 9.68383 47.2369 11.0785 42.5254C8.89935 43.3433 5.07497 42.3399 7.21052 38.7627C6.61126 40.3259 6.58946 43.0161 11.2964 41.2711L11.5688 39.4171C10.9332 39.308 9.80367 38.261 10.3703 34.9455C10.2795 35.9997 10.4356 38.2392 11.7867 38.7627C12.2407 36.8904 12.1245 33.364 8.02769 34.2366C8.11849 33.9094 8.5071 33.2223 9.33517 33.0914C7.38973 31.9554 4.54116 28.7188 6.92961 24.1575C6.64326 24.5857 6.3127 24.9268 6.06647 25.1298C2.7542 26.1332 1.30871 24.021 1 22.8395C1.43583 24.4209 6.22991 25.5115 6.5023 23.1121C6.11006 21.149 8.55431 18.7678 9.82547 17.8226C7.68992 20.0038 7.37395 21.3853 7.48291 21.8034C7.63493 22.4311 7.50246 23.0471 7.25351 23.5844C7.47653 23.2167 7.73359 22.8411 8.02769 22.4577C7.22867 24.4027 6.17542 28.6743 8.35456 30.2012C7.82793 28.6743 7.95142 24.5408 12.6583 20.2219C14.4198 18.4951 16.7115 14.7797 11.7867 13.7327C10.8242 13.5872 8.41993 13.9071 6.5023 16.3501C7.10156 14.4779 9.53129 11.1697 14.4561 12.9147C20.6122 15.096 14.8919 22.0215 14.783 22.1306C14.674 22.2396 8.02769 30.0922 12.4949 33.9639C13.1486 34.382 14.4016 35.6871 14.1837 37.563C14.4924 37.5448 15.1425 37.3667 15.2733 36.7995C14.6196 36.1633 13.4319 34.5637 13.9113 33.255C14.0385 34.1275 14.7067 35.9488 16.3629 36.2542C14.6377 34.0366 12.1244 28.5107 15.8725 24.1482C16.1086 23.6393 16.5372 22.2069 16.3629 20.5491C16.6534 20.6764 17.2018 21.3126 17.0711 22.8395L17.0677 22.8785C16.9536 24.2071 16.4366 30.2288 18.8573 35.0545C20.0415 34.2184 22.4068 32.1293 21.4044 30.5588C20.9427 30.5225 19.8603 30.2279 18.8573 29.1651C21.5928 29.9831 25.8421 31.4412 26.2573 27.9118C26.8569 22.8162 27.0297 14.5507 16.7442 14.1144C16.4294 13.8726 15.8233 13.4453 15.2901 13.166C15.0303 13.0723 14.8237 12.9864 14.674 12.9147C14.847 12.9539 15.0619 13.0464 15.2901 13.166C16.4805 13.5954 18.7886 14.1893 21.8651 14.3325C21.502 13.769 20.7538 12.4785 20.6666 11.8241C22.3555 14.6597 24.7306 15.5822 26.147 17.6544C26.147 18.5269 26.147 19.5599 26.6985 20.9632C27.0294 28.7941 27.1397 30.2012 22.9547 30.8011C23.0773 31.9099 22.5624 34.4874 19.5226 35.927L18.8573 35.0545C20.1604 37.6524 22.315 39.9036 25.8421 40.8894C33.9585 43.1579 34.4538 47.1787 33.6869 48.9055Z" fill="white"/>
<path d="M13.3666 15.2596C11.8593 15.1869 8.35456 15.2596 6.22991 20.5491C5.93936 18.0407 8.79038 12.4785 13.3666 15.2596Z" fill="white"/>
<path d="M3.72391 23.2757C2.96122 22.4941 2.7433 20.2219 5.41273 21.3671C4.52292 21.3004 2.93942 21.5888 3.72391 23.2757Z" fill="white"/>
<path d="M3.34256 20.2219C-0.405539 21.7052 2.41643 24.4209 4.05078 24.1482C0.433427 22.5317 2.08956 20.6037 4.59556 20.331C4.15974 20.1674 3.94182 20.1129 3.34256 20.2219Z" fill="white"/>
<path d="M18.5965 13.4055C16.6352 11.915 11.4707 9.89367 6.5023 13.7327C7.70082 11.4969 16.0687 7.03621 18.5965 13.4055Z" fill="white"/>
<path d="M19.4681 11.9332C17.2513 9.09751 13.4961 9.37017 11.8956 9.86095C12.7673 9.22475 15.4258 8.15957 19.0868 8.98845C19.9039 8.42495 22.0722 7.72331 24.2077 9.4247C26.8771 11.5514 35.3757 23.8756 35.5392 29.1651C32.932 21.8034 23.8155 6.98168 20.5032 9.4247C24.4438 11.8059 32.009 18.7169 30.7451 27.311C29.9279 31.6736 29.1107 30.9647 28.7294 37.563C28.3481 36.745 27.9013 33.604 29.1652 27.5837C30.4291 21.5634 25.5515 14.6416 22.9547 11.9332C22.3373 11.3152 20.6993 10.0355 19.0868 9.86095C19.341 10.2245 19.7732 11.1479 19.4681 11.9332Z" fill="white"/>
<path d="M25.8965 62.702C29.4703 59.1248 29.819 57.0307 28.1301 53.7043C29.71 54.1951 31.7364 58.0123 30.0369 59.8664C25.1883 65.156 24.3167 66.192 23.1181 71.8088C22.5552 70.2637 22.3228 66.2793 25.8965 62.702Z" fill="white"/>
<path d="M20.8301 21.3671C20.6485 20.9127 20.6013 19.6984 21.8651 18.4769C21.9923 18.4001 22.1702 17.9325 21.8651 16.6774C22.0655 16.7758 22.2907 16.9108 22.5073 17.0762L23.1691 16.8823L22.8788 17.4032L23.6103 17.2132L23.3038 17.9853L23.9412 17.875L23.4331 18.3463L23.9412 18.4265L23.4656 18.6317V18.6471L23.8309 18.8676L23.4331 18.9315L23.8309 19.1985H23.3459L23.7206 19.4723H23.1977L23.6103 19.7287H23.0034L23.3459 20.1114L22.7598 19.9706C22.0637 20.4291 21.4204 20.0778 20.8301 21.3671Z" fill="white"/>
<path d="M19.7405 20.5491C19.3955 19.4585 19.4136 17.2227 20.8301 16.3501C19.5771 16.5138 17.4742 19.7203 19.7405 20.5491Z" fill="white"/>
<path d="M20.4487 25.3479C20.4011 25.2527 20.3015 25.2647 20.0809 25.375C19.9233 25.4538 19.8564 25.5253 19.9039 25.6206C19.9991 25.811 20.3536 25.811 20.4487 25.6206C20.4963 25.5253 20.4963 25.4432 20.4487 25.3479Z" fill="white"/>
<path d="M22.0831 25.9478C21.9523 25.0316 23.6266 25.0207 24.4801 25.1298C24.4983 25.8932 24.3058 27.3983 23.3905 27.311C23.0855 28.4017 21.7744 28.0563 21.1569 27.7473C21.1569 26.7112 21.5383 25.9478 22.0831 25.9478Z" fill="white"/>
<path d="M41.7283 38.6103C41.0598 38.454 40.329 39.1848 40.4853 39.8533C40.5823 40.2685 40.8421 40.5283 41.2573 40.6254C41.9258 40.7816 42.6566 40.0508 42.5004 39.3823C42.4033 38.9671 42.1435 38.7073 41.7283 38.6103Z" fill="white"/>
<path d="M29.4387 48.9055C29.4704 49.5071 28.9496 50.0403 28.3481 50.0086C27.7466 49.977 27.3888 49.5656 27.3603 49.0208C27.3286 48.4159 27.8523 47.8904 28.4571 47.924C28.9984 47.954 29.4102 48.3642 29.4387 48.9055Z" fill="white"/>
<path d="M41.2573 74.0686C41.3203 71.3066 39.31 69.2978 38.6642 68.7957C39.3049 69.0468 40.7204 69.8503 41.2573 71.0555C41.4438 70.637 41.9535 69.8503 42.5004 70.0511C41.5517 70.4529 41.2764 73.2317 41.2573 74.0686Z" fill="white"/>
<path fill-rule="evenodd" clip-rule="evenodd" d="M32.2934 9.4521C34.0285 11.5304 35.9468 13.8281 38.1722 16.1782L38.1826 16.1893L38.1917 16.2015C45.1941 25.6751 49.3989 38.946 50.6555 44.4877L50.1759 44.6261C49.7433 43.399 49.0033 41.6309 48.5268 40.5284C47.7616 42.4765 46.5973 43.8304 45.2476 44.6868C43.7665 45.6267 42.077 45.9581 40.4775 45.8352C38.8795 45.7124 37.3611 45.1356 36.2164 44.2453C35.0717 43.3549 34.2873 42.1387 34.2 40.7414L34.6648 40.5987C36.8476 44.2962 40.6395 44.2483 42.2689 43.7607C44.358 42.9766 45.5631 41.9987 46.1684 40.9581C46.7711 39.9222 46.8015 38.7858 46.4606 37.6325C45.7724 35.3045 43.589 32.978 41.7588 31.5431L42.0033 31.1132C43.0022 31.4995 44.0177 32.2351 44.8737 32.9836C45.3465 33.397 45.7757 33.819 46.1327 34.1969C44.6802 29.2853 41.2716 23.6448 37.4882 18.494C33.443 12.9869 28.9902 8.06745 26.1029 5.24079L26.0986 5.23654C24.5962 3.69239 23.2462 2.95268 21.997 2.75021C20.7506 2.54817 19.5656 2.87469 18.3784 3.5419C17.187 4.21147 16.0102 5.21457 14.7873 6.3425C14.4338 6.66852 14.0762 7.00527 13.7137 7.34656C12.8299 8.17883 11.9173 9.03809 10.9665 9.83441L10.6025 9.4976C13.6306 5.25131 16.1274 2.72551 18.3697 1.55087C19.4964 0.960677 20.5635 0.708937 21.602 0.755414C22.6394 0.801844 23.6303 1.14509 24.6065 1.71774C26.5484 2.85682 28.4669 4.92624 30.624 7.46406C31.1633 8.09858 31.7183 8.76329 32.2934 9.4521ZM12.4526 7.84332C14.8225 4.78708 16.8194 2.92748 18.6018 1.99378C19.6628 1.43796 20.6428 1.21298 21.5796 1.25491C22.5175 1.29689 23.4299 1.60718 24.3536 2.14902C26.2116 3.23893 28.0793 5.24233 30.243 7.78788C30.7774 8.41654 31.3291 9.07741 31.9021 9.76378C33.6365 11.8412 35.5659 14.1522 37.7986 16.5109C43.402 24.097 47.2075 34.1561 49.1223 40.6474C48.9696 40.2908 48.8353 39.9824 48.7336 39.7523L48.4714 39.1589L48.2676 39.7748C47.5485 41.9476 46.3564 43.391 44.9797 44.2646C43.6008 45.1396 42.0215 45.4524 40.5158 45.3367C39.0085 45.2209 37.5851 44.6764 36.5234 43.8506C35.8314 43.3124 35.2988 42.66 34.9907 41.933C37.379 44.8103 40.8447 44.7121 42.421 44.2371L42.4289 44.2347L42.4366 44.2318C44.5921 43.4241 45.9157 42.3868 46.6006 41.2096C47.289 40.0264 47.3097 38.7409 46.9401 37.4907C46.4568 35.8558 45.2988 34.2521 44.0337 32.9322C44.208 33.0716 44.3787 33.215 44.5446 33.36C45.381 34.0914 46.0766 34.8499 46.4585 35.321L46.8956 35.1045C45.6194 29.8627 41.9487 23.722 37.8911 18.198C33.8301 12.6693 29.3605 7.73057 26.4549 4.88561C24.9073 3.29565 23.4661 2.4818 22.077 2.25665C20.6847 2.03096 19.3841 2.40313 18.1334 3.10602C16.8869 3.80655 15.6735 4.84497 14.4483 5.97496C14.0868 6.3084 13.7245 6.64953 13.3595 6.99324C13.0594 7.27581 12.7575 7.56012 12.4526 7.84332ZM24.0519 9.62023C22.0244 8.00492 19.9805 8.6758 19.2286 9.19426L19.1384 9.25648L19.0315 9.23228C16.8148 8.73039 14.9823 8.93854 13.7132 9.31057C14.2674 9.28311 14.8714 9.30449 15.4899 9.40274C16.8119 9.61275 18.2115 10.1765 19.3226 11.3768C19.3264 11.1863 19.2968 10.992 19.2459 10.8044C19.1523 10.4601 18.9938 10.1644 18.8818 10.0042L18.5664 9.55317L19.1136 9.6124C19.9712 9.70525 20.8201 10.0888 21.5238 10.5172C22.2296 10.9469 22.8091 11.4338 23.1315 11.7565L23.1351 11.7601C24.449 13.1304 26.3333 15.5588 27.7321 18.4062C29.1287 21.2495 30.0584 24.5458 29.4098 27.6351C28.7808 30.6314 28.5789 32.9042 28.5803 34.524C28.5806 34.9438 28.5946 35.318 28.6181 35.6486C28.8037 33.608 29.0505 32.4829 29.3341 31.5274C29.4286 31.2092 29.5257 30.9135 29.625 30.6115C29.904 29.7628 30.1996 28.8636 30.4984 27.2699C31.1159 23.0601 29.5747 19.2502 27.3727 16.1838C25.1692 13.1154 22.3194 10.8143 20.3738 9.63867L20.0539 9.44536L20.3547 9.22351C20.8521 8.85666 21.4472 8.82904 22.0706 9.03182C22.6869 9.23228 23.354 9.66329 24.0455 10.253C25.4308 11.4346 26.9767 13.3087 28.4905 15.4749C30.8717 18.8825 33.1997 23.0511 34.7242 26.4791C34.492 25.7805 34.1952 25.0318 33.8467 24.25C32.9912 22.3309 31.8361 20.2382 30.6005 18.2403C29.3652 16.2429 28.0522 14.3445 26.8827 12.8143C25.7082 11.2774 24.6927 10.1308 24.0519 9.62023ZM19.0377 8.72147C19.98 8.12809 22.1946 7.5013 24.3634 9.22917C25.0573 9.78198 26.1052 10.9734 27.28 12.5107C28.46 14.0547 29.7823 15.9667 31.0258 17.9774C32.2689 19.9875 33.436 22.1006 34.3034 24.0464C35.1675 25.9849 35.7466 27.7841 35.789 29.1574L35.3035 29.2486C34.009 25.5934 31.0898 20.0675 28.0806 15.7613C26.5753 13.6073 25.0581 11.7739 23.721 10.6335C23.0512 10.0622 22.4424 9.67855 21.9159 9.5073C21.5711 9.39514 21.2726 9.37668 21.0141 9.44832C22.9854 10.7104 25.6701 12.9557 27.7788 15.8922C30.0278 19.024 31.6369 22.9649 30.9924 27.3474L30.9909 27.3571C30.6852 28.9892 30.3761 29.929 30.0948 30.7846C29.9972 31.0813 29.903 31.3679 29.8134 31.6697C29.4666 32.8381 29.1689 34.29 28.9789 37.5774L28.5028 37.6686C28.2883 37.2086 28.0817 36.1736 28.0803 34.5244C28.0789 32.8642 28.2856 30.5563 28.9205 27.5323C29.5358 24.6013 28.6586 21.4265 27.2833 18.6267C25.9106 15.8324 24.0589 13.4465 22.776 12.108C22.4805 11.8126 21.9332 11.3518 21.2639 10.9443C20.7387 10.6246 20.1504 10.3452 19.5585 10.199C19.6226 10.3427 19.6821 10.503 19.7284 10.6734C19.838 11.077 19.8799 11.5633 19.7011 12.0237L19.5419 12.4335L19.2711 12.0871C18.2109 10.731 16.7816 10.1142 15.4114 9.89655C14.0371 9.67821 12.7367 9.86451 11.9689 10.1L11.7482 9.65902C12.6723 8.98455 15.3631 7.92069 19.0377 8.72147ZM8.27921 12.3197C12.1735 10.3893 15.9299 11.4957 17.9842 12.6995C17.3923 11.6554 16.6018 11.0257 15.7196 10.6887C14.6229 10.2698 13.3569 10.2933 12.1078 10.5856C10.8603 10.8775 9.64888 11.4332 8.67654 12.0534C8.53846 12.1415 8.40587 12.2305 8.27921 12.3197ZM15.898 10.2216C17.1278 10.6913 18.1733 11.6618 18.8288 13.3133L19.0235 13.8039C19.7441 13.9131 20.5394 14.0023 21.4009 14.0567C21.2542 13.8103 21.0906 13.5207 20.9398 13.2264C20.6976 12.7536 20.4687 12.2322 20.4188 11.8571L20.8814 11.6962C21.7045 13.0783 22.6953 13.9965 23.6719 14.836C23.7877 14.9355 23.9036 15.0341 24.0192 15.1326C24.8722 15.8585 25.7093 16.571 26.3534 17.5133L26.397 17.5771V17.6544C26.397 18.5196 26.3974 19.5137 26.9311 20.8718L26.9465 20.9108L26.9482 20.9527C26.9522 21.0472 26.9562 21.1408 26.9601 21.2335C27.0373 23.058 27.0997 24.5317 27.0916 25.7214C27.083 26.9685 26.9974 27.9295 26.7579 28.6707C26.5141 29.4251 26.11 29.9543 25.4789 30.3273C24.9074 30.665 24.163 30.8664 23.2194 31.0142C23.2559 32.2874 22.5992 34.694 19.7379 36.1007C21.0443 38.1418 22.9975 39.8348 25.9093 40.6486C29.9985 41.7915 32.2131 43.3879 33.3012 44.9582C34.3922 46.5328 34.3351 48.062 33.9153 49.007L33.5937 49.7313L33.4415 48.9536C33.2749 48.1022 32.8144 46.8184 31.9822 45.7535C31.1539 44.6936 29.9718 43.866 28.348 43.866C26.6119 43.866 25.4706 43.683 24.7452 43.4445C24.4283 43.3403 24.1845 43.2235 24.0035 43.1019C23.8422 44.53 23.8069 46.4522 24.1582 48.1374C24.5595 50.0624 25.4355 51.5637 27.0792 51.8214C30.5983 52.3731 32.566 50.7052 33.0937 49.8634L33.5535 50.0276C33.4739 50.6557 33.1126 51.5648 32.297 52.3065C31.4947 53.0361 30.2675 53.5907 28.4739 53.5747C28.8421 53.7575 29.2028 54.0719 29.5244 54.452C29.9284 54.9297 30.2905 55.5346 30.5458 56.1825C31.0494 57.4601 31.1693 59.0009 30.2211 60.0353C27.791 62.6864 26.381 64.2476 25.423 65.8436C24.471 67.4297 23.9602 69.0601 23.3626 71.861L23.181 72.7118L22.8832 71.8944C22.2905 70.2678 22.0702 66.1784 25.7196 62.5253C27.4985 60.7447 28.4369 59.3683 28.7433 58.0524C29.0468 56.7487 28.7399 55.4577 27.9072 53.8175L27.7828 53.5726H27.3645C27.5256 54.2182 27.73 55.2142 27.8408 56.2964C27.9712 57.5693 27.9759 58.994 27.6046 60.109L27.1174 60.03C27.1174 59.3958 26.9755 57.8392 26.6809 56.3485C26.5337 55.6039 26.3504 54.8858 26.1317 54.3125C26.0224 54.0258 25.9066 53.7816 25.7859 53.5905C25.6636 53.3969 25.546 53.2736 25.4398 53.2091C23.4305 51.988 22.9375 50.1685 22.833 48.2271C22.796 47.5417 22.8071 46.828 22.818 46.1175C22.8225 45.8307 22.8269 45.5443 22.8282 45.2606C22.8324 44.3084 22.8016 43.3723 22.6263 42.4817C22.0723 42.2214 21.3408 41.7902 20.6257 41.3573C20.7769 41.5076 20.9225 41.6596 21.0618 41.8127C21.8185 42.6446 22.4014 43.5264 22.6308 44.3756C22.8643 45.2401 22.7307 46.079 22.0457 46.7609C21.3792 47.4243 20.2191 47.9093 18.47 48.1712L18.4516 48.174H18.433C18.2496 48.174 17.9562 48.1471 17.6488 48.0679C17.3443 47.9896 17.0007 47.8536 16.7402 47.6189L16.2422 47.1702L16.9124 47.1832C17.8278 47.201 19.1006 47.0384 19.9833 46.5221C20.4197 46.2669 20.7439 45.9355 20.898 45.5123C21.0507 45.0929 21.05 44.5453 20.7652 43.8275C20.6794 43.6574 20.5146 43.3748 20.2992 43.0827C20.0786 42.7836 19.8153 42.4889 19.5406 42.2925C19.1421 42.0076 18.4072 41.3678 17.7167 40.6076C17.032 39.8537 16.3572 38.945 16.1224 38.1224C16.0776 37.9655 16.0234 37.9262 16.0058 37.9175C15.992 37.9107 15.9487 37.8969 15.8478 37.9439C15.6348 38.043 15.3382 38.3378 15.0421 38.8074C14.458 39.7337 13.9784 41.1745 14.159 42.4914C14.23 43.0092 14.471 43.6557 14.8127 44.424C14.9972 44.839 15.2029 45.2722 15.4207 45.7311C15.6095 46.1287 15.8074 46.5456 16.0087 46.9867C16.8621 48.8567 17.7164 51.0371 17.8111 53.3122C17.8174 53.463 17.8361 53.6026 17.8581 53.7416C17.8638 53.7771 17.8698 53.8134 17.8758 53.8503C17.8927 53.9527 17.9103 54.059 17.9221 54.1616C17.956 54.4549 17.9499 54.762 17.7889 55.1164L17.4244 55.9193L17.3133 55.0446C16.9097 51.8662 16.0105 49.9156 15.1317 48.3954C14.9133 48.0176 14.696 47.666 14.4856 47.3258L14.4785 47.3141C14.2666 46.9715 14.0613 46.6391 13.8735 46.3086C13.6259 45.8728 13.4059 45.4355 13.2356 44.9695C13.1671 45.257 13.1001 45.6337 13.0485 46.1105C12.9343 47.164 12.8976 48.679 13.0708 50.7387L13.1145 51.2578L12.6822 50.9671C11.4623 50.1467 9.53992 47.4396 10.7153 42.8991C9.63001 43.1701 8.30433 43.0683 7.39476 42.5047C6.86475 42.1764 6.46625 41.6834 6.36051 41.0138C6.25593 40.3515 6.44439 39.5582 6.9958 38.6345L7.44389 38.8522C7.30148 39.2237 7.19582 39.6567 7.18405 40.0667C7.17222 40.4787 7.2555 40.8413 7.46053 41.1035C7.65948 41.358 8.00356 41.5568 8.59989 41.5855C9.17877 41.6133 9.98055 41.4788 11.0706 41.0874L11.2899 39.5946C10.9288 39.4465 10.5465 39.0929 10.2883 38.4809C9.97245 37.7322 9.8357 36.5891 10.1238 34.9034L10.6193 34.9669C10.5756 35.4734 10.592 36.2673 10.7797 36.9903C10.9379 37.5997 11.2039 38.1094 11.611 38.3888C11.7745 37.5119 11.7867 36.4064 11.3884 35.5787C11.169 35.1228 10.8271 34.7542 10.3125 34.5438C9.79312 34.3314 9.0721 34.2697 8.0797 34.4811L7.67649 34.5669L7.78673 34.1697C7.87048 33.8679 8.16449 33.3116 8.75618 33.0159C7.8507 32.3795 6.86029 31.3578 6.27759 30.008C5.7237 28.725 5.54404 27.1579 6.13915 25.369C4.42055 25.8896 3.15105 25.6089 2.26682 25.0111C1.39369 24.4208 0.924834 23.541 0.758057 22.9027L1.24095 22.773C1.30569 23.008 1.51158 23.2579 1.8398 23.4888C1.68875 23.3278 1.55818 23.1504 1.45743 22.9609C1.20617 22.4881 1.13826 21.9304 1.41997 21.3848C1.69585 20.8506 2.28508 20.3715 3.25051 19.9895L3.27346 19.9804L3.29774 19.976C3.60866 19.9194 3.83986 19.9015 4.05792 19.9258C4.27518 19.9499 4.46374 20.0145 4.68335 20.097L4.62254 20.5795C4.02277 20.6448 3.48165 20.8085 3.06353 21.035C2.64134 21.2636 2.36858 21.5424 2.26031 21.8251C2.1585 22.0908 2.18583 22.4019 2.45619 22.7566C2.73448 23.1217 3.26649 23.5239 4.15272 23.92L4.85851 24.2354C5.09034 24.2068 5.30427 24.1536 5.49098 24.0741C5.90542 23.8977 6.18351 23.5962 6.24927 23.1201C6.05305 22.0393 6.62013 20.8931 7.34022 19.9354C8.07865 18.9533 9.02609 18.1054 9.67623 17.6219L10.004 17.9975C8.94953 19.0745 8.35421 19.9442 8.03642 20.5852C7.87751 20.9057 7.78951 21.166 7.74704 21.3641C7.7035 21.5672 7.71129 21.6886 7.72476 21.7403L7.72585 21.7445C7.77516 21.9481 7.79731 22.1496 7.79747 22.3472C7.80803 22.3333 7.81863 22.3194 7.82928 22.3056L8.25887 22.5527C7.86661 23.5076 7.41249 25.0343 7.3238 26.5013C7.25465 27.6451 7.40975 28.697 7.93262 29.4322C7.69453 27.4351 8.40324 23.7884 12.4862 20.0406C12.9142 19.6205 13.3737 19.0803 13.7467 18.4928C14.1219 17.9017 14.4002 17.2771 14.4822 16.6879C14.5632 16.1061 14.4529 15.5662 14.0588 15.1087C13.6587 14.6444 12.9402 14.2346 11.7421 13.9788C10.8584 13.8487 8.55289 14.1425 6.69889 16.5045L6.26413 16.2739C6.57757 15.2947 7.36515 13.9468 8.72089 13.0663C10.0892 12.1776 12.0099 11.7827 14.5395 12.6791C14.5957 12.699 14.6509 12.7193 14.7052 12.7399L14.7293 12.6709C14.9298 12.7164 15.1618 12.8174 15.3907 12.9365C16.0943 13.1891 17.1968 13.5008 18.6235 13.7401L18.4451 13.6045C16.5376 12.1549 11.5025 10.185 6.65509 13.9305L6.2819 13.6146C6.61219 12.9984 7.40392 12.2721 8.40766 11.6319C9.42038 10.9859 10.6836 10.4053 11.9939 10.0988C13.3025 9.79256 14.6774 9.75542 15.898 10.2216ZM16.9548 14.3749C19.381 14.5066 21.1839 15.0875 22.5186 15.9479C22.818 16.1408 23.0946 16.3484 23.35 16.5688L22.556 16.8014C22.3583 16.6599 22.1578 16.5426 21.9753 16.453L21.4961 16.2177L21.6222 16.7364C21.771 17.3486 21.7974 17.7513 21.7779 17.9994C21.7682 18.1235 21.7475 18.2021 21.7296 18.2467C21.7242 18.2601 21.7197 18.2691 21.7166 18.2746L21.7116 18.2776L21.6913 18.2972C20.3618 19.5821 20.3749 20.902 20.5979 21.4599L20.8144 22.0017L21.0573 21.4712C21.33 20.8757 21.5951 20.6922 21.8493 20.5889C21.9498 20.5481 22.0451 20.5206 22.1548 20.489C22.2064 20.4741 22.2612 20.4583 22.3213 20.4398C22.4711 20.3936 22.6338 20.3349 22.8022 20.2379L24.0663 20.5416L23.5625 19.9787H24.4863L24.0737 19.7223H24.4863L24.1116 19.4485H24.6516L24.0994 19.0777L24.5442 19.0064L23.9957 18.6752L24.8215 18.3188C25.0241 18.6542 25.2 19.0034 25.3524 19.3633C26.492 22.0552 26.3086 25.3365 26.009 27.8825C25.9117 28.7097 25.5965 29.2086 25.1679 29.5062C24.7294 29.8107 24.1345 29.9311 23.4317 29.9187C22.1454 29.8961 20.6168 29.4348 19.3087 29.0399C19.1798 29.001 19.053 28.9627 18.9288 28.9256L18.0352 28.6584L18.6754 29.3367C19.6415 30.3604 20.6868 30.7121 21.2514 30.793C21.5769 31.4159 21.3236 32.1642 20.7504 32.9326C20.2348 33.6237 19.5129 34.2542 18.951 34.6768C16.714 29.968 17.2044 24.2078 17.3167 22.8999L17.3201 22.8608C17.455 21.2854 16.8962 20.5098 16.4631 20.3201L16.3493 20.2703C16.6672 19.7053 16.9792 19.0577 17.206 18.3789C17.5512 17.3457 17.7091 16.2103 17.3561 15.1786C17.2602 14.8984 17.1279 14.6294 16.9548 14.3749ZM16.1225 20.6589C16.0309 20.8102 15.9404 20.9536 15.8529 21.0878C15.6216 21.4428 15.4097 21.7357 15.2518 21.9438C15.0996 22.1445 14.9879 22.279 14.9599 22.3071C14.9624 22.3046 14.9386 22.3312 14.8824 22.3987C14.8303 22.4614 14.7569 22.5516 14.6664 22.6663C14.4856 22.8958 14.2373 23.2228 13.956 23.6245C13.3928 24.4288 12.7004 25.5278 12.1505 26.7395C11.5993 27.9539 11.1992 29.2644 11.2024 30.4962C11.2057 31.7135 11.6017 32.8524 12.6454 33.7635C12.9449 33.9585 13.3549 34.3203 13.7093 34.8251C13.5343 34.2935 13.476 33.7164 13.6765 33.169L14.1587 33.219C14.2179 33.6255 14.4061 34.2637 14.7735 34.8315C15.0083 35.1942 15.3102 35.5197 15.6917 35.7425C14.9279 34.578 14.1356 32.9078 13.8187 31.0475C13.4354 28.7974 13.747 26.2562 15.6595 24.0126C15.8782 23.5214 16.2657 22.1977 16.1225 20.6589ZM14.2827 35.9787C14.4037 36.3654 14.472 36.7934 14.4568 37.2583C14.5293 37.2359 14.6046 37.206 14.6762 37.1673C14.813 37.0932 14.9232 36.995 14.9865 36.8654C14.7696 36.6393 14.5159 36.3331 14.2827 35.9787ZM19.5969 35.6123L19.2112 35.1065C19.8016 34.6668 20.5851 33.9903 21.1511 33.2316C21.7751 32.3952 22.2078 31.3529 21.6151 30.4243L21.5481 30.3194L21.424 30.3096C21.1492 30.288 20.5879 30.1564 19.9556 29.7551C21.0766 30.0822 22.3267 30.3994 23.4229 30.4187C23.5234 30.4204 23.6232 30.4197 23.7221 30.4163C23.4767 30.4667 23.2097 30.512 22.9192 30.5536L22.6796 30.5879L22.7062 30.8285C22.8163 31.8249 22.3656 34.2103 19.5969 35.6123ZM26.4649 21.3581C26.4634 21.3211 26.4618 21.284 26.4602 21.2467C26.457 21.1702 26.4537 21.0931 26.4504 21.0154C26.3797 20.8328 26.3179 20.6563 26.2641 20.4854C26.342 20.7733 26.4085 21.0647 26.4649 21.3581ZM26.1575 20.1168C25.9067 19.1632 25.8973 18.3935 25.897 17.7325C25.2994 16.8803 24.5336 16.2279 23.6963 15.5145C23.5808 15.4161 23.4639 15.3165 23.346 15.2151C22.8364 14.7771 22.3124 14.3091 21.8056 13.759C21.9062 13.929 21.9994 14.0794 22.0752 14.1971L22.338 14.6048L21.8535 14.5823C21.4079 14.5615 20.9782 14.5314 20.5653 14.4937C21.41 14.7646 22.1474 15.1137 22.7895 15.5276C24.2579 16.4741 25.2122 17.7496 25.8128 19.1684C25.944 19.4782 26.0583 19.795 26.1575 20.1168ZM24.8173 18.3117C24.7013 18.12 24.5766 17.9328 24.4426 17.7508L23.9804 18.1796L24.8173 18.3117ZM23.7007 17.6629L24.2972 17.5597C24.1776 17.4079 24.0513 17.2599 23.9177 17.1162L23.7007 17.6629ZM23.7318 16.9234C23.6684 16.86 23.6034 16.7975 23.5369 16.7359L23.3817 17.0143L23.7318 16.9234ZM22.6335 19.7543C22.7005 19.6902 22.7606 19.6271 22.8143 19.565C22.8821 19.4867 22.9397 19.4103 22.9882 19.3358C23.0412 19.2546 23.0833 19.1758 23.1163 19.0995C23.1492 19.0231 23.173 18.949 23.1891 18.877C23.2067 18.7982 23.215 18.7213 23.2155 18.6462V18.6326C23.215 18.554 23.2059 18.4766 23.189 18.4003C23.1662 18.2975 23.1292 18.1961 23.0798 18.0964C22.9889 17.9133 22.8571 17.7388 22.6999 17.5778C22.5933 17.4686 22.4764 17.3671 22.3556 17.2749C22.3116 17.2414 22.2673 17.2092 22.223 17.1783C22.2816 17.5394 22.2934 17.8215 22.2764 18.0386C22.2639 18.1979 22.2353 18.329 22.1936 18.4329C22.1587 18.5199 22.1056 18.61 22.0245 18.6706C21.2761 19.3998 21.0336 20.1083 20.9917 20.619C21.2015 20.3652 21.4244 20.2218 21.6611 20.1257C21.7871 20.0745 21.9225 20.0354 22.0434 20.0005C22.0894 19.9872 22.1333 19.9746 22.1738 19.962C22.3309 19.9135 22.4763 19.8579 22.6222 19.7618C22.626 19.7593 22.6297 19.7568 22.6335 19.7543ZM7.14493 24.2851C5.99176 26.4947 6.11122 28.3612 6.73664 29.8099C7.36822 31.2728 8.52485 32.3288 9.46116 32.8755L10.0664 33.2289L9.37413 33.3383C8.94055 33.4069 8.64767 33.6585 8.4701 33.9044C9.29487 33.7894 9.96485 33.8614 10.5018 34.081C11.147 34.3449 11.5739 34.8113 11.8389 35.3619C12.36 36.4447 12.2621 37.8625 12.0296 38.8216L11.9623 39.0989L11.6963 38.9958C11.2305 38.8153 10.8979 38.4661 10.6616 38.05C10.6888 38.1345 10.7181 38.2133 10.749 38.2865C11.0153 38.9179 11.3967 39.1339 11.611 39.1707L11.8515 39.2119L11.5221 41.454L11.3832 41.5055C10.1909 41.9476 9.27375 42.1184 8.57591 42.0849C7.87123 42.0511 7.37567 41.8068 7.06661 41.4115C7.00549 41.3333 6.95291 41.2508 6.90803 41.1649C7.0301 41.5522 7.29526 41.8549 7.6581 42.0797C8.54091 42.6267 9.95812 42.6788 10.9906 42.2913L11.4606 42.1148L11.3181 42.5963C10.1234 46.6325 11.4609 49.1467 12.5277 50.1928C12.4049 48.4018 12.4445 47.0429 12.5514 46.0566C12.6683 44.978 12.8684 44.3169 13.0446 44.0304L13.3671 43.5057L13.5015 44.1067C13.6573 44.8035 13.944 45.4205 14.3082 46.0616C14.4907 46.3827 14.691 46.7072 14.9038 47.0512L14.9123 47.0651C15.1218 47.4039 15.3425 47.7609 15.5646 48.1451C16.1045 49.0792 16.6518 50.1726 17.0933 51.5937C16.7776 50.0427 16.1739 48.5531 15.5538 47.1943C15.3615 46.7728 15.1642 46.357 14.9742 45.9565C14.7517 45.4873 14.539 45.0391 14.3558 44.6272C14.0135 43.8574 13.7451 43.1539 13.6636 42.5593C13.4628 41.0951 13.9911 39.5367 14.6191 38.5407C14.929 38.0492 15.2896 37.6522 15.6368 37.4906C15.8159 37.4072 16.0284 37.3708 16.2276 37.4694C16.423 37.5661 16.539 37.7603 16.6032 37.9851C16.8042 38.6894 17.4096 39.5258 18.0869 40.2714C18.7584 41.0108 19.4672 41.6253 19.8314 41.8857C20.1668 42.1256 20.4664 42.4671 20.7016 42.786C20.9381 43.1066 21.1199 43.4188 21.2171 43.6133L21.2217 43.6226L21.2256 43.6323C21.547 44.4366 21.5738 45.1175 21.3678 45.6834C21.1624 46.2475 20.7396 46.659 20.2357 46.9537C19.5756 47.3398 18.748 47.5424 17.9868 47.63C18.1581 47.6605 18.3109 47.6726 18.415 47.6739C20.1139 47.4172 21.1409 46.956 21.693 46.4065C22.2286 45.8733 22.3436 45.2297 22.1481 44.506C21.9485 43.7669 21.4248 42.9549 20.6919 42.1491C19.9622 41.347 19.041 40.5683 18.0724 39.895L18.2992 39.4543C18.5147 39.5313 18.8368 39.7045 19.2017 39.9155C19.5511 40.1177 19.9578 40.3655 20.3789 40.622L20.4562 40.6691C21.361 41.2203 22.3118 41.7961 22.9473 42.0788L23.0637 42.1306L23.0902 42.2551C23.2993 43.2367 23.3326 44.259 23.3281 45.2628C23.3268 45.5592 23.3223 45.8529 23.3178 46.1437C23.3069 46.8468 23.2963 47.5331 23.3322 48.2002C23.4329 50.0692 23.8952 51.6853 25.6995 52.7818C25.8983 52.9026 26.0657 53.0973 26.2086 53.3234C26.353 53.5519 26.4825 53.829 26.5989 54.1343C26.8318 54.745 27.0216 55.4938 27.1714 56.2516C27.2717 56.7593 27.3549 57.2756 27.4212 57.7631C27.4206 57.2936 27.3913 56.8146 27.3434 56.3473C27.2157 55.1002 26.9599 53.9689 26.7996 53.3893L26.712 53.0726H28.354C30.1058 53.1149 31.2443 52.588 31.9606 51.9366C32.2715 51.6539 32.5058 51.345 32.6771 51.0438C31.611 51.9147 29.7218 52.7418 27.0018 52.3154C25.0282 52.0059 24.0791 50.208 23.6687 48.2395C23.2549 46.2545 23.3584 43.9789 23.579 42.4888L24.0715 42.4764C24.0714 42.4762 24.0752 42.4934 24.0999 42.5262C24.1242 42.5584 24.165 42.6007 24.2297 42.6495C24.3598 42.7475 24.5731 42.8616 24.9014 42.9695C25.5578 43.1854 26.6411 43.366 28.348 43.366C30.1673 43.366 31.4821 44.3016 32.3762 45.4456C32.9955 46.2381 33.4198 47.1379 33.6808 47.9192C33.7497 47.1718 33.5731 46.2286 32.8902 45.243C31.8932 43.8041 29.802 42.2558 25.7747 41.1302C22.1679 40.1221 19.9625 37.8156 18.6337 35.1666C16.1813 30.2777 16.7033 24.1997 16.8181 22.863L16.8186 22.8571L16.8219 22.8181C16.8219 22.8181 16.8219 22.8181 16.8219 22.8181C16.8839 22.0937 16.7864 21.6049 16.6533 21.2872C16.6612 22.6607 16.3134 23.7918 16.0993 24.2534L16.0847 24.2849L16.0621 24.3111C14.2474 26.4234 13.9456 28.8148 14.3116 30.9636C14.6789 33.1197 15.718 35.0182 16.5601 36.1007L16.9635 36.6192L16.3175 36.5001C15.4169 36.334 14.79 35.7633 14.3757 35.1367C14.3809 35.1473 14.3861 35.1579 14.3913 35.1685C14.6951 35.7815 15.1369 36.3181 15.4476 36.6204L15.5485 36.7185L15.5168 36.8557C15.4304 37.2308 15.1722 37.4673 14.9142 37.607C14.6591 37.7451 14.3824 37.8017 14.1984 37.8126L13.901 37.8301L13.9353 37.5341C14.1381 35.7882 12.968 34.5632 12.3601 34.1745L12.3448 34.1647L12.3311 34.1528C11.151 33.13 10.706 31.8398 10.7024 30.4975C10.6989 29.1647 11.1295 27.7793 11.6952 26.5329C12.262 25.2839 12.9725 24.1573 13.5465 23.3377C14.1166 22.5235 14.5626 21.9973 14.6061 21.9539C14.606 21.9539 14.6064 21.9535 14.6072 21.9525C14.6181 21.9396 14.707 21.8347 14.8535 21.6416C15.0052 21.4416 15.2101 21.1585 15.4341 20.8148C15.8833 20.1256 16.404 19.2014 16.7317 18.2205C17.0607 17.2361 17.1854 16.2243 16.883 15.3405C16.5853 14.4705 15.8566 13.6762 14.3726 13.1504C11.9774 12.3017 10.2208 12.6884 8.99322 13.4856C8.34234 13.9083 7.83283 14.4514 7.45427 15.0012C9.16337 13.5648 10.9729 13.3569 11.824 13.4855L11.8313 13.4866L11.8386 13.4882C13.0984 13.756 13.9381 14.2026 14.4376 14.7823C14.9438 15.3699 15.074 16.063 14.9774 16.7568C14.8819 17.4432 14.5648 18.1368 14.1688 18.7607C13.7714 19.3868 13.2851 19.9575 12.8333 20.4005L12.8274 20.4063C8.1767 24.6736 8.1036 28.707 8.59083 30.1197L8.84206 30.8481L8.21103 30.406C7.00851 29.5634 6.73275 27.9923 6.82471 26.4712C6.87117 25.7026 7.01247 24.9228 7.19301 24.2114C7.17713 24.2362 7.16109 24.2608 7.14493 24.2851ZM7.03231 23.4669C7.26166 22.9669 7.37328 22.4153 7.24031 21.864C7.19998 21.707 7.20661 21.4998 7.25814 21.2593C7.2979 21.0738 7.36659 20.8583 7.47197 20.6141C6.91833 21.4478 6.59645 22.3077 6.74739 23.0631L6.75505 23.1015L6.75064 23.1403C6.67087 23.843 6.25103 24.2941 5.68677 24.5342C5.13626 24.7684 4.44828 24.805 3.77956 24.7164C3.18493 24.6377 2.58454 24.4574 2.0766 24.2064C2.21537 24.3463 2.37179 24.4785 2.54686 24.5969C3.28302 25.0945 4.37763 25.3677 5.94527 24.9051C6.16725 24.7154 6.45858 24.4095 6.71443 24.0294C6.81195 23.8438 6.91779 23.6563 7.03231 23.4669ZM6.57051 19.2086C7.56223 17.3168 8.75775 16.2545 9.9172 15.6702C10.7865 15.2322 11.6232 15.0693 12.316 15.0178C11.5856 14.7409 10.9209 14.6945 10.3259 14.8058C9.48573 14.963 8.75492 15.4405 8.15709 16.0901C7.55894 16.74 7.10268 17.5532 6.81417 18.3577C6.71014 18.6478 6.62886 18.9341 6.57051 19.2086ZM10.234 14.3143C11.2103 14.1316 12.3085 14.3241 13.4963 15.0459L13.3544 15.5093C12.6158 15.4737 11.4147 15.4755 10.1422 16.1168C8.8749 16.7554 7.50532 18.0444 6.46183 20.6423L5.9815 20.5779C5.90309 19.901 6.03723 19.043 6.34352 18.1889C6.65087 17.3319 7.13889 16.458 7.7892 15.7515C8.43983 15.0445 9.26165 14.4962 10.234 14.3143ZM19.636 16.7816C19.9879 16.4311 20.403 16.1538 20.7976 16.1022L20.9611 16.563C20.3378 16.947 20.0031 17.6434 19.871 18.4103C19.7392 19.1761 19.8186 19.9673 19.9788 20.4737L20.1322 20.9586L19.6546 20.7839C19.0183 20.5512 18.6593 20.1349 18.5355 19.6254C18.4159 19.1332 18.5247 18.5912 18.7359 18.1012C18.9486 17.6077 19.2767 17.1395 19.636 16.7816ZM19.3719 20.0641C19.288 19.5471 19.2744 18.9288 19.3783 18.3254C19.4157 18.108 19.469 17.8895 19.5411 17.6766C19.4064 17.8731 19.2878 18.0841 19.1951 18.2991C19.0072 18.7348 18.937 19.1601 19.0213 19.5074C19.0712 19.7127 19.1783 19.9046 19.3719 20.0641ZM3.50113 21.733C3.58569 21.6238 3.68816 21.532 3.80105 21.4562C3.89074 21.396 3.98776 21.3453 4.08925 21.3028C4.04318 21.3055 4.0006 21.3107 3.96135 21.318C3.70953 21.3652 3.58049 21.5015 3.51704 21.6818C3.5112 21.6984 3.5059 21.7155 3.50113 21.733ZM3.86939 20.8266C4.28311 20.7492 4.8245 20.8428 5.51123 21.1374L5.39399 21.6164C4.96862 21.5845 4.41909 21.6435 4.07975 21.8714C3.91985 21.9787 3.81386 22.118 3.77689 22.3049C3.73859 22.4987 3.76782 22.7774 3.95053 23.1703L3.54492 23.4503C3.3198 23.2196 3.145 22.8918 3.04995 22.5545C2.95537 22.2189 2.93081 21.8416 3.04538 21.5159C3.1658 21.1736 3.43513 20.9078 3.86939 20.8266ZM22.8626 24.9094C23.4092 24.7981 24.0715 24.8256 24.5117 24.8818L24.7249 24.909L24.73 25.1238C24.7394 25.5223 24.6951 26.1222 24.5214 26.6216C24.4346 26.871 24.3087 27.1158 24.1226 27.2947C23.9728 27.4386 23.7872 27.536 23.5685 27.5593C23.4705 27.7923 23.3229 27.9686 23.1376 28.0912C22.9117 28.2408 22.6498 28.2975 22.3972 28.304C21.8981 28.3168 21.3741 28.1356 21.045 27.9709L20.9069 27.9017V27.7473C20.9069 27.2026 21.0065 26.7108 21.1929 26.3454C21.3371 26.0629 21.5518 25.8259 21.8332 25.7362C21.8612 25.5294 21.9659 25.358 22.1212 25.227C22.3198 25.0595 22.5914 24.9646 22.8626 24.9094ZM22.4436 25.6092C22.3532 25.6855 22.3108 25.7742 22.3305 25.9124L22.3712 26.1978H22.083C21.9448 26.1978 21.7811 26.2928 21.6383 26.5726C21.5397 26.7659 21.4655 27.0246 21.43 27.3316C21.6303 27.2257 21.8477 27.1015 22.0407 26.9742C22.2052 26.8657 22.3431 26.7608 22.4371 26.6684C22.484 26.6221 22.5137 26.585 22.5304 26.558C22.5365 26.548 22.5397 26.5413 22.5412 26.5377V26.2976H22.7912C22.8239 26.2976 22.9081 26.2737 23.0499 26.1824C23.1819 26.0973 23.3318 25.975 23.4865 25.8322C23.6559 25.6759 23.8241 25.5015 23.9721 25.338C23.6397 25.3239 23.2727 25.3361 22.9623 25.3993C22.7246 25.4477 22.5487 25.5205 22.4436 25.6092ZM24.1898 25.8388C24.0739 25.9609 23.9505 26.0844 23.8256 26.1996C23.6603 26.3522 23.4867 26.4958 23.3208 26.6027C23.2195 26.668 23.1047 26.7306 22.986 26.7665C22.9766 26.7854 22.9665 26.8032 22.9563 26.8198C22.9112 26.8932 22.8516 26.9619 22.7879 27.0247C22.6605 27.1501 22.4919 27.2756 22.3159 27.3916C22.1419 27.5064 21.9518 27.6175 21.7703 27.7164C21.9703 27.7728 22.1844 27.8093 22.3844 27.8041C22.5749 27.7992 22.7366 27.7571 22.8616 27.6743C22.982 27.5946 23.088 27.4645 23.1497 27.2437L23.206 27.0423L23.4142 27.0622C23.5638 27.0764 23.6772 27.0293 23.7762 26.9341C23.883 26.8314 23.9757 26.6686 24.0492 26.4573C24.1159 26.2655 24.1611 26.0505 24.1898 25.8388ZM20.5211 25.0766C20.5963 25.1173 20.6435 25.1785 20.6723 25.2362C20.7093 25.3102 20.7343 25.3928 20.7343 25.4842C20.7343 25.5757 20.7093 25.6583 20.6723 25.7323C20.5672 25.9427 20.3438 26.0134 20.1763 26.0134C20.0088 26.0134 19.7853 25.9427 19.6802 25.7323C19.6519 25.6757 19.633 25.6064 19.6404 25.5292C19.6479 25.4519 19.6796 25.3882 19.7172 25.3392C19.7847 25.2515 19.8857 25.1931 19.969 25.1514C20.0786 25.0966 20.1973 25.0446 20.3088 25.0352C20.3712 25.03 20.4472 25.0366 20.5211 25.0766ZM40.9742 39.0993C40.7704 39.3032 40.6754 39.5688 40.7286 39.7964C40.7683 39.9662 40.8378 40.091 40.9287 40.1819C41.0196 40.2728 41.1444 40.3422 41.3142 40.3819C41.5418 40.4351 41.8074 40.3402 42.0113 40.1363C42.2151 39.9325 42.3101 39.6669 42.2569 39.4392C42.2172 39.2694 42.1477 39.1447 42.0568 39.0538C41.9659 38.9629 41.8411 38.8934 41.6713 38.8537C41.4437 38.8005 41.1781 38.8954 40.9742 39.0993ZM40.6207 38.7457C40.9103 38.4562 41.3443 38.2638 41.7851 38.3668C42.0305 38.4242 42.2433 38.5332 42.4104 38.7002C42.5774 38.8673 42.6864 39.0801 42.7437 39.3254C42.8468 39.7663 42.6544 40.2003 42.3648 40.4899C42.0752 40.7795 41.6412 40.9718 41.2004 40.8688C40.955 40.8115 40.7422 40.7025 40.5751 40.5354C40.4081 40.3684 40.2991 40.1556 40.2418 39.9102C40.1387 39.4694 40.3311 39.0353 40.6207 38.7457ZM27.1106 49.0339C27.0712 48.2815 27.7165 47.6325 28.4709 47.6744C29.1387 47.7114 29.653 48.2227 29.6883 48.8924C29.7276 49.6383 29.0884 50.2979 28.3349 50.2583C27.9776 50.2395 27.6758 50.1058 27.459 49.8804C27.2436 49.6564 27.1275 49.3577 27.1106 49.0339ZM28.4432 48.1736C27.9879 48.1483 27.5859 48.5503 27.6099 49.0078C27.6214 49.2288 27.6985 49.4081 27.8194 49.5339C27.9391 49.6583 28.1169 49.7461 28.3611 49.759C28.8106 49.7826 29.213 49.3758 29.189 48.9187C29.1672 48.5057 28.8579 48.1966 28.4432 48.1736ZM28.7022 54.3283C29.3017 55.7015 29.5213 56.9155 29.2302 58.1658C28.891 59.6229 27.8682 61.0821 26.0733 62.8787C23.2165 65.7383 22.8559 68.85 23.1101 70.6919C23.622 68.4911 24.131 67.0246 24.9943 65.5862C25.984 63.9376 27.4341 62.3359 29.8525 59.6975C30.6039 58.8778 30.5603 57.583 30.0806 56.3658C29.8443 55.7662 29.5097 55.2089 29.1426 54.7749C28.9966 54.6022 28.8484 54.4526 28.7022 54.3283ZM38.5107 68.993L38.7554 68.5629C39.0966 68.6966 39.6312 68.9716 40.1514 69.3691C40.5547 69.6773 40.9607 70.0678 41.2587 70.5342C41.3459 70.4002 41.4491 70.2646 41.5649 70.1462C41.8013 69.9046 42.1672 69.6625 42.5865 69.8165L43.1804 70.0346L42.5978 70.2813C42.4466 70.3454 42.2857 70.5248 42.1336 70.8394C41.9859 71.1451 41.8671 71.5354 41.7742 71.9512C41.5886 72.7818 41.5164 73.6691 41.5072 74.0743L41.0073 74.063C41.0374 72.7451 40.5729 71.6006 40.0152 70.7183C39.4566 69.8346 38.8128 69.228 38.5107 68.993ZM41.2261 72.1319C41.2447 72.0351 41.2647 71.9383 41.2862 71.8422C41.3296 71.6478 41.3795 71.4538 41.4367 71.267L41.2572 71.6698L41.0289 71.1572C40.832 70.7153 40.5009 70.3239 40.1275 69.9955C40.2322 70.1386 40.3364 70.2906 40.4378 70.4511C40.7439 70.9353 41.0276 71.5001 41.2261 72.1319Z" fill="#E8E8E8"/>
<path fill-rule="evenodd" clip-rule="evenodd" d="M35.3528 47.0441H45.5429V57.9385H44.7676L45.5429 58.6274V73.3024L41.6562 68.148V60.6867L39.4751 58.9907V65.3126L35.3528 60.025V47.0441ZM36.3528 48.0441V59.6813L38.4751 62.4035V56.9464L42.6562 60.1975V67.8133L44.5429 70.3153V59.0765L42.1369 56.9385H44.5429V48.0441H36.3528ZM46.0745 47.0441H56.2057V54.9937H52.2013V51.2245H50.079V61.4732L50.6091 60.9433H55.6048L46.0745 73.2733V47.0441ZM47.0745 48.0441V70.3443L53.568 61.9433H51.0232L49.079 63.887V50.2245H53.2013V53.9937H55.2057V48.0441H47.0745ZM38.6541 50.5324H42.3012V55.2824H38.6541V50.5324ZM39.6541 51.5324V54.2824H41.3012V51.5324H39.6541Z" fill="white"/>
<path d="M51.3116 60.7021L51.3564 60.1573C51.5015 58.589 51.985 57.26 52.8068 56.1703H51.1643L51.1291 56.7004H50.4119V55.342H53.7065V56.1703C53.4567 56.5066 53.2486 56.8281 53.0821 57.1348C52.9178 57.4392 52.7844 57.746 52.6819 58.0552C52.5816 58.362 52.5015 58.6872 52.4418 59.0308C52.382 59.3719 52.3319 59.7474 52.2913 60.1573L52.2465 60.7021H51.3116Z" fill="#DA9640"/>
<path d="M55.6948 60.7794C55.2081 60.7794 54.8228 60.5966 54.5389 60.2309C54.255 59.8627 54.1131 59.324 54.1131 58.6148V57.433C54.1131 56.7262 54.254 56.1887 54.5357 55.8206C54.8196 55.45 55.2038 55.2647 55.6884 55.2647C56.1708 55.2647 56.5539 55.45 56.8378 55.8206C57.1238 56.1887 57.2668 56.7262 57.2668 57.433V58.6148C57.2668 59.324 57.1249 59.8627 56.841 60.2309C56.5593 60.5966 56.1772 60.7794 55.6948 60.7794ZM55.6948 59.9548C55.904 59.9548 56.063 59.8566 56.1718 59.6603C56.2807 59.4639 56.3351 59.1498 56.3351 58.7178V57.3226C56.3351 56.898 56.2796 56.5876 56.1686 56.3912C56.0576 56.1924 55.8976 56.093 55.6884 56.093C55.4771 56.093 55.317 56.1912 55.2081 56.3875C55.0992 56.5839 55.0448 56.8956 55.0448 57.3226V58.7178C55.0448 59.1498 55.0992 59.4639 55.2081 59.6603C55.3191 59.8566 55.4813 59.9548 55.6948 59.9548Z" fill="#DA9640"/>
<path d="M58.6052 60.7021L58.65 60.1573C58.7951 58.589 59.2786 57.26 60.1004 56.1703H58.4579L58.4227 56.7004H57.7055V55.342H61.0001V56.1703C60.7504 56.5066 60.5422 56.8281 60.3758 57.1348C60.2114 57.4392 60.078 57.746 59.9755 58.0552C59.8752 58.362 59.7952 58.6872 59.7354 59.0308C59.6756 59.3719 59.6255 59.7474 59.5849 60.1573L59.5401 60.7021H58.6052Z" fill="#DA9640"/>
</svg>
