<svg width="121" height="147" viewBox="0 0 121 147" fill="none" xmlns="http://www.w3.org/2000/svg">
<path d="M74.6588 31.5664C88.5444 50.3522 96.8974 76.7026 99.3925 87.7061C98.3511 84.7524 96.4274 80.2498 95.5957 78.3677C89.7377 96.0675 68.2584 90.5295 67.6075 80.1051C72.1203 87.7497 79.9744 87.6339 83.3373 86.6204C100.26 80.2789 89.81 67.1832 82.4694 61.4281C86.288 62.9049 90.3524 67.1108 91.9073 69.0292C86.8738 48.3541 62.8705 20.382 51.3353 9.08887C39.1854 -3.39869 31.1578 9.30609 20.5266 18.2101C44.6095 -15.5606 51.0099 6.5914 74.6588 31.5664Z" fill="white"/>
<path d="M66.0888 96.3933C65.4017 92.8823 62.3136 85.8603 55.4576 85.8603C48.6016 85.8603 46.5983 84.4124 46.4537 83.6885C45.5858 89.5522 45.6509 101.562 52.8541 102.691C60.0572 103.821 64.1723 100.411 65.3294 98.565C65.0401 100.845 62.6608 105.363 55.4576 105.189H52.8541C53.5049 107.542 54.9152 114.31 53.5049 118.545C53.5049 115.939 52.355 106.014 49.9251 104.537C42.3314 99.9224 46.1205 90.8553 44.501 83.2542C41.8974 82.0959 36.7988 78.5849 35.2801 78.042C43.0907 83.4713 49.4911 92.3755 35.714 94.4387C35.0631 94.4387 33.5444 94.2432 32.6765 93.4614C36.4011 93.5338 43.2426 92.1583 40.8126 86.0774C40.451 85.3535 39.4241 83.6885 38.2091 82.8198C36.6903 81.7339 32.4596 77.8248 31.5917 74.7843C30.7239 71.7439 25.9507 78.1506 26.7101 83.6885C27.3176 88.1189 33.6095 96.3325 33.9783 105.189C34.033 106.502 34.5207 107.361 33.9783 108.555C32.3511 95.7417 26.7101 92.7664 25.4083 86.9461C24.8297 87.8872 23.8462 91.8326 24.5404 100.085C22.2262 98.5288 18.2919 93.0705 21.069 83.6885C16.7298 85.3173 9.11441 83.3193 13.3669 76.196C12.1736 79.3088 12.1302 84.6658 21.503 81.191L22.0454 77.499C20.7797 77.2819 18.5306 75.197 19.6588 68.5949C19.478 70.6942 19.789 75.1535 22.4793 76.196C23.3833 72.4678 23.1519 65.4458 14.9941 67.1832C15.1749 66.5317 15.9487 65.1635 17.5976 64.9029C13.7237 62.6409 8.05142 56.1958 12.8075 47.113C12.2373 47.9656 11.5791 48.6449 11.0888 49.0491C4.4931 51.0471 1.61473 46.8412 1 44.4884C1.86785 47.6375 11.4142 49.8092 11.9566 45.0314C11.1755 41.1222 16.0427 36.3806 18.574 34.4984C14.3215 38.8419 13.6923 41.5928 13.9093 42.4253C14.212 43.6753 13.9482 44.9019 13.4525 45.9718C13.8966 45.2397 14.4085 44.4916 14.9941 43.7283C13.403 47.6013 11.3057 56.1073 15.645 59.1478C14.5963 56.1073 14.8422 47.8764 24.215 39.2762C27.7226 35.8376 32.286 28.4392 22.4793 26.3543C20.5628 26.0647 15.7751 26.7015 11.9566 31.5664C13.1499 27.8383 17.9882 21.2507 27.7949 24.7255C40.0532 29.069 28.6627 42.8596 28.4458 43.0768C28.2288 43.294 14.9941 58.9306 23.8895 66.6403C25.1913 67.4728 27.6864 70.0716 27.2525 73.8071C27.8672 73.7709 29.1617 73.4161 29.4221 72.2868C28.1203 71.02 25.7555 67.8348 26.7101 65.2287C26.9632 66.966 28.2939 70.5929 31.5917 71.201C28.1565 66.7851 23.1519 55.7815 30.6154 47.0945C31.0855 46.0811 31.9389 43.2288 31.5917 39.9278C32.1703 40.1811 33.2623 41.448 33.002 44.4884L32.9953 44.5662C32.7681 47.2117 31.7385 59.2027 36.5588 68.812C38.9169 67.147 43.6269 62.9871 41.6308 59.8598C40.7115 59.7874 38.5561 59.2009 36.5588 57.0846C42.0059 58.7134 50.4675 61.6168 51.2944 54.5888C52.4883 44.4421 52.8323 27.9831 32.3511 27.1144C31.7242 26.6329 30.5174 25.7821 29.4557 25.2259C28.9382 25.0392 28.5268 24.8682 28.2288 24.7255C28.5732 24.8036 29.0012 24.9878 29.4557 25.2259C31.826 26.0809 36.4221 27.2636 42.5483 27.5488C41.8251 26.4267 40.3353 23.8568 40.1617 22.5538C43.5247 28.2003 48.2543 30.0372 51.0748 34.1636C51.0748 35.901 51.0748 37.958 52.1729 40.7523C52.8318 56.3458 53.0514 59.1478 44.7179 60.3422C44.962 62.5502 43.9367 67.6827 37.8836 70.5494L36.5588 68.812C39.1537 73.9851 43.444 78.4679 50.4674 80.4309C66.6296 84.9481 67.6159 92.9547 66.0888 96.3933Z" fill="white"/>
<path d="M25.6252 29.3948C22.6239 29.25 15.645 29.3948 11.4142 39.9278C10.8356 34.9327 16.5128 23.8568 25.6252 29.3948Z" fill="white"/>
<path d="M6.42406 45.3571C4.90533 43.8007 4.4714 39.2762 9.78698 41.5566C8.01512 41.4238 4.86193 41.998 6.42406 45.3571Z" fill="white"/>
<path d="M5.66469 39.2762C-1.79882 42.2298 3.82051 47.6375 7.07495 47.0945C-0.128205 43.8755 3.16962 40.0364 8.15976 39.4934C7.29191 39.1677 6.85799 39.0591 5.66469 39.2762Z" fill="white"/>
<path d="M36.0394 25.7028C32.1341 22.7347 21.8501 18.7098 11.9566 26.3543C14.3432 21.9022 31.0059 13.0198 36.0394 25.7028Z" fill="white"/>
<path d="M37.7751 22.7709C33.3608 17.1244 25.8832 17.6673 22.6963 18.6446C24.432 17.3778 29.7258 15.2567 37.0158 16.9072C38.643 15.7852 42.9606 14.388 47.213 17.7759C52.5286 22.0108 69.4517 46.5516 69.7771 57.0846C64.5855 42.4253 46.4319 12.9112 39.8363 17.7759C47.6831 22.5176 62.7475 36.2792 60.2308 53.3926C58.6035 62.0796 56.9763 60.668 56.217 73.8071C55.4576 72.1782 54.568 65.9236 57.0848 53.9356C59.6016 41.9475 49.8889 28.1641 44.7179 22.7709C43.4885 21.5403 40.2268 18.9922 37.0158 18.6446C37.522 19.3685 38.3826 21.2073 37.7751 22.7709Z" fill="white"/>
<path d="M50.5759 123.866C57.6923 116.743 58.3866 112.573 55.0237 105.949C58.1696 106.926 62.2047 114.527 58.8205 118.219C49.1657 128.752 47.43 130.815 45.0434 142C43.9224 138.923 43.4596 130.989 50.5759 123.866Z" fill="white"/>
<path d="M40.4872 41.5566C40.1256 40.6517 40.0316 38.2338 42.5483 35.8014C42.8014 35.6483 43.1558 34.7173 42.5483 32.2181C42.9474 32.414 43.3956 32.6828 43.8271 33.0122L45.1449 32.6262L44.5668 33.6633L46.0234 33.285L45.4131 34.8224L46.6822 34.6028L45.6706 35.5412L46.6822 35.7009L45.7352 36.1097V36.1402L46.4626 36.5794L45.6706 36.7065L46.4626 37.2383H45.4968L46.243 37.7836H45.2019L46.0234 38.294H44.8148L45.4968 39.0561L44.3298 38.7757C42.9436 39.6888 41.6628 38.9892 40.4872 41.5566Z" fill="white"/>
<path d="M38.3176 39.9278C37.6305 37.7559 37.6667 33.3039 40.4872 31.5664C37.9921 31.8923 33.8047 38.2772 38.3176 39.9278Z" fill="white"/>
<path d="M39.7278 49.4835C39.6331 49.2938 39.4346 49.3178 38.9953 49.5374C38.6816 49.6943 38.5483 49.8368 38.643 50.0264C38.8325 50.4057 39.5383 50.4057 39.7278 50.0264C39.8225 49.8368 39.8225 49.6731 39.7278 49.4835Z" fill="white"/>
<path d="M42.9822 50.6779C42.7219 48.8537 46.0559 48.8319 47.7554 49.0491C47.7916 50.5693 47.4083 53.5664 45.5858 53.3926C44.9783 55.5644 42.3675 54.8766 41.1381 54.2613C41.1381 52.1982 41.8974 50.6779 42.9822 50.6779Z" fill="white"/>
<path d="M82.1014 75.8925C80.7702 75.5814 79.3151 77.0366 79.6262 78.3677C79.8194 79.1945 80.3368 79.7119 81.1636 79.9051C82.4947 80.2162 83.9499 78.7611 83.6388 77.4299C83.4455 76.6031 82.9282 76.0858 82.1014 75.8925Z" fill="white"/>
<path d="M57.6294 96.3933C57.6924 97.591 56.6554 98.6528 55.4576 98.5898C54.2598 98.5267 53.5474 97.7077 53.4907 96.6228C53.4276 95.4182 54.4704 94.3719 55.6748 94.4387C56.7526 94.4985 57.5726 95.3153 57.6294 96.3933Z" fill="white"/>
<path d="M81.1636 146.5C81.2889 141 77.2859 137 76 136C77.2757 136.5 80.0944 138.1 81.1636 140.5C81.5349 139.667 82.5498 138.1 83.6388 138.5C81.7498 139.3 81.2015 144.833 81.1636 146.5Z" fill="white"/>
<path fill-rule="evenodd" clip-rule="evenodd" d="M63.12 17.9849C66.5761 22.1245 70.4031 26.7085 74.8403 31.3945L74.8508 31.4055L74.8598 31.4178C88.7746 50.2431 97.1377 76.6314 99.6363 87.6508L99.1567 87.7892C98.2145 85.1167 96.545 81.1658 95.6232 79.0525C94.1244 83.1952 91.7447 86.0269 88.9767 87.7833C86.0779 89.6227 82.7684 90.2734 79.6298 90.0323C76.4928 89.7912 73.5162 88.6586 71.278 86.9178C69.0397 85.1769 67.5263 82.8154 67.358 80.1207L67.8228 79.978C72.2521 87.4811 79.9538 87.3754 83.2573 86.3834C87.4526 84.81 89.9121 82.8327 91.1573 80.6924C92.3998 78.5566 92.4556 76.2198 91.7625 73.8752C90.37 69.1647 85.9725 64.4922 82.3152 61.6248L82.5596 61.1949C84.509 61.9488 86.5056 63.3916 88.2018 64.8749C89.4738 65.9872 90.5865 67.1308 91.3953 68.0423C88.6715 57.9852 81.6541 46.3025 73.8579 35.6888C65.7945 24.7112 56.9188 14.9051 51.1604 9.26751L51.1561 9.26326C48.1416 6.165 45.4077 4.655 42.8507 4.24053C40.2964 3.82649 37.8795 4.49931 35.4839 5.84559C33.0842 7.19423 30.7228 9.20919 28.2864 11.4562C27.5786 12.1091 26.8642 12.7818 26.1411 13.4626C24.3832 15.1179 22.5746 16.8209 20.6872 18.4018L20.3231 18.065C26.3484 9.61583 31.2922 4.62711 35.7031 2.31646C37.914 1.15826 39.9959 0.670236 42.0133 0.76053C44.0297 0.850779 45.964 1.51794 47.8819 2.64298C51.7071 4.88683 55.5022 8.97491 59.8009 14.0322C60.8724 15.2928 61.9758 16.6145 63.12 17.9849ZM21.9953 16.6107C27.4376 9.23543 31.9391 4.85269 35.9351 2.75936C38.0804 1.63554 40.0751 1.17428 41.9909 1.26003C43.9078 1.34582 45.7636 1.98003 47.6289 3.07425C51.3703 5.26894 55.1147 9.291 59.4199 14.3561C60.4864 15.6108 61.5867 16.9287 62.7288 18.2966C66.1841 22.4354 70.0222 27.0326 74.4668 31.7272C86.8648 48.5063 94.8474 71.3408 98.1721 83.825C97.2831 81.6254 96.3419 79.4378 95.8243 78.2667L95.5621 77.6734L95.3583 78.2892C93.9102 82.6648 91.5031 85.588 88.7088 87.3611C85.9122 89.1357 82.7129 89.7677 79.6681 89.5337C76.6217 89.2997 73.7402 88.1995 71.585 86.5231C69.7537 85.0989 68.4565 83.2677 68.0114 81.2049C72.6735 88.0002 80.1321 87.8474 83.4094 86.8597L83.4173 86.8574L83.425 86.8545C87.6866 85.2576 90.2647 83.2209 91.5895 80.9438C92.9177 78.6607 92.9637 76.1749 92.242 73.7335C91.0089 69.5623 87.5226 65.471 84.2309 62.5692C85.4957 63.3091 86.7441 64.2644 87.8727 65.2512C89.5492 66.7173 90.9442 68.238 91.7131 69.1866L92.1502 68.9701C89.6212 58.5821 82.3367 46.3872 74.2609 35.3928C66.1816 24.3937 57.2892 14.5682 51.5124 8.91237C48.4527 5.76829 45.6277 4.18412 42.9307 3.74697C40.2305 3.30928 37.698 4.02774 35.239 5.40971C32.7842 6.78932 30.386 8.83959 27.9474 11.0887C27.2316 11.749 26.5125 12.4261 25.7869 13.1093C24.5474 14.2765 23.289 15.4614 21.9953 16.6107ZM47.0572 17.9714C42.9128 14.6696 38.7196 16.036 37.1577 17.113L37.0675 17.1753L36.9606 17.1511C31.2407 15.856 26.7773 16.9088 24.3358 18.01C25.8716 17.7525 27.8045 17.6576 29.8146 17.9769C32.554 18.4121 35.4499 19.6193 37.6701 22.2455C37.7927 21.6539 37.7276 21.0321 37.5718 20.4584C37.3775 19.7429 37.0489 19.1283 36.8109 18.7879L36.4955 18.3368L37.0427 18.3961C38.6996 18.5754 40.354 19.3194 41.74 20.1631C43.128 21.0081 44.2664 21.9653 44.8948 22.5942L44.8984 22.5979C47.4993 25.3106 51.236 30.1255 54.0087 35.7699C56.7793 41.4102 58.6045 47.9138 57.3295 53.9869C56.074 59.9671 55.6696 64.5103 55.6723 67.7558C55.674 69.8269 55.8416 71.3597 56.0548 72.3975C56.4364 66.7799 56.9988 64.0824 57.6587 61.8592C57.8444 61.2336 58.0365 60.6494 58.2334 60.0505C58.7903 58.3565 59.3856 56.5455 59.9841 53.3514C61.2281 44.8821 58.1252 37.2297 53.7168 31.0907C49.3068 24.9496 43.6057 20.3458 39.707 17.9899L39.3871 17.7966L39.6879 17.5747C40.5957 16.9052 41.6911 16.8422 42.8809 17.2293C44.0635 17.614 45.3631 18.4487 46.7292 19.6139C49.4639 21.9464 52.528 25.6581 55.5381 29.9655C61.0622 37.8705 66.4403 47.8342 69.3024 55.1054C68.8888 52.8373 67.9386 50.1244 66.6333 47.1963C64.9239 43.3616 62.6179 39.1844 60.1537 35.2C57.6899 31.216 55.0706 27.429 52.7368 24.3751C50.3978 21.3145 48.3596 19.0091 47.0572 17.9714ZM36.9655 16.6397C38.7223 15.4857 43.0848 14.1674 47.3688 17.5804C48.7242 18.6602 50.7948 21.0105 53.134 24.0715C55.4784 27.1392 58.107 30.9398 60.579 34.937C63.0507 38.9337 65.3687 43.1314 67.09 46.9928C68.8081 50.8469 69.9441 54.3927 70.027 57.0769L69.5415 57.168C66.9548 49.8641 61.1302 38.8407 55.1283 30.2519C52.1266 25.9566 49.0912 22.2857 46.4048 19.9943C45.0603 18.8476 43.8191 18.0602 42.7262 17.7047C41.7942 17.4016 40.9883 17.4168 40.3099 17.7729C44.243 20.2158 49.796 24.7736 54.1229 30.799C58.5784 37.0035 61.7491 44.7868 60.4781 53.429L60.4767 53.4387C59.8712 56.671 59.2623 58.5226 58.7031 60.2235C58.508 60.8171 58.3189 61.3923 58.1381 62.0015C57.4402 64.3523 56.8455 67.2637 56.4665 73.8215L55.9904 73.9127C55.5869 73.0472 55.175 71.0311 55.1723 67.7562C55.1696 64.4702 55.5788 59.8921 56.8401 53.8842C58.0819 47.9693 56.3092 41.5872 53.5599 35.9904C50.8133 30.3991 47.1093 25.6267 44.5393 22.9459C43.9379 22.3442 42.8316 21.413 41.48 20.5902C40.2753 19.8568 38.8912 19.2191 37.5068 18.9684C37.7077 19.3377 37.9133 19.8081 38.0544 20.3274C38.2648 21.1022 38.3382 22.0119 38.0082 22.8615L37.849 23.2713L37.5782 22.9249C35.4192 20.1633 32.51 18.9114 29.7362 18.4707C26.9582 18.0294 24.3306 18.4049 22.7695 18.8836L22.5489 18.4427C24.3371 17.1375 29.6628 15.0181 36.9655 16.6397ZM13.1665 25.1764C13.9007 24.4099 14.9253 23.5846 16.153 22.8015C18.1092 21.5538 20.5471 20.4349 23.0624 19.8463C25.5792 19.2574 28.1541 19.2038 30.3994 20.0614C32.4332 20.8382 34.2193 22.371 35.4549 24.9831C31.2616 22.2099 22.1784 19.1658 13.1665 25.1764ZM30.5778 19.5943C32.9562 20.5028 34.9899 22.3806 36.2718 25.6106L36.603 26.4451L35.8882 25.9018C32.0366 22.9746 21.882 19.0011 12.1095 26.5522L11.7363 26.2362C12.3636 25.066 13.8965 23.6478 15.8841 22.38C17.8807 21.1065 20.3705 19.9627 22.9485 19.3595C25.5248 18.7566 28.2086 18.6894 30.5778 19.5943ZM39.9139 22.5868L40.3765 22.4258C42.0367 25.2134 44.0346 27.0629 45.9846 28.7392C46.2163 28.9383 46.4477 29.1353 46.6779 29.3313C48.3787 30.7793 50.0186 32.1754 51.2812 34.0225L51.3248 34.0863V34.1636C51.3248 35.8936 51.3252 37.9118 52.4056 40.6609L52.4209 40.6999L52.4227 40.7418C52.4306 40.9289 52.4384 41.1142 52.4462 41.2976C52.6001 44.9342 52.7241 47.8628 52.7079 50.2255C52.6909 52.7043 52.52 54.5859 52.0554 56.0238C51.5865 57.4749 50.8174 58.4768 49.6183 59.1854C48.4779 59.8594 46.9629 60.2592 44.9874 60.5554C45.1433 62.9623 43.9466 67.9546 37.9906 70.7754L37.9544 70.7925C40.5835 75.0057 44.557 78.5194 50.5347 80.1901C58.6468 82.4574 62.9956 85.6124 65.1171 88.6742C67.2415 91.7403 67.1171 94.6938 66.3173 96.4947L65.9956 97.219L65.8434 96.4413C65.5058 94.716 64.5755 92.1213 62.8896 89.9641C61.2075 87.8118 58.7878 86.1103 55.4576 86.1103C52.015 86.1103 49.7711 85.7471 48.3608 85.2834C47.6556 85.0515 47.1505 84.7917 46.807 84.5329C46.7364 84.4798 46.6715 84.4257 46.6125 84.3711C46.2465 87.269 46.1288 91.3497 46.872 94.9143C47.6756 98.7691 49.4561 101.906 52.8928 102.444C59.9976 103.558 64.0139 100.193 65.1176 98.4322L65.5774 98.5965C65.4257 99.7922 64.7324 101.547 63.1544 102.982C61.5708 104.422 59.1115 105.526 55.4548 105.439H53.1801C53.5074 106.691 53.9633 108.813 54.2011 111.136C54.4598 113.661 54.4644 116.455 53.7421 118.624L53.2549 118.545C53.2549 117.262 52.9699 114.146 52.381 111.166C52.0867 109.677 51.7184 108.232 51.276 107.072C51.0548 106.492 50.8174 105.989 50.5652 105.59C50.3115 105.188 50.0527 104.907 49.7952 104.751C45.8959 102.381 44.9294 98.859 44.7231 95.029C44.65 93.6732 44.6718 92.2657 44.6936 90.8544C44.7025 90.2812 44.7113 89.7075 44.7139 89.1363C44.7225 87.1928 44.6585 85.2658 44.2823 83.4297C42.9662 82.8267 41.0856 81.6859 39.3537 80.6308L39.2038 80.5395C38.7988 80.2927 38.4026 80.0514 38.0238 79.823C39.019 80.6587 39.9488 81.5384 40.7654 82.4361C42.2604 84.0797 43.3918 85.8011 43.8338 87.4375C44.28 89.0891 44.0232 90.6629 42.7332 91.947C41.4616 93.2127 39.2147 94.1672 35.751 94.6859L35.7326 94.6887H35.714C35.3686 94.6887 34.8052 94.6374 34.2143 94.4853C33.6263 94.334 32.9857 94.0764 32.5092 93.6471L32.0111 93.1984L32.6814 93.2114C34.5238 93.2473 37.1116 92.9224 38.9263 91.8611C39.8287 91.3334 40.5231 90.6337 40.8554 89.7212C41.1862 88.8125 41.1717 87.6546 40.5844 86.1799C40.4086 85.8297 40.071 85.2497 39.6297 84.6513C39.1831 84.0458 38.6408 83.4358 38.0637 83.0232C37.2872 82.468 35.8367 81.2066 34.4713 79.7031C33.1115 78.2059 31.8021 76.4323 31.3513 74.853C31.2526 74.5069 31.1139 74.3519 30.9908 74.2909C30.8714 74.2318 30.7013 74.2292 30.4616 74.3408C29.971 74.5692 29.3487 75.2069 28.7522 76.1529C27.5673 78.0319 26.5882 80.9593 26.9578 83.6546C27.1044 84.7237 27.5979 86.0393 28.2786 87.57C28.6454 88.3948 29.0583 89.2647 29.4944 90.1836C29.871 90.9769 30.2648 91.8066 30.6611 92.6751C32.3584 96.3941 34.0416 100.699 34.2281 105.178C34.2412 105.493 34.2802 105.782 34.3246 106.062C34.3364 106.136 34.3487 106.211 34.361 106.286C34.3943 106.488 34.4277 106.69 34.4506 106.888C34.5148 107.444 34.5019 108.007 34.2059 108.658L33.8414 109.461L33.7303 108.587C32.9217 102.219 31.1179 98.3033 29.3548 95.2533C28.9182 94.498 28.4839 93.7954 28.0656 93.1188L28.0503 93.094C27.628 92.411 27.2217 91.7531 26.8504 91.0996C26.227 90.0026 25.6977 88.9103 25.3467 87.7082C25.134 88.3353 24.9034 89.3447 24.7456 90.8008C24.5162 92.9174 24.4435 95.9505 24.7896 100.064L24.8332 100.583L24.4009 100.293C22.029 98.6975 18.1525 93.2776 20.6974 84.0784C18.5223 84.7416 15.7239 84.589 13.8644 83.4368C12.8578 82.8132 12.1164 81.8888 11.9192 80.6399C11.7231 79.3984 12.0716 77.878 13.1522 76.0678L13.6003 76.2855C13.3094 77.0444 13.091 77.9346 13.0666 78.7855C13.0421 79.6385 13.2128 80.4255 13.6696 81.0099C14.1203 81.5865 14.8806 82.0049 16.1217 82.0645C17.3448 82.1232 19.0199 81.8316 21.2772 81.0077L21.7649 77.688C21.0733 77.4742 20.2647 76.8201 19.724 75.5385C19.1197 74.106 18.8435 71.8818 19.4123 68.5527L19.9079 68.6163C19.8192 69.6454 19.8517 71.2554 20.2343 72.7289C20.5909 74.1023 21.2343 75.2956 22.3035 75.8435C22.6959 74.0252 22.7892 71.5762 21.9096 69.7484C21.4501 68.7936 20.7271 68.0111 19.6377 67.5656C18.5435 67.1181 17.0538 67.0002 15.0462 67.4277L14.643 67.5136L14.7532 67.1164C14.926 66.4938 15.5898 65.2773 16.9623 64.8039C15.0955 63.586 12.9571 61.4915 11.7368 58.6649C10.5727 55.9683 10.2508 52.6197 11.7756 48.7605C11.5883 48.947 11.4096 49.1086 11.2478 49.242L11.2091 49.2739L11.1612 49.2884C7.80094 50.3063 5.35264 49.7507 3.66151 48.6074C1.98148 47.4716 1.0779 45.7756 0.758118 44.5516L1.24101 44.422C1.43096 45.1113 2.11704 45.7941 3.12356 46.3553C4.11911 46.9104 5.3801 47.3187 6.63316 47.4847C7.8894 47.651 9.11109 47.5703 10.04 47.175C10.9445 46.7901 11.5697 46.1107 11.7037 45.0407C11.3125 42.986 12.3887 40.7626 13.8234 38.8545C15.2764 36.9219 17.1446 35.2497 18.4248 34.2978L18.7526 34.6733C16.6396 36.8315 15.4368 38.5841 14.7896 39.8895C14.4659 40.5422 14.2828 41.0801 14.193 41.4987C14.1022 41.9223 14.1107 42.2069 14.1512 42.3622L14.1523 42.3664C14.3167 43.0454 14.3222 43.7149 14.2194 44.3552C14.4032 44.0972 14.5952 43.8375 14.7957 43.5761L15.2253 43.8233C14.437 45.7422 13.5239 48.8094 13.3452 51.7653C13.1842 54.4277 13.622 56.9245 15.1942 58.4516C14.4136 54.8485 15.3099 47.1096 24.0429 39.0948C24.9075 38.2468 25.8364 37.1555 26.5915 35.9657C27.349 34.7724 27.9224 33.4946 28.0924 32.2732C28.2613 31.0592 28.0319 29.908 27.1915 28.9326C26.3453 27.9503 24.8534 27.1157 22.4347 26.6004C20.5971 26.3262 15.9082 26.9369 12.1533 31.7207L11.7185 31.4902C12.329 29.583 13.8672 26.9513 16.5095 25.2352C19.1645 23.5109 22.9078 22.7286 27.8784 24.4899C27.9996 24.5328 28.1186 24.5767 28.2355 24.6215L28.2841 24.4817C28.6565 24.5662 29.1015 24.759 29.5564 24.9965C31.8455 25.8201 36.2325 26.9538 42.0804 27.2747C41.7379 26.7192 41.3109 25.9836 40.9264 25.2332C40.4429 24.2896 40.0071 23.2862 39.9139 22.5868ZM31.3522 26.0891C33.9563 26.8202 37.7911 27.5776 42.5367 27.7985L43.0212 27.8211L42.7584 27.4134C42.4005 26.858 41.8515 25.9422 41.3714 25.0051C41.2566 24.7812 41.1469 24.5581 41.0452 24.3399C42.4941 26.3154 44.1039 27.7818 45.6587 29.1183C45.8926 29.3194 46.1249 29.5173 46.355 29.7133C48.0404 31.1489 49.6086 32.4846 50.8248 34.2412C50.825 35.9624 50.8407 38.0268 51.9249 40.8046C51.9321 40.9748 51.9392 41.1434 51.9463 41.3104C52.1005 44.9549 52.224 47.8721 52.2079 50.2221C52.191 52.6916 52.0195 54.5089 51.5797 55.87C51.1441 57.2179 50.4468 58.115 49.3639 58.755C48.2669 59.4033 46.7588 59.7971 44.6825 60.0947L44.4429 60.1291L44.4695 60.3697C44.701 62.4647 43.7406 67.4053 37.9588 70.2358L36.9138 68.8653C38.0966 68.0063 39.7547 66.6066 40.928 65.0338C42.1607 63.3815 42.9311 61.4323 41.8416 59.7253L41.7746 59.6204L41.6505 59.6106C40.8972 59.5513 39.2001 59.1147 37.4808 57.6236C40.0194 58.39 43.0606 59.2874 45.6548 59.333C47.1299 59.3589 48.496 59.1112 49.5517 58.3781C50.6172 57.6382 51.3294 56.4302 51.5427 54.618C52.1398 49.5429 52.534 42.8325 50.1811 37.2749C49.0018 34.4892 47.1317 31.9912 44.2548 30.1368C41.3944 28.293 37.5545 27.0955 32.4405 26.8681C32.1592 26.6542 31.7785 26.378 31.3522 26.0891ZM32.2618 27.3609L32.3405 27.3642C37.4277 27.58 41.2005 28.7628 43.9839 30.557C46.7656 32.3501 48.5751 34.7639 49.7207 37.4698C52.0177 42.8956 51.6428 49.4879 51.0461 54.5596C50.8459 56.2614 50.1903 57.326 49.2665 57.9674C48.3329 58.6157 47.0881 58.8581 45.6636 58.833C43.0653 58.7874 39.9874 57.858 37.39 57.0737C37.1317 56.9957 36.8782 56.9192 36.6304 56.8451L35.7368 56.5779L36.377 57.2562C38.3343 59.3301 40.4495 59.9783 41.4825 60.0965C42.2983 61.4955 41.7111 63.1479 40.5272 64.7348C39.4056 66.2384 37.81 67.5928 36.6522 68.4372C32.0159 58.9434 33.019 47.2128 33.2444 44.5876L33.2511 44.5098C33.5156 41.4208 32.4132 40.0146 31.692 39.6988L31.2981 39.5263L31.3431 39.9539C31.6814 43.1711 30.8594 45.9536 30.4028 46.9584C26.6322 51.3644 26.0146 56.3564 26.7701 60.7914C27.4646 64.8684 29.3201 68.4858 30.965 70.7792C29.7529 70.363 28.8586 69.4907 28.219 68.5025C27.465 67.3374 27.0797 66.0316 26.9575 65.1926L26.4753 65.1427C25.9633 66.5405 26.3492 68.066 26.9959 69.371C27.6117 70.6134 28.4843 71.6985 29.1418 72.361C29.0071 72.7636 28.7064 73.0447 28.3512 73.237C28.0763 73.3858 27.7796 73.4747 27.531 73.5206C27.8082 69.8396 25.3545 67.2881 24.0398 66.4397C21.8893 64.569 21.0748 62.2242 21.0682 59.7358C21.0615 57.2328 21.8735 54.5862 22.9781 52.1522C24.0816 49.7208 25.4693 47.5187 26.5962 45.9094C27.1593 45.1053 27.6565 44.4503 28.0192 43.9902C28.2005 43.7601 28.3481 43.5789 28.4534 43.4523C28.506 43.389 28.5478 43.3396 28.5779 43.3047C28.6032 43.2752 28.6166 43.2602 28.621 43.2553C28.6224 43.2537 28.6229 43.2532 28.6226 43.2535C28.664 43.2121 28.8761 42.9584 29.182 42.5552C29.4934 42.1448 29.9118 41.5664 30.3689 40.8651C31.2819 39.4644 32.3551 37.5645 33.0357 35.5278C33.7151 33.4944 34.013 31.2948 33.3351 29.3138C33.0997 28.6259 32.7487 27.9701 32.2618 27.3609ZM13.0228 47.2407C13.2599 46.8851 13.4828 46.4992 13.6734 46.0897C13.8164 45.8542 13.9666 45.617 14.1242 45.378C13.5253 47.2093 12.9813 49.4987 12.8461 51.7351C12.6641 54.7451 13.2189 57.7531 15.5015 59.3525L16.1325 59.7946L15.8813 59.0662C14.872 56.14 15.0675 48.009 24.384 39.4604L24.39 39.4548C25.2784 38.5839 26.234 37.462 27.0137 36.2337C27.7919 35.0075 28.4041 33.6607 28.5876 32.3421C28.7721 31.0161 28.5228 29.7118 27.5704 28.6062C26.6246 27.5084 25.0116 26.6371 22.5313 26.1098L22.524 26.1082L22.5167 26.1071C20.6852 25.8303 16.4418 26.3665 12.7628 30.2484C13.5379 28.6726 14.8547 26.9061 16.7819 25.6545C19.296 24.0217 22.8753 23.2476 27.7114 24.9612C30.721 26.0276 32.2395 27.6564 32.862 29.4757C33.4893 31.3089 33.2245 33.3849 32.5615 35.3693C31.8995 37.3503 30.8507 39.2103 29.95 40.5921C29.5002 41.2821 29.0889 41.8507 28.7837 42.253C28.6311 42.4541 28.5052 42.6134 28.4146 42.7253C28.3693 42.7812 28.333 42.825 28.3068 42.856C28.2863 42.8803 28.2749 42.8932 28.2707 42.898C28.2688 42.9001 28.2683 42.9007 28.2689 42.9001C28.1985 42.9706 27.3204 44.0036 26.1866 45.6226C25.049 47.2472 23.6432 49.4769 22.5228 51.9455C21.4037 54.4115 20.5613 57.1331 20.5682 59.7372C20.5751 62.3506 21.4387 64.8469 23.7258 66.8292L23.7395 66.8411L23.7549 66.8509C25.0107 67.654 27.4229 70.1727 27.0041 73.7782L26.9698 74.0741L27.2672 74.0566C27.6043 74.0368 28.1185 73.9315 28.5892 73.6767C29.0628 73.4204 29.5144 72.9992 29.6657 72.343L29.6973 72.2058L29.5964 72.1077C28.9618 71.49 28.0637 70.3994 27.4439 69.1489C27.0129 68.2792 26.7272 67.3547 26.7393 66.467C26.9609 67.1925 27.305 68.0104 27.7993 68.7741C28.5998 70.0112 29.809 71.1264 31.5464 71.4468L32.1924 71.5659L31.7891 71.0475C30.0919 68.8658 28.0024 65.0483 27.263 60.7074C26.5248 56.3739 27.1326 51.5319 30.805 47.2575L30.8276 47.2312L30.8422 47.1997C31.3013 46.21 32.0958 43.5763 31.889 40.4683C32.3691 40.9954 32.9477 42.1924 32.7529 44.4671L32.7457 44.5508C32.5178 47.2044 31.4834 59.2516 36.3353 68.9241C38.9559 74.1482 43.297 78.6864 50.4002 80.6717C58.4502 82.9216 62.6757 86.0285 64.7061 88.9589C66.4353 91.4546 66.5835 93.8359 66.1385 95.4986C65.6842 93.7784 64.7694 91.5575 63.2835 89.6562C61.5357 87.4197 58.9834 85.6103 55.4576 85.6103C52.0442 85.6103 49.8584 85.2495 48.517 84.8084C47.8462 84.5878 47.3949 84.3498 47.1079 84.1336C46.8149 83.9128 46.7177 83.7341 46.6988 83.6395L46.2063 83.6519C45.7698 86.6016 45.5663 91.1016 46.3825 95.0164C47.1952 98.9147 49.0488 102.348 52.8153 102.938C59.0494 103.916 63.0326 101.541 64.8175 99.6233C64.4896 100.567 63.8627 101.662 62.818 102.612C61.3393 103.957 59.0083 105.024 55.4636 104.939L52.5255 104.939L52.6131 105.256C52.9355 106.421 53.4477 108.687 53.7037 111.187C53.8953 113.058 53.9413 115.041 53.666 116.786C53.5391 115.228 53.2757 113.115 52.8715 111.069C52.5746 109.567 52.1998 108.091 51.7432 106.894C51.5148 106.295 51.2637 105.759 50.9879 105.323C50.7136 104.889 50.4049 104.536 50.0549 104.324C46.3606 102.079 45.4248 98.7597 45.2223 95.0021C45.1503 93.6646 45.1716 92.2845 45.1934 90.8806C45.2023 90.3035 45.2113 89.7224 45.2139 89.1385C45.2227 87.1435 45.1562 85.1296 44.7455 83.2021L44.719 83.0775L44.6026 83.0258C43.3191 82.4547 41.4097 81.2978 39.6138 80.2038L39.4626 80.1117C38.6226 79.5999 37.8144 79.1075 37.1206 78.7061C36.3913 78.2842 35.7687 77.9511 35.3642 77.8066L35.1374 78.2472C37.078 79.5962 38.9275 81.1587 40.3955 82.7726C41.8667 84.39 42.9389 86.0416 43.3511 87.5678C43.7593 89.0788 43.5211 90.4572 42.3804 91.5926C41.2234 92.7443 39.1096 93.6752 35.6957 94.1886C35.388 94.1868 34.8763 94.1394 34.339 94.0011C34.0534 93.9276 33.7674 93.8301 33.5036 93.7042C35.2918 93.641 37.5186 93.2636 39.1787 92.2927C40.1486 91.7255 40.9417 90.9456 41.3252 89.8923C41.7094 88.8371 41.6686 87.5458 41.0448 85.9847L41.0409 85.975L41.0363 85.9657C40.8491 85.591 40.4945 84.9815 40.0321 84.3545C39.571 83.7294 38.9924 83.0725 38.3545 82.6165C37.6123 82.0858 36.1879 80.8496 34.8414 79.367C33.4891 77.878 32.2492 76.1768 31.8321 74.7157C31.7139 74.3017 31.5136 73.9918 31.2126 73.8428C30.9077 73.6919 30.5685 73.7395 30.2506 73.8875C29.6258 74.1783 28.9395 74.9183 28.3292 75.8862C27.1004 77.8349 26.0726 80.8798 26.4624 83.7225C26.6195 84.8685 27.1403 86.241 27.8217 87.7732C28.1872 88.595 28.6071 89.48 29.048 90.4092C29.4258 91.2053 29.8189 92.0338 30.2063 92.8827C31.8991 96.5922 33.5463 100.822 33.7285 105.199C33.7344 105.34 33.745 105.475 33.7586 105.605C32.8215 100.824 31.2903 97.6024 29.7877 95.0031C29.3474 94.2413 28.9097 93.5334 28.4923 92.8582L28.4756 92.8311C28.0524 92.1467 27.6511 91.4967 27.2851 90.8526C26.5538 89.5656 25.9701 88.3127 25.6523 86.8916L25.5179 86.2906L25.1953 86.8152C24.8752 87.336 24.4806 88.6052 24.2485 90.7469C24.0255 92.8044 23.9499 95.6929 24.2468 99.5533C22.0012 97.7038 18.7321 92.4643 21.3088 83.7595L21.4513 83.278L20.9812 83.4545C18.8687 84.2474 15.9637 84.1493 14.1277 83.0118C13.2196 82.4491 12.5833 81.6402 12.4131 80.5619C12.3221 79.9858 12.3623 79.321 12.5763 78.5621C12.572 78.6319 12.5688 78.7016 12.5668 78.7712C12.5404 79.6895 12.7209 80.6082 13.2757 81.3178C13.8365 82.0353 14.7482 82.4991 16.0978 82.5639C17.4404 82.6284 19.2311 82.2999 21.5899 81.4254L21.7288 81.3739L22.3282 77.2939L22.0876 77.2526C21.5583 77.1618 20.7395 76.6593 20.1847 75.3441C19.8658 74.5881 19.6363 73.5661 19.6052 72.2116C19.647 72.4271 19.6952 72.6421 19.7504 72.8546C20.148 74.386 20.9287 75.8633 22.389 76.4291L22.655 76.5322L22.7222 76.2549C23.1798 74.3679 23.3614 71.6122 22.3601 69.5316C21.8551 68.4821 21.0471 67.6018 19.827 67.1028C18.7009 66.6423 17.2458 66.5156 15.3904 66.8504C15.7017 66.2112 16.4068 65.3442 17.6367 65.1498L18.3289 65.0404L17.7237 64.687C15.8231 63.5773 13.4785 61.4377 12.1958 58.4667C10.9194 55.51 10.6859 51.7111 13.0228 47.2407ZM13.2314 45.8543C13.7076 44.8215 13.9503 43.6594 13.6668 42.4861C13.5994 42.2253 13.6054 41.8547 13.7041 41.3939C13.8043 40.9268 14.0035 40.3494 14.3416 39.6674C14.6892 38.9663 15.1853 38.1513 15.8759 37.228C15.3022 37.8236 14.7356 38.4732 14.223 39.155C12.7957 41.0533 11.8334 43.139 12.2018 44.9824L12.2094 45.0207L12.205 45.0596C12.0577 46.3569 11.2903 47.1863 10.2357 47.6351C9.19499 48.078 7.87416 48.1533 6.56753 47.9803C5.25772 47.8069 3.93549 47.3805 2.88007 46.792C2.59225 46.6315 2.32051 46.4568 2.07275 46.2694C2.51947 46.9612 3.13454 47.6476 3.94155 48.1932C5.48447 49.2363 7.75811 49.7845 10.968 48.8244C11.434 48.4333 12.0527 47.7894 12.5923 46.985C12.7879 46.6122 13.0006 46.2352 13.2314 45.8543ZM11.6356 38.7674C13.7093 34.1508 16.3445 31.7056 18.8683 30.4339C21.0356 29.3417 23.1007 29.1254 24.6157 29.1201C22.733 28.1749 21.0288 27.9662 19.5251 28.2475C17.7865 28.5728 16.2862 29.5588 15.0695 30.8807C13.8526 32.2029 12.9283 33.8523 12.3445 35.4803C11.929 36.6388 11.6896 37.7761 11.6356 38.7674ZM19.4331 27.7561C21.3078 27.4053 23.4332 27.7701 25.7551 29.1811L25.6132 29.6445C24.1275 29.5728 21.6844 29.5747 19.0933 30.8804C16.5074 32.1834 13.7427 34.8013 11.6462 40.021L11.1659 39.9565C11.0154 38.6579 11.2722 36.9891 11.8738 35.3115C12.4765 33.631 13.4326 31.921 14.7016 30.5421C15.9711 29.1629 17.5624 28.1061 19.4331 27.7561ZM38.2845 32.6011C38.9714 31.917 39.7497 31.4106 40.4548 31.3185L40.6183 31.7792C39.2929 32.5957 38.6027 34.0625 38.3334 35.6266C38.0643 37.1898 38.2247 38.8053 38.5559 39.8524L38.7093 40.3372L38.2317 40.1626C37.0338 39.7244 36.3838 38.9554 36.1589 38.0298C35.9382 37.1216 36.1358 36.1002 36.5448 35.1514C36.9553 34.1991 37.5902 33.2926 38.2845 32.6011ZM37.9395 39.4896C37.6854 38.3963 37.5985 36.9484 37.8407 35.5418C38.0191 34.5049 38.3801 33.4725 38.9997 32.6206C38.8788 32.7237 38.7577 32.8355 38.6374 32.9554C37.9858 33.6043 37.3881 34.4583 37.004 35.3493C36.6184 36.2438 36.4593 37.1485 36.6448 37.9118C36.7973 38.5394 37.1887 39.0977 37.9395 39.4896ZM42.1793 31.7583L42.6585 31.9936C43.04 32.181 43.4637 32.4319 43.877 32.737L45.6604 32.2146L45.0698 33.2744L46.4376 32.9192L45.81 34.5L47.4703 34.2127L46.2179 35.3745L47.5735 35.5885L46.2508 36.1595L47.176 36.7182L46.3369 36.8528L47.2834 37.4883H46.2627L47.0088 38.0336H46.0779L46.8994 38.544H45.374L46.2174 39.4863L44.3744 39.0435C44.0323 39.2536 43.6989 39.3759 43.3836 39.4732C43.2746 39.5069 43.1707 39.5369 43.0702 39.5659C42.8447 39.6309 42.6361 39.6911 42.4236 39.7774C41.8506 40.0102 41.2798 40.4261 40.7145 41.6607L40.4715 42.1912L40.255 41.6493C39.8521 40.641 39.7922 38.1175 42.3746 35.6217L42.3948 35.6021L42.4189 35.5876C42.4186 35.5877 42.4184 35.588 42.4189 35.5876C42.4236 35.5834 42.4632 35.5482 42.5085 35.4353C42.5559 35.3171 42.601 35.1345 42.6218 34.87C42.6633 34.3409 42.6054 33.5114 42.3054 32.2771L42.1793 31.7583ZM45.7967 35.0833L45.8941 34.9929L45.7708 35.0142C45.7797 35.0371 45.7883 35.0602 45.7967 35.0833ZM45.3704 34.2523C45.2661 34.0959 45.1518 33.9454 45.0301 33.8013L45.6091 33.6509L45.3704 34.2523ZM44.5072 33.2567C44.4564 33.2098 44.4051 33.1637 44.3532 33.1186L44.6293 33.0377L44.5072 33.2567ZM45.4852 36.1105C45.4842 35.9355 45.4638 35.7636 45.4265 35.5953C45.3764 35.3688 45.2955 35.1478 45.1891 34.9336C44.9939 34.5404 44.7143 34.1722 44.3879 33.8379C44.1662 33.6108 43.9243 33.4009 43.6754 33.2109C43.4225 33.0178 43.1635 32.8462 42.9131 32.6989C43.1166 33.6813 43.1603 34.3988 43.1203 34.9091C43.0967 35.2089 43.0438 35.444 42.9725 35.6215C42.909 35.7799 42.8215 35.9156 42.7057 35.9971C40.7404 37.9051 40.4454 39.7743 40.5729 40.8445C41.0935 39.9514 41.647 39.5532 42.2354 39.3141C42.4733 39.2175 42.722 39.1457 42.9588 39.0774C43.0537 39.05 43.1466 39.0231 43.2361 38.9955C43.5592 38.8958 43.8738 38.7767 44.1922 38.5669C44.2063 38.5576 44.2205 38.5481 44.2347 38.5385C44.3793 38.4009 44.5093 38.2648 44.6258 38.1303C44.7676 37.9666 44.8892 37.8054 44.9924 37.647C45.105 37.4743 45.1958 37.305 45.2673 37.1393C45.3389 36.9734 45.3912 36.811 45.4266 36.6521C45.4655 36.4776 45.4842 36.3066 45.4852 36.1394C45.4852 36.1392 45.4852 36.1396 45.4852 36.1394V36.1105C45.4852 36.1103 45.4852 36.1107 45.4852 36.1105ZM5.73373 39.5178C3.911 40.243 2.93203 41.0999 2.50085 41.9349C2.07369 42.7622 2.16262 43.6103 2.57134 44.3793C2.9835 45.1547 3.71833 45.84 4.55245 46.2982C5.00216 46.5453 5.47137 46.7213 5.9243 46.8121C4.68535 46.152 3.82993 45.4654 3.30505 44.7767C2.63534 43.8981 2.50175 43.0094 2.81141 42.201C3.11461 41.4096 3.82572 40.7399 4.75304 40.2376C5.40051 39.887 6.16525 39.6111 6.99941 39.4289C6.67381 39.3936 6.30115 39.4158 5.73373 39.5178ZM7.0619 38.9328C7.46142 38.9772 7.812 39.0958 8.24762 39.2594L8.1868 39.742C6.966 39.8748 5.8565 40.2086 4.99116 40.6773C4.12176 41.1482 3.52296 41.7413 3.27832 42.3799C3.04016 43.0016 3.12082 43.7102 3.70271 44.4737C4.29253 45.2475 5.39427 46.0696 7.17695 46.8663L7.93411 47.2047L7.11609 47.3411C6.22993 47.489 5.21099 47.2305 4.3117 46.7364C3.41011 46.2411 2.59637 45.4917 2.12983 44.6139C1.65986 43.7297 1.53996 42.706 2.05659 41.7055C2.56738 40.7164 3.67842 39.7934 5.5727 39.0438L5.59565 39.0347L5.61993 39.0303C6.22787 38.9196 6.66158 38.8882 7.0619 38.9328ZM5.75926 43.5529C5.76625 43.4587 5.77859 43.3675 5.79607 43.279C5.91477 42.6786 6.26405 42.2432 6.71592 41.9398C7.20973 41.6083 7.83325 41.4286 8.44529 41.3464C7.7707 41.1668 7.2477 41.1411 6.85142 41.2153C6.25955 41.326 5.93306 41.6617 5.77848 42.101C5.63337 42.5135 5.63693 43.031 5.75926 43.5529ZM6.75946 40.7238C7.51323 40.5828 8.53727 40.7484 9.88554 41.3268L9.7683 41.8059C8.9019 41.741 7.73944 41.8549 6.99462 42.3549C6.63199 42.5984 6.37513 42.9281 6.28658 43.376C6.19669 43.8306 6.27363 44.4408 6.65075 45.2517L6.24513 45.5317C5.831 45.1073 5.50094 44.4935 5.32067 43.8538C5.14086 43.2159 5.10111 42.5198 5.30682 41.9351C5.51837 41.3338 5.98514 40.8687 6.75946 40.7238ZM44.584 48.853C45.6351 48.639 46.9239 48.6908 47.7871 48.8011L48.0002 48.8284L48.0053 49.0432C48.0238 49.82 47.9362 50.9821 47.6037 51.9382C47.4375 52.4161 47.2032 52.8629 46.872 53.1813C46.5771 53.4646 46.2091 53.6417 45.7666 53.6496C45.5909 54.1446 45.3055 54.5012 44.9454 54.7395C44.5456 55.0043 44.0738 55.1099 43.6016 55.122C42.6633 55.1461 41.6613 54.8028 41.0262 54.4849L40.8881 54.4158V54.2613C40.8881 53.2031 41.0822 52.2653 41.4307 51.5823C41.7304 50.9948 42.1671 50.5592 42.7181 50.4529C42.7262 50.029 42.9139 49.6887 43.218 49.4322C43.5673 49.1376 44.0606 48.9596 44.584 48.853ZM43.5404 49.8144C43.2994 50.0176 43.1776 50.2773 43.2297 50.6426L43.2705 50.9279H42.9822C42.574 50.9279 42.1808 51.2122 41.876 51.8095C41.6149 52.3214 41.441 53.0277 41.3983 53.8578C41.8962 53.6096 42.5083 53.2756 43.0345 52.9287C43.3677 52.709 43.6575 52.4899 43.8611 52.2894C43.963 52.1892 44.037 52.0997 44.0842 52.0229C44.1325 51.9443 44.1425 51.8957 44.1425 51.8724V51.6224H44.3925C44.5332 51.6224 44.7524 51.54 45.0419 51.3535C45.3216 51.1732 45.6317 50.9191 45.9451 50.6299C46.4257 50.1864 46.9001 49.673 47.2639 49.2486C46.4751 49.1817 45.4927 49.1783 44.6837 49.343C44.1938 49.4427 43.7962 49.5986 43.5404 49.8144ZM47.4936 49.7468C47.1437 50.1452 46.7176 50.5974 46.2842 50.9974C45.9602 51.2964 45.6263 51.5717 45.3127 51.7737C45.0794 51.9241 44.8347 52.0491 44.6009 52.0991C44.5774 52.1646 44.5457 52.2268 44.5101 52.2847C44.4345 52.4078 44.3305 52.529 44.2119 52.6457C43.9748 52.8792 43.6544 53.1189 43.3097 53.3462C42.8016 53.6812 42.2211 54.0019 41.731 54.2502C42.2821 54.4648 42.9618 54.6383 43.5888 54.6222C43.9988 54.6117 44.3705 54.5205 44.6694 54.3226C44.9638 54.1278 45.2077 53.8163 45.345 53.3253L45.4014 53.1239L45.6095 53.1437C45.9859 53.1796 46.2813 53.0554 46.5255 52.8208C46.7776 52.5785 46.9785 52.2137 47.1315 51.774C47.352 51.14 47.4581 50.3929 47.4936 49.7468ZM39.5096 49.6063C39.4456 49.6122 39.3251 49.652 39.1071 49.761C39.035 49.797 38.9793 49.8293 38.9374 49.8585C38.8998 49.8847 38.8789 49.9045 38.868 49.9173C38.9065 49.9908 39.0186 50.0609 39.1854 50.0609C39.3541 50.0609 39.467 49.9891 39.5042 49.9147C39.5384 49.8462 39.5489 49.7961 39.5489 49.7549C39.5489 49.716 39.5395 49.6691 39.5096 49.6063ZM39.7541 49.1611C39.8487 49.2123 39.9108 49.2904 39.9515 49.3717C40.012 49.4929 40.0489 49.6195 40.0489 49.7549C40.0489 49.8904 40.012 50.0169 39.9515 50.1381C39.7992 50.443 39.4643 50.5609 39.1854 50.5609C38.9065 50.5609 38.5716 50.443 38.4193 50.1381C38.3793 50.0579 38.3557 49.9665 38.3651 49.8682C38.3745 49.7697 38.415 49.6858 38.4678 49.6172C38.5655 49.4902 38.7221 49.3945 38.8835 49.3138C39.1025 49.2043 39.3006 49.122 39.4699 49.1078C39.5613 49.1002 39.6609 49.1107 39.7541 49.1611ZM80.4247 76.6911C79.9763 77.1395 79.739 77.7519 79.8696 78.3108C79.9574 78.6864 80.1153 78.9785 80.3341 79.1972C80.5528 79.416 80.8448 79.5739 81.2204 79.6617C81.7794 79.7923 82.3918 79.555 82.8402 79.1066C83.2887 78.6581 83.526 78.0458 83.3953 77.4868C83.3075 77.1112 83.1496 76.8192 82.9309 76.6004C82.7121 76.3816 82.4201 76.2237 82.0445 76.136C81.4855 76.0053 80.8731 76.2426 80.4247 76.6911ZM80.0711 76.3375C80.6053 75.8034 81.3861 75.4686 82.1583 75.6491C82.6095 75.7545 82.9895 75.9519 83.2844 76.2469C83.5793 76.5418 83.7767 76.9218 83.8822 77.373C84.0627 78.1452 83.7279 78.926 83.1938 79.4601C82.6596 79.9943 81.8788 80.329 81.1067 80.1486C80.6555 80.0431 80.2754 79.8457 79.9805 79.5508C79.6856 79.2559 79.4882 78.8758 79.3827 78.4246C79.2023 77.6525 79.537 76.8717 80.0711 76.3375ZM53.241 96.6359C53.1702 95.2838 54.3347 94.114 55.6886 94.1891C56.893 94.2559 57.8155 95.1738 57.879 96.3801C57.9497 97.7223 56.7943 98.9105 55.4445 98.8394C54.7891 98.8049 54.2495 98.5615 53.8661 98.1628C53.4839 97.7654 53.2721 97.2297 53.241 96.6359ZM55.6609 94.6883C54.6061 94.6298 53.685 95.5526 53.7403 96.6098C53.766 97.1008 53.9388 97.5171 54.2264 97.8162C54.5128 98.114 54.9283 98.3116 55.4707 98.3401C56.5165 98.3952 57.4351 97.4597 57.3797 96.4064C57.3297 95.4568 56.6122 94.7411 55.6609 94.6883ZM54.533 105.535L55.0978 105.71C55.9493 105.975 56.8289 106.673 57.6109 107.598C58.3972 108.527 59.1045 109.708 59.6035 110.974C60.5944 113.489 60.7953 116.435 59.0048 118.388C54.1716 123.661 51.344 126.79 49.4207 129.994C47.5033 133.188 46.4796 136.467 45.2879 142.052L45.1063 142.903L44.8085 142.086C43.6578 138.927 43.207 130.888 50.3991 123.689C53.9493 120.136 55.8597 117.354 56.486 114.663C57.1095 111.985 56.4705 109.351 54.8007 106.062L54.533 105.535ZM55.5523 106.455C57.0214 109.516 57.5937 112.111 56.973 114.777C56.3138 117.608 54.3189 120.473 50.7528 124.043C44.3424 130.459 44.1622 137.524 45.005 140.998C46.117 135.961 47.1447 132.814 48.992 129.737C50.9469 126.48 53.8146 123.311 58.6362 118.05C60.2299 116.312 60.1054 113.612 59.1383 111.158C58.6583 109.94 57.9785 108.807 57.2291 107.921C56.6799 107.271 56.1037 106.767 55.5523 106.455ZM75.8465 136.197L76.0912 135.767C76.75 136.025 77.7941 136.562 78.811 137.339C79.7008 138.019 80.5843 138.894 81.1648 139.943C81.3654 139.585 81.6353 139.188 81.9533 138.863C82.4069 138.399 83.0346 138.012 83.725 138.265L84.3188 138.483L83.7363 138.73C83.3499 138.894 82.9957 139.32 82.6855 139.962C82.3797 140.595 82.138 141.393 81.951 142.23C81.5773 143.902 81.4322 145.686 81.4135 146.506L80.9136 146.494C80.9749 143.808 80.0278 141.481 78.8997 139.696C77.7707 137.91 76.4687 136.681 75.8465 136.197ZM81.1561 143.819C81.2352 143.267 81.3362 142.688 81.463 142.12C81.654 141.266 81.9059 140.426 82.2353 139.744C82.4055 139.392 82.6025 139.069 82.8316 138.808C82.6585 138.898 82.4842 139.035 82.3107 139.212C81.9016 139.63 81.5698 140.202 81.3919 140.602L81.1635 141.114L80.9352 140.602C80.4241 139.454 79.4875 138.485 78.5074 137.736C78.1545 137.466 77.7983 137.227 77.4582 137.02C78.0456 137.647 78.709 138.459 79.3223 139.429C80.0964 140.653 80.7944 142.136 81.1561 143.819Z" fill="#E8E8E8"/>
<path d="M82.2467 100.628H76.9757V108.096H82.2467V100.628Z" fill="#2A2A2A"/>
<path fill-rule="evenodd" clip-rule="evenodd" d="M69.9019 93.1823H89.2019V113.885H86.8499L89.2019 115.975V143.494L82.4538 134.544V119.61L77.1192 115.462V127.622L69.9019 118.365V93.1823ZM70.9019 94.1823V118.021L76.1192 124.713V113.418L83.4538 119.121V134.21L88.2019 140.506V116.424L84.2192 112.885H88.2019V94.1823H70.9019ZM91.2519 93.1823H110.435V108.021H103.452V100.515H98.2346V122.615L99.991 120.859H108.724L91.2519 143.464V93.1823ZM92.2519 94.1823V140.536L106.687 121.859H100.405L97.2346 125.029V99.5152H104.452V107.021H109.435V94.1823H92.2519ZM76.4757 100.128H82.7468V108.596H76.4757V100.128ZM77.4757 101.128V107.596H81.7468V101.128H77.4757Z" fill="white"/>
<path d="M101.184 119.883L101.273 118.799C101.562 115.676 102.525 113.029 104.162 110.859H100.891L100.821 111.915H99.3926V109.21H105.953V110.859C105.456 111.529 105.041 112.169 104.71 112.78C104.383 113.386 104.117 113.997 103.913 114.613C103.713 115.224 103.554 115.871 103.435 116.555C103.316 117.235 103.216 117.982 103.135 118.799L103.046 119.883H101.184Z" fill="#DA9640"/>
<path d="M109.912 120.037C108.943 120.037 108.176 119.673 107.611 118.945C107.045 118.212 106.763 117.139 106.763 115.727V113.374C106.763 111.966 107.043 110.896 107.604 110.163C108.17 109.425 108.935 109.056 109.9 109.056C110.86 109.056 111.623 109.425 112.188 110.163C112.758 110.896 113.043 111.966 113.043 113.374V115.727C113.043 117.139 112.76 118.212 112.195 118.945C111.634 119.673 110.873 120.037 109.912 120.037ZM109.912 118.395C110.329 118.395 110.646 118.2 110.862 117.809C111.079 117.418 111.187 116.792 111.187 115.932V113.154C111.187 112.308 111.077 111.69 110.856 111.299C110.635 110.903 110.316 110.705 109.9 110.705C109.479 110.705 109.16 110.901 108.943 111.292C108.726 111.683 108.618 112.304 108.618 113.154V115.932C108.618 116.792 108.726 117.418 108.943 117.809C109.164 118.2 109.487 118.395 109.912 118.395Z" fill="#DA9640"/>
<path d="M115.708 119.883L115.797 118.799C116.086 115.676 117.049 113.029 118.685 110.859H115.414L115.344 111.915H113.916V109.21H120.477V110.859C119.979 111.529 119.565 112.169 119.233 112.78C118.906 113.386 118.641 113.997 118.436 114.613C118.237 115.224 118.077 115.871 117.958 116.555C117.839 117.235 117.739 117.982 117.659 118.799L117.569 119.883H115.708Z" fill="#DA9640"/>
</svg>
