<svg width="273" height="324" viewBox="0 0 273 324" fill="none" xmlns="http://www.w3.org/2000/svg">
<path d="M168.691 70.5873C200.303 113.355 219.32 173.344 225 198.395C222.629 191.67 218.25 181.42 216.356 177.135C203.02 217.43 154.12 204.823 152.638 181.09C162.912 198.494 180.793 198.23 188.449 195.923C226.976 181.486 203.184 151.672 186.473 138.57C195.166 141.932 204.419 151.508 207.959 155.875C196.5 108.806 141.854 45.1249 115.593 19.4151C87.9328 -9.01405 69.6571 19.9096 45.4543 40.1805C100.281 -36.7018 114.852 13.7294 168.691 70.5873Z" fill="#2B2B2B"/>
<path d="M149.181 218.172C147.617 210.179 140.586 194.193 124.978 194.193C109.37 194.193 104.809 190.896 104.48 189.248C102.504 202.598 102.652 229.939 119.051 232.51C135.449 235.081 144.818 227.319 147.452 223.116C146.793 228.307 141.377 238.591 124.978 238.196H119.051C120.533 243.552 123.743 258.962 120.533 268.603C120.533 262.67 117.915 240.075 112.383 236.713C95.0948 226.206 103.721 205.564 100.034 188.259C94.107 185.623 82.4995 177.629 79.0419 176.393C96.8236 188.754 111.395 209.025 80.0298 213.722C78.548 213.722 75.0904 213.277 73.1147 211.497C81.5939 211.662 97.1694 208.531 91.6373 194.687C90.8141 193.039 88.4761 189.248 85.7101 187.271C82.2525 184.799 72.6208 175.899 70.645 168.977C68.6693 162.055 57.8027 176.641 59.5315 189.248C60.9145 199.335 75.2387 218.033 76.0783 238.196C76.2028 241.186 77.3131 243.14 76.0783 245.859C72.3738 216.689 59.5314 209.915 56.5678 196.665C55.2507 198.807 53.0115 207.789 54.5921 226.577C49.3234 223.034 40.3667 210.607 46.6891 189.248C36.8104 192.956 19.4732 188.408 29.1544 172.191C26.4377 179.278 26.3389 191.473 47.677 183.562L48.9118 175.157C46.0305 174.663 40.91 169.917 43.4785 154.886C43.0669 159.666 43.7749 169.818 49.8997 172.191C51.9577 163.703 51.4309 147.717 32.8589 151.672C33.2705 150.189 35.0322 147.074 38.7861 146.481C29.9668 141.331 17.0532 126.659 27.8809 105.981C26.5828 107.922 25.0843 109.468 23.968 110.388C8.95237 114.937 2.39949 105.362 1 100.006C2.97574 107.175 24.7089 112.119 25.9438 101.242C24.1656 92.3421 35.2462 81.5473 41.0088 77.2623C31.3277 87.1507 29.8953 93.4133 30.3892 95.3086C31.0784 98.1543 30.4779 100.947 29.3493 103.383C30.3603 101.716 31.5256 100.013 32.8589 98.2751C29.2367 107.092 24.4619 126.457 34.3407 133.379C31.9533 126.457 32.5131 107.719 53.8511 88.1395C61.8364 80.3112 72.2256 63.468 49.8997 58.7216C45.5366 58.0621 34.637 59.512 25.9438 70.5873C28.6604 62.0999 39.6752 47.1027 62.0011 55.0134C89.9085 64.9018 63.9768 96.2974 63.4829 96.7919C62.989 97.2863 32.8589 132.884 53.1102 150.436C56.0738 152.332 61.7541 158.248 60.7663 166.752C62.1657 166.67 65.1129 165.862 65.7056 163.291C62.742 160.407 57.3582 153.156 59.5315 147.223C60.1077 151.178 63.1372 159.435 70.645 160.819C62.8243 150.766 51.4309 125.715 68.4223 105.939C69.4925 103.631 71.4353 97.138 70.645 89.6228C71.9622 90.1996 74.4483 93.0837 73.8556 100.006L73.8404 100.183C73.3232 106.205 70.9791 133.504 81.953 155.381C87.3215 151.59 98.0442 142.12 93.5 135C91.4069 134.835 86.5 133.5 81.953 128.682C94.3539 132.39 113.617 139 115.5 123C118.218 99.9001 119.001 62.4297 72.3737 60.452C70.9465 59.3557 68.1991 57.4189 65.782 56.1526C64.604 55.7276 63.6675 55.3382 62.989 55.0134C63.7731 55.1913 64.7473 55.6105 65.782 56.1526C71.1783 58.0991 81.6419 60.7915 95.5887 61.4409C93.9423 58.8864 90.5506 53.0357 90.1554 50.0692C97.8114 62.9241 108.579 67.106 115 76.5C115 80.4554 115 85.1383 117.5 91.5C119 127 119.5 133.379 100.528 136.098C101.084 141.125 98.7495 152.81 84.9691 159.336L81.953 155.381C87.8606 167.157 97.6278 177.363 113.617 181.832C150.412 192.116 152.657 210.344 149.181 218.172Z" fill="#2B2B2B"/>
<path d="M57.0617 65.6434C50.229 65.3138 34.3407 65.6434 24.7089 89.6228C23.3918 78.2511 36.3164 53.0357 57.0617 65.6434Z" fill="#2B2B2B"/>
<path d="M13.3484 101.983C9.89085 98.4399 8.90298 88.1395 21.0044 93.3309C16.9706 93.0286 9.79206 94.3359 13.3484 101.983Z" fill="#2B2B2B"/>
<path d="M11.6196 88.1395C-5.37178 94.8636 7.42117 107.175 14.8302 105.939C-1.56847 98.6102 5.93936 89.87 17.2999 88.6339C15.3241 87.8923 14.3363 87.6451 11.6196 88.1395Z" fill="#2B2B2B"/>
<path d="M80.7707 57.2383C71.8798 50.4812 48.4672 41.318 25.9438 58.7216C31.3771 48.586 69.3113 28.3642 80.7707 57.2383Z" fill="#2B2B2B"/>
<path d="M84.7221 50.5636C74.6724 37.7087 57.6491 38.9448 50.3936 41.1697C54.3451 38.2855 66.3971 33.4567 82.9934 37.2143C86.6979 34.6598 96.5272 31.479 106.208 39.192C118.31 48.8332 156.837 104.703 157.578 128.682C145.759 95.3086 104.43 28.117 89.4145 39.192C107.279 49.9868 141.574 81.3165 135.845 120.277C132.14 140.054 128.435 136.84 126.707 166.752C124.978 163.044 122.953 148.805 128.682 121.513C134.412 94.2209 112.3 62.8417 100.528 50.5636C97.7291 47.762 90.3036 41.961 82.9934 41.1697C84.1459 42.8177 86.1052 47.0038 84.7221 50.5636Z" fill="#2B2B2B"/>
<path d="M113.864 280.716C130.065 264.499 131.646 255.006 123.99 239.926C131.152 242.151 140.338 259.456 132.634 267.861C110.654 291.84 106.702 296.537 101.269 322C98.717 314.996 97.6633 296.933 113.864 280.716Z" fill="#2B2B2B"/>
<path d="M90.8963 93.3309C90.0731 91.2708 89.8591 85.7663 95.5887 80.2288C96.165 79.8803 96.9717 77.7607 95.5887 72.0709C96.4972 72.517 97.5177 73.1288 98.5 73.8788L101.5 73L100.184 75.361L103.5 74.5L102.111 78L105 77.5L102.697 79.6364L105 80L102.844 80.9305C102.844 80.9537 102.844 80.9768 102.844 81L104.5 82L102.697 82.2893L104.5 83.5H102.301L104 84.7413H101.63L103.5 85.9034H100.749L102.301 87.6383L99.6443 87C96.4887 89.0787 93.5726 87.486 90.8963 93.3309Z" fill="#2B2B2B"/>
<path d="M85.957 89.6228C84.3929 84.6784 84.4752 74.543 90.8963 70.5873C85.2161 71.3293 75.6831 85.8652 85.957 89.6228Z" fill="#2B2B2B"/>
<path d="M89.1676 111.377C88.9519 110.945 88.5 111 87.5 111.5C86.7857 111.857 86.4822 112.182 86.6979 112.613C87.1292 113.477 88.7362 113.477 89.1676 112.613C89.3832 112.182 89.3832 111.809 89.1676 111.377Z" fill="#2B2B2B"/>
<path d="M96.5766 114.097C95.9839 109.943 103.574 109.894 107.443 110.388C107.526 113.849 106.653 120.672 102.504 120.277C101.121 125.221 95.1771 123.655 92.3782 122.254C92.3782 117.557 94.1069 114.097 96.5766 114.097Z" fill="#2B2B2B"/>
<path d="M185.635 171.5C182.605 170.792 179.292 174.105 180 177.135C180.44 179.017 181.618 180.195 183.5 180.635C186.53 181.343 189.843 178.03 189.135 175C188.695 173.118 187.517 171.94 185.635 171.5Z" fill="#2B2B2B"/>
<path d="M129.922 218.172C130.066 220.899 127.705 223.316 124.978 223.172C122.251 223.029 120.629 221.164 120.5 218.695C120.357 215.952 122.73 213.57 125.472 213.722C127.926 213.858 129.793 215.718 129.922 218.172Z" fill="#2B2B2B"/>
<path fill-rule="evenodd" clip-rule="evenodd" d="M142.368 39.7109C150.237 49.1355 158.951 59.5737 169.054 70.2435L169.075 70.2656L169.094 70.2901C200.764 113.137 219.8 173.202 225.488 198.284L224.529 198.561C222.359 192.406 218.496 183.277 216.413 178.507C213.009 188.014 207.574 194.499 201.25 198.512C194.665 202.691 187.146 204.169 180.014 203.622C172.884 203.074 166.121 200.5 161.037 196.546C155.953 192.591 152.521 187.232 152.139 181.122L153.069 180.836C163.176 197.957 180.752 197.713 188.289 195.449C197.85 191.864 203.466 187.354 206.312 182.462C209.152 177.579 209.278 172.239 207.696 166.888C204.52 156.143 194.494 145.494 186.165 138.964L186.653 138.104C191.08 139.816 195.619 143.095 199.478 146.469C202.475 149.09 205.084 151.788 206.937 153.895C200.788 130.922 184.747 104.196 166.924 79.9314C148.564 54.9367 128.356 32.6093 115.244 19.7724L115.235 19.7639C108.366 12.7038 102.129 9.25584 96.2884 8.30911C90.4531 7.36324 84.9346 8.90128 79.4722 11.9712C74.0014 15.0458 68.6203 19.6379 63.0734 24.7538C61.4609 26.2411 59.8337 27.7733 58.1873 29.3235C54.1858 33.0914 50.0708 36.9663 45.7754 40.5638L45.0473 39.8902C58.7632 20.6567 70.0105 9.3108 80.0371 4.05829C85.0614 1.42629 89.7889 0.318968 94.3677 0.523903C98.9445 0.728747 103.337 2.24304 107.696 4.80004C116.393 9.90159 125.026 19.1994 134.813 30.7139C137.252 33.583 139.764 36.5914 142.368 39.7109ZM48.3561 37.0228C60.9214 19.9128 71.2954 9.76658 80.5012 4.94411C85.3942 2.38086 89.9473 1.32706 94.323 1.5229C98.7007 1.71884 102.936 3.16723 107.19 5.66259C115.72 10.6658 124.251 19.8315 134.051 31.3615C136.48 34.2189 138.985 37.2197 141.586 40.3343C149.453 49.7571 158.189 60.2219 168.307 70.909C196.901 109.605 215.18 162.443 222.573 190.618C220.433 185.274 218.073 179.782 216.814 176.933L216.289 175.746L215.882 176.978C212.58 186.953 207.091 193.622 200.715 197.668C194.334 201.717 187.035 203.158 180.09 202.624C173.142 202.091 166.569 199.581 161.651 195.756C157.372 192.428 154.366 188.123 153.421 183.269C163.998 198.996 181.103 198.659 188.593 196.402L188.609 196.397L188.624 196.391C198.318 192.759 204.171 188.13 207.176 182.965C210.188 177.788 210.294 172.149 208.655 166.604C205.788 156.905 197.555 147.389 189.915 140.763C193.006 142.493 196.07 144.818 198.82 147.222C202.64 150.562 205.818 154.027 207.571 156.19L208.445 155.757C202.691 132.122 186.114 104.368 167.73 79.3394C149.339 54.3016 129.096 31.9356 115.947 19.0621C108.988 11.9104 102.569 8.31409 96.4484 7.32199C90.3212 6.32881 84.5717 7.95815 78.9823 11.0994C73.4013 14.2359 67.9467 18.8987 62.3954 24.0187C60.7668 25.5209 59.1303 27.0618 57.4788 28.6169C54.5011 31.4208 51.4744 34.2709 48.3561 37.0228ZM105.897 39.583C96.4318 32.0422 86.8512 35.1615 83.2773 37.6259L83.0969 37.7504L82.8831 37.702C69.4634 34.6636 59.0735 37.2943 53.617 39.8844C57.1849 39.2321 61.79 38.9556 66.5886 39.7179C72.8501 40.7126 79.4678 43.4818 84.5206 49.5194C84.8429 48.1173 84.6947 46.6377 84.3262 45.2808C83.8815 43.6435 83.1298 42.2371 82.5837 41.4562L81.9529 40.5541L83.0473 40.6726C86.8051 41.0794 90.5616 42.7675 93.7126 44.6857C96.8677 46.6065 99.4551 48.7821 100.882 50.2102L100.889 50.2175C106.806 56.3888 115.309 67.3447 121.617 80.1876C127.922 93.0221 132.07 107.811 129.172 121.616C126.313 135.234 125.392 145.582 125.398 152.976C125.402 158.022 125.838 161.671 126.374 164.039C127.243 150.918 128.536 144.691 130.055 139.571C130.478 138.15 130.914 136.821 131.362 135.458C132.63 131.6 133.988 127.472 135.351 120.194C138.187 100.889 131.114 83.4491 121.071 69.464C111.025 55.4746 98.0386 44.9874 89.1561 39.6199L88.5163 39.2333L89.1179 38.7896C91.1615 37.2823 93.6303 37.1368 96.3246 38.0132C99.0046 38.885 101.955 40.7789 105.062 43.429C111.281 48.7333 118.253 57.1777 125.105 66.9824C137.841 85.2079 150.236 108.241 156.682 124.84C155.811 119.534 153.586 113.102 150.484 106.142C146.591 97.4084 141.339 87.8958 135.728 78.8231C130.118 69.7514 124.153 61.1281 118.839 54.1737C113.514 47.2058 108.869 41.9511 105.897 39.583ZM82.8926 36.6792C86.8574 34.0602 96.7764 31.0382 106.52 38.8009C109.598 41.2535 114.308 46.5979 119.633 53.5665C124.969 60.5485 130.952 69.199 136.579 78.2971C142.205 87.3944 147.48 96.9479 151.397 105.735C155.308 114.508 157.889 122.57 158.078 128.666L157.107 128.849C151.215 112.214 137.952 87.1122 124.285 67.5552C117.45 57.7748 110.536 49.412 104.413 44.1898C101.35 41.5767 98.5156 39.7775 96.0152 38.9642C93.8323 38.2541 91.9414 38.3043 90.3549 39.181C99.308 44.7227 112.001 55.1196 121.883 68.8807C132.02 82.9968 139.229 100.698 136.339 120.35L136.338 120.359L136.336 120.369C134.959 127.723 133.575 131.933 132.302 135.804C131.857 137.156 131.426 138.467 131.014 139.856C129.423 145.215 128.069 151.848 127.206 166.781L126.254 166.964C125.342 165.007 124.404 160.43 124.398 152.977C124.392 145.502 125.323 135.084 128.193 121.41C131.025 107.922 126.982 93.3761 120.72 80.6285C114.463 67.892 106.026 57.0212 100.171 50.9136C98.7981 49.5401 96.275 47.4164 93.1926 45.5399C90.405 43.8429 87.192 42.3678 83.9809 41.8134C84.4577 42.6675 84.9553 43.7819 85.2912 45.0187C85.7681 46.7746 85.9325 48.8293 85.1883 50.7447L84.8699 51.5643L84.3283 50.8716C79.3999 44.5674 72.7591 41.7107 66.4317 40.7055C60.0958 39.699 54.1032 40.5551 50.5403 41.6477L50.0989 40.7658C54.1555 37.805 66.2711 32.9796 82.8926 36.6792ZM28.2342 56.4369C29.9305 54.5624 32.4253 52.5108 35.4602 50.575C39.9192 47.7308 45.4766 45.18 51.2115 43.8381C56.9495 42.4955 62.8265 42.3716 67.9553 44.3306C72.6615 46.1281 76.7841 49.6964 79.6076 55.7946C70.0943 49.4041 49.0335 42.2191 28.2342 56.4369ZM68.3121 43.3964C73.707 45.457 78.3237 49.717 81.2355 57.0539L81.8979 58.723L80.4682 57.6364C71.6849 50.961 48.5311 41.9006 26.2496 59.1172L25.5032 58.4853C26.9229 55.837 30.4005 52.6161 34.9224 49.7319C39.4622 46.8362 45.1234 44.2357 50.9837 42.8644C56.8408 41.4939 62.9356 41.3428 68.3121 43.3964ZM89.6599 50.1352L90.5851 49.8134C94.3706 56.1694 98.926 60.3859 103.367 64.2033C103.895 64.657 104.421 65.1055 104.946 65.5518C108.818 68.8489 112.544 72.021 115.413 76.2178L115.5 76.3454V76.5C115.5 80.4407 115.501 85.0459 117.965 91.3171L117.996 91.3951L118 91.4789C118.018 91.9043 118.035 92.3255 118.053 92.7427C118.404 101.023 118.686 107.689 118.649 113.066C118.61 118.708 118.221 122.983 117.167 126.246C116.104 129.535 114.363 131.801 111.649 133.405C109.052 134.94 105.594 135.85 101.068 136.525C101.447 141.954 98.7666 153.355 85.1832 159.788L85.0306 159.86C91.0236 169.493 100.093 177.533 113.752 181.35C132.211 186.51 142.095 193.686 146.912 200.638C151.735 207.599 151.449 214.297 149.638 218.375L148.995 219.823L148.69 218.268C147.92 214.332 145.798 208.414 141.952 203.493C138.114 198.581 132.587 194.693 124.978 194.693C117.145 194.693 112.044 193.866 108.843 192.813C107.243 192.287 106.1 191.699 105.326 191.115C105.126 190.965 104.947 190.812 104.79 190.658C103.943 197.268 103.659 206.638 105.364 214.819C107.195 223.601 111.259 230.782 119.128 232.016C135.33 234.556 144.501 226.883 147.029 222.851L147.948 223.179C147.605 225.886 146.034 229.866 142.454 233.121C138.863 236.387 133.282 238.895 124.972 238.696H119.704C120.449 241.531 121.502 246.404 122.049 251.741C122.637 257.488 122.647 263.837 121.007 268.761L120.033 268.603C120.033 265.677 119.383 258.578 118.042 251.79C117.371 248.398 116.532 245.104 115.523 242.458C115.018 241.134 114.476 239.986 113.899 239.072C113.318 238.153 112.722 237.504 112.123 237.14C103.274 231.762 101.078 223.772 100.609 215.062C100.443 211.978 100.492 208.778 100.542 205.566C100.562 204.26 100.582 202.953 100.588 201.651C100.608 197.213 100.461 192.808 99.597 188.611C96.6043 187.244 92.3106 184.64 88.3519 182.228L88.0101 182.02C86.8061 181.286 85.6361 180.574 84.5438 179.92C87.0714 181.992 89.4317 184.193 91.4786 186.444C94.8789 190.182 97.4464 194.091 98.4486 197.801C99.4591 201.542 98.8771 205.098 95.9609 208.001C93.0817 210.866 87.9839 213.037 80.104 214.217L80.0671 214.222H80.0299C79.2491 214.222 77.9723 214.106 76.6329 213.761C75.2994 213.418 73.8531 212.835 72.7801 211.869L71.784 210.971L73.1245 210.997C77.3244 211.079 83.2306 210.339 87.3779 207.914C89.4415 206.707 91.0362 205.103 91.7997 203.006C92.5603 200.917 92.5236 198.262 91.1809 194.892C90.7793 194.091 90.0082 192.766 88.9999 191.399C87.9813 190.018 86.7416 188.623 85.4194 187.677C83.6563 186.417 80.3579 183.549 77.2518 180.129C74.1572 176.721 71.186 172.694 70.1643 169.114C69.9368 168.317 69.6126 167.943 69.3076 167.792C69.0102 167.645 68.5995 167.646 68.043 167.905C66.9077 168.433 65.4821 169.899 64.1221 172.056C61.4185 176.343 59.1828 183.024 60.0269 189.18C60.3622 191.625 61.4894 194.628 63.0393 198.113C63.8742 199.99 64.8152 201.973 65.8088 204.066C66.6661 205.873 67.5626 207.761 68.4637 209.736C72.3269 218.201 76.1539 227.991 76.578 238.175C76.6079 238.894 76.6973 239.555 76.7984 240.194C76.8254 240.365 76.8536 240.535 76.8817 240.705C76.9575 241.165 77.0331 241.623 77.0849 242.072C77.2302 243.33 77.2006 244.597 76.5337 246.066L75.8046 247.672L75.5824 245.922C73.7401 231.415 69.63 222.492 65.6125 215.542C64.6178 213.821 63.6284 212.221 62.6762 210.681L62.6415 210.625C61.68 209.069 60.7557 207.573 59.9111 206.086C58.4573 203.528 57.2301 200.983 56.434 198.171C55.9273 199.589 55.3675 201.954 54.9905 205.433C54.4678 210.257 54.3023 217.166 55.0904 226.535L55.1778 227.573L54.3132 226.992C48.9293 223.371 40.0891 211.023 45.9435 190.033C40.9905 191.581 34.5713 191.248 30.3236 188.617C28.0456 187.205 26.3722 185.117 25.927 182.297C25.4841 179.492 26.2698 176.048 28.7252 171.935L29.6214 172.37C28.957 174.103 28.4576 176.137 28.4017 178.084C28.3457 180.035 28.7356 181.845 29.7892 183.193C30.8306 184.525 32.5823 185.484 35.4229 185.62C38.2271 185.755 42.0626 185.084 47.2256 183.196L48.3505 175.539C46.7872 175.077 44.9306 173.606 43.6909 170.667C42.322 167.422 41.692 162.373 42.9858 154.802L43.9768 154.929C43.7745 157.278 43.8485 160.951 44.722 164.315C45.5442 167.482 47.0394 170.249 49.5483 171.49C50.459 167.335 50.6913 161.693 48.6651 157.482C47.6127 155.296 45.9551 153.501 43.4568 152.479C40.949 151.453 37.5426 151.186 32.9631 152.161L32.1567 152.333L32.3772 151.539C32.7724 150.115 34.3093 147.31 37.4979 146.276C33.2291 143.521 28.305 138.734 25.507 132.252C22.8322 126.056 22.1141 118.342 25.7232 109.439C25.2111 109.966 24.7216 110.415 24.2862 110.774L24.2089 110.838L24.1131 110.867C16.4804 113.179 10.9286 111.915 7.09803 109.326C3.28965 106.751 1.24095 102.905 0.516357 100.132L1.48215 99.8727C1.92206 101.469 3.50425 103.036 5.80094 104.316C8.07569 105.584 10.9549 106.517 13.8155 106.895C16.6824 107.275 19.4774 107.092 21.6075 106.185C23.689 105.3 25.1325 103.731 25.4381 101.261C24.5476 96.6102 26.9827 91.5652 30.249 87.221C33.5522 82.8277 37.8002 79.0252 40.7106 76.8611L41.3662 77.6121C36.5522 82.5292 33.8089 86.5249 32.3314 89.505C31.5927 90.995 31.1734 92.225 30.9677 93.1846C30.7599 94.1543 30.7772 94.8143 30.8731 95.1825L30.8753 95.1909C31.273 96.8327 31.26 98.4512 30.9753 99.9914C31.4463 99.3229 31.9417 98.6493 32.4623 97.9708L33.3215 98.4651C31.5249 102.838 29.4435 109.829 29.0361 116.568C28.6638 122.726 29.6953 128.518 33.4316 132.001C31.5759 123.927 33.4568 106.177 53.5072 87.7767C55.4788 85.8429 57.5973 83.3541 59.3201 80.6399C61.0473 77.9187 62.3582 75 62.747 72.2059C63.1338 69.4266 62.6088 66.7847 60.6801 64.546C58.7396 62.2937 55.3261 60.3885 49.8105 59.2138C45.6054 58.5851 34.9034 59.9827 26.3372 70.896L25.4677 70.4349C26.8536 66.1049 30.3471 60.1282 36.3467 56.2317C42.3715 52.3189 50.8708 50.5391 62.1682 54.5421C62.4468 54.6409 62.7203 54.7418 62.9887 54.8448L63.0997 54.5258C63.9398 54.7163 64.9483 55.1531 65.9837 55.6937C71.2175 57.5776 81.2623 60.172 94.652 60.8932C93.8619 59.6175 92.8587 57.8953 91.958 56.1376C90.857 53.989 89.8703 51.7143 89.6599 50.1352ZM69.7004 57.9326C75.6277 59.6316 84.51 61.4256 95.5656 61.9403L96.5347 61.9854L96.0091 61.17C95.1932 59.9041 93.9423 57.8172 92.8479 55.6815C92.4748 54.9533 92.1243 54.2277 91.8165 53.5326C95.214 58.3096 99.0306 61.7945 102.715 64.9616C103.247 65.4191 103.776 65.8695 104.3 66.3157C108.142 69.5882 111.724 72.6394 114.5 76.6553C114.501 80.578 114.532 85.2759 117.004 91.6046C117.021 91.9961 117.037 92.384 117.053 92.7683C117.404 101.064 117.686 107.707 117.649 113.059C117.61 118.683 117.22 122.829 116.215 125.938C115.219 129.021 113.622 131.078 111.14 132.544C108.631 134.027 105.186 134.925 100.457 135.603L99.9781 135.672L100.031 136.153C100.562 140.954 98.3575 152.255 85.1198 158.709L82.6634 155.487C85.3565 153.538 89.1601 150.336 91.8446 146.738C94.6482 142.98 96.3767 138.578 93.9216 134.731L93.7876 134.521L93.5394 134.502C91.7754 134.363 87.7744 133.325 83.7676 129.751C89.6085 131.515 96.6626 133.626 102.662 133.731C106.013 133.79 109.107 133.227 111.493 131.57C113.899 129.899 115.513 127.169 115.997 123.058C117.356 111.505 118.251 96.2444 112.902 83.6103C110.222 77.2793 105.973 71.6041 99.4364 67.3908C92.933 63.1987 84.197 60.4742 72.5527 59.9593C71.8336 59.4118 70.8236 58.6817 69.7004 57.9326ZM71.7287 60.59C71.8491 60.6804 71.9629 60.7668 72.0693 60.8485L72.1947 60.9449L72.3527 60.9516C83.9433 61.4432 92.5452 64.1385 98.8947 68.2313C105.241 72.3218 109.368 77.8288 111.981 84.0001C117.218 96.3705 116.362 111.395 115.004 122.942C114.546 126.831 113.046 129.275 110.923 130.749C108.78 132.236 105.93 132.789 102.68 132.732C96.7544 132.627 89.7377 130.509 83.8265 128.724C83.2381 128.546 82.6607 128.372 82.0964 128.203L80.3092 127.668L81.5895 129.025C86.0555 133.757 90.8812 135.217 93.2046 135.474C95.1105 138.704 93.7495 142.512 91.0431 146.14C88.4622 149.599 84.784 152.711 82.1399 154.632C71.534 132.986 73.825 106.208 74.3387 100.225L74.3538 100.048C74.9549 93.0293 72.448 89.8665 70.8457 89.1648L70.0579 88.8198L70.1479 89.6751C70.9205 97.0223 69.0405 103.376 67.9973 105.666C59.4238 115.68 58.0185 127.025 59.7363 137.109C61.333 146.482 65.6292 154.788 69.3996 159.992C66.5178 159.068 64.4061 157.027 62.9088 154.713C61.186 152.051 60.3058 149.069 60.0263 147.151L59.0621 147.051C57.906 150.207 58.7752 153.658 60.2443 156.622C61.6517 159.462 63.6507 161.94 65.1465 163.442C64.8396 164.401 64.1315 165.066 63.3006 165.515C62.6348 165.876 61.9142 166.083 61.3246 166.184C61.9998 157.786 56.4009 151.963 53.4109 150.035C48.4948 145.761 46.6332 140.401 46.6181 134.718C46.6029 129.006 48.4556 122.97 50.9725 117.424C53.487 111.884 56.6486 106.867 59.2156 103.201C60.4985 101.369 61.6311 99.877 62.4576 98.8285C62.8708 98.3042 63.2072 97.8913 63.4471 97.6026C63.5672 97.4582 63.6627 97.3453 63.7314 97.2655C63.8065 97.1782 63.8374 97.1446 63.8367 97.1452C63.927 97.0549 64.407 96.4814 65.1041 95.5625C65.8121 94.6293 66.7636 93.314 67.8032 91.719C69.88 88.5327 72.3201 84.213 73.8668 79.5838C75.4113 74.9616 76.0849 69.971 74.5487 65.4816C73.955 63.7467 73.0365 62.1011 71.7287 60.59ZM28.3117 106.236C28.8512 105.427 29.358 104.549 29.7912 103.618C30.2031 102.94 30.6409 102.256 31.1058 101.565C29.6814 105.806 28.3575 111.223 28.0379 116.508C27.624 123.355 28.8886 130.169 34.0539 133.788L35.3159 134.673L34.8135 133.216C32.5049 126.522 32.9637 107.984 54.1893 88.5079L54.1954 88.5023L54.2013 88.4966C56.2206 86.517 58.3927 83.9671 60.1644 81.1758C61.9333 78.3889 63.3216 75.3323 63.7375 72.3438C64.1554 69.3404 63.5906 66.3923 61.4377 63.8933C59.2982 61.41 55.6424 59.4313 50.0038 58.2325L49.9892 58.2294L49.9745 58.2272C45.7753 57.5925 35.9506 58.8442 27.5213 67.9638C29.2604 64.2668 32.3251 60.036 36.8914 57.0704C42.6346 53.3404 50.8057 51.577 61.8342 55.4847C68.7012 57.9179 72.1769 61.6392 73.6026 65.8053C75.0376 69.9991 74.4302 74.7424 72.9184 79.2669C71.4089 83.7845 69.0176 88.0245 66.9655 91.1729C65.9406 92.7453 65.0031 94.0411 64.3075 94.9581C63.9596 95.4166 63.6726 95.7798 63.4659 96.0351C63.3624 96.1628 63.2795 96.2628 63.2195 96.3339C63.1671 96.3959 63.1399 96.4265 63.1318 96.4356C63.1296 96.4381 63.1288 96.439 63.1293 96.4385C62.9734 96.5945 60.9772 98.942 58.3965 102.627C55.808 106.324 52.6102 111.396 50.0619 117.011C47.516 122.621 45.6024 128.806 45.6181 134.721C45.6338 140.654 47.5935 146.317 52.7829 150.814L52.8104 150.838L52.841 150.858C55.7128 152.694 61.2274 158.45 60.2697 166.695L60.201 167.286L60.7958 167.251C61.555 167.207 62.7154 166.969 63.7766 166.395C64.8436 165.817 65.8544 164.872 66.1929 163.404L66.2562 163.129L66.0544 162.933C64.6051 161.522 62.5553 159.033 61.1403 156.178C60.0881 154.055 59.4115 151.782 59.5448 149.617C60.0398 151.359 60.8548 153.38 62.0693 155.257C63.8852 158.063 66.6236 160.586 70.5545 161.311L71.8464 161.549L71.0398 160.512C67.1703 155.538 62.4079 146.837 60.7221 136.941C59.0389 127.06 60.4245 116.015 68.8016 106.264L68.8468 106.212L68.876 106.149C69.9262 103.885 71.7556 97.8122 71.2395 90.6662C72.3747 91.8077 73.8196 94.5661 73.3575 99.9629L73.3413 100.152C72.8227 106.191 70.469 133.602 81.5062 155.605C87.4651 167.484 97.3339 177.8 113.483 182.314C131.818 187.438 141.455 194.518 146.09 201.208C150.125 207.031 150.393 212.587 149.292 216.401C148.283 212.46 146.188 207.289 142.74 202.877C138.77 197.797 132.978 193.693 124.978 193.693C117.203 193.693 112.219 192.871 109.155 191.863C107.624 191.36 106.589 190.815 105.927 190.317C105.254 189.81 105.018 189.39 104.97 189.15L103.985 189.175C102.992 195.885 102.53 206.121 104.385 215.023C106.234 223.892 110.444 231.667 118.973 233.004C133.406 235.267 142.522 229.623 146.456 225.238C145.738 227.464 144.284 230.105 141.781 232.381C138.4 235.456 133.076 237.891 124.99 237.696L118.394 237.696L118.569 238.329C119.304 240.985 120.471 246.149 121.054 251.843C121.511 256.304 121.605 261.051 120.874 265.164C120.605 261.578 119.992 256.502 119.023 251.597C118.347 248.178 117.495 244.822 116.457 242.101C115.938 240.741 115.369 239.526 114.744 238.538C114.122 237.554 113.426 236.762 112.642 236.285C104.204 231.157 102.069 223.573 101.607 215.008C101.443 211.961 101.492 208.815 101.541 205.618C101.562 204.305 101.582 202.983 101.588 201.655C101.608 197.115 101.457 192.536 100.523 188.155L100.47 187.906L100.238 187.803C97.3104 186.5 92.959 183.864 88.8722 181.374L88.5265 181.164C86.6146 179.999 84.7758 178.878 83.1976 177.965C81.5363 177.004 80.1243 176.249 79.2103 175.923L78.7566 176.804C83.178 179.877 87.3927 183.438 90.7389 187.117C94.0916 190.802 96.5406 194.572 97.4832 198.062C98.4177 201.521 97.8729 204.686 95.2554 207.292C92.6053 209.93 87.7738 212.052 79.9932 213.222C79.2877 213.218 78.1144 213.11 76.8822 212.793C76.1398 212.602 75.3937 212.339 74.7214 211.99C78.8304 211.875 84.0316 211.029 87.8828 208.777C90.0814 207.491 91.8733 205.727 92.7393 203.348C93.6067 200.966 93.5174 198.044 92.1017 194.501L92.094 194.482L92.0847 194.464C91.6603 193.614 90.855 192.23 89.8047 190.806C88.757 189.385 87.4448 187.896 86.001 186.864C84.3065 185.652 81.0603 182.835 77.9921 179.456C74.9125 176.066 72.08 172.183 71.1259 168.84C70.8595 167.907 70.4119 167.223 69.7512 166.896C69.0829 166.565 68.3341 166.666 67.621 166.998C66.2172 167.652 64.6637 169.322 63.2762 171.522C60.4848 175.949 58.1516 182.865 59.0362 189.316C59.3925 191.915 60.5744 195.031 62.1256 198.519C62.9578 200.391 63.9127 202.403 64.9157 204.517C65.7756 206.329 66.6707 208.216 67.5539 210.151C71.4084 218.597 75.1633 228.238 75.5789 238.217C75.6112 238.993 75.7073 239.697 75.8108 240.351C75.8401 240.536 75.8698 240.716 75.8987 240.891C75.973 241.342 76.0427 241.764 76.0915 242.187C76.113 242.373 76.1301 242.557 76.1413 242.741C74.1183 229.851 70.2583 221.581 66.4782 215.042C65.4762 213.308 64.4803 211.697 63.5299 210.16L63.4921 210.099C62.5289 208.541 61.6145 207.06 60.7805 205.592C59.1139 202.659 57.7816 199.8 57.0559 196.555L56.7871 195.354L56.142 196.403C55.4217 197.574 54.5245 200.451 53.9963 205.325C53.4862 210.032 53.315 216.656 54.0051 225.521C48.8668 221.385 41.2474 209.394 47.1687 189.39L47.4537 188.427L46.5135 188.78C41.6884 190.591 35.0518 190.37 30.8502 187.766C28.7692 186.477 27.3061 184.619 26.9147 182.141C26.6813 180.663 26.8245 178.934 27.4771 176.938C27.4384 177.311 27.4128 177.684 27.4021 178.055C27.3423 180.137 27.7519 182.21 29.0014 183.809C30.2629 185.422 32.3176 186.472 35.3749 186.619C38.4185 186.765 42.4852 186.021 47.8509 184.031L48.1287 183.928L49.4776 174.747L48.9965 174.665C47.7628 174.453 45.8822 173.289 44.6123 170.278C43.8183 168.396 43.2683 165.799 43.2793 162.292C43.4029 163.053 43.5593 163.816 43.7541 164.566C44.6576 168.046 46.4265 171.381 49.7191 172.657L50.2512 172.863L50.3857 172.309C51.4259 168.019 51.8355 161.764 49.5662 157.049C48.4227 154.673 46.595 152.682 43.8354 151.553C41.2605 150.5 37.9196 150.216 33.6411 151.007C34.3255 149.527 35.9568 147.434 38.8643 146.975L40.2489 146.756L39.0383 146.049C34.7015 143.517 29.352 138.636 26.4251 131.856C23.5105 125.104 22.9801 116.433 28.3117 106.236ZM28.9073 103.147C29.9967 100.786 30.5552 98.1225 29.9043 95.4302C29.7545 94.8509 29.7662 94.0191 29.9899 92.9751C30.2164 91.9184 30.6677 90.6093 31.4355 89.0608C32.3342 87.2481 33.6706 85.0989 35.6002 82.6314C34.029 84.1985 32.4502 85.9573 31.0483 87.822C27.7966 92.1468 25.5895 96.9163 26.4342 101.144L26.4495 101.22L26.4407 101.298C26.1086 104.223 24.3805 106.092 21.9991 107.106C19.6452 108.107 16.6519 108.28 13.6842 107.887C10.7102 107.493 7.70844 106.525 5.31395 105.189C4.53768 104.757 3.81462 104.279 3.17388 103.763C4.20968 105.457 5.68232 107.161 7.6581 108.497C11.1923 110.886 16.3947 112.135 23.7267 109.939C24.7943 109.045 26.2137 107.569 27.4506 105.725C27.8962 104.875 28.3812 104.016 28.9073 103.147ZM25.1276 87.3425C29.8654 76.6287 35.9203 70.9882 41.7101 68.0707C46.7701 65.5209 51.5853 65.0732 55.0521 65.0873C50.6522 62.8181 46.6702 62.3072 43.1615 62.9637C39.1852 63.7076 35.7569 65.9622 32.9799 68.9795C30.2022 71.9975 28.0936 75.7609 26.7618 79.4744C25.7631 82.2594 25.2094 84.9931 25.1276 87.3425ZM42.9776 61.9807C47.2262 61.1858 52.0477 62.0111 57.3215 65.2161L57.0378 66.1429C53.6512 65.9795 48.0749 65.9833 42.1601 68.9638C36.2557 71.939 29.9512 77.9132 25.173 89.8091L24.2124 89.6803C23.8715 86.7377 24.4532 82.9496 25.8205 79.1368C27.19 75.3182 29.3621 71.4336 32.2441 68.3022C35.1268 65.1702 38.7371 62.7741 42.9776 61.9807ZM85.9307 72.9919C87.4906 71.4384 89.2489 70.2982 90.8317 70.0915L91.1587 71.013C88.1179 72.8862 86.5398 76.2477 85.925 79.8191C85.3106 83.3884 85.6763 87.0775 86.4338 89.472L86.7406 90.4417L85.7854 90.0924C83.0776 89.102 81.6159 87.368 81.1099 85.2856C80.6124 83.2379 81.0569 80.9288 81.9848 78.7762C82.9158 76.6167 84.356 74.5603 85.9307 72.9919ZM85.1982 88.7549C84.5956 86.259 84.379 82.9055 84.9395 79.6494C85.3781 77.1021 86.3006 74.5723 87.9233 72.5616C87.4951 72.8937 87.0634 73.2752 86.6364 73.7005C85.1472 75.1836 83.7812 77.1352 82.9031 79.1721C82.022 81.216 81.6546 83.2918 82.0817 85.0495C82.4429 86.5365 83.3856 87.8514 85.1982 88.7549ZM94.8508 71.1514L95.8092 71.6221C96.6827 72.051 97.654 72.6271 98.6002 73.3284L102.531 72.1769L101.19 74.5833L104.329 73.7683L102.905 77.3552L106.576 76.7198L103.792 79.303L106.783 79.7752L103.867 81.0336L105.927 82.2775L104.03 82.5819L106.142 84H103.833L105.532 85.2413H103.382L105.252 86.4034H101.867L103.743 88.4987L99.7343 87.5358C98.9539 88.0188 98.1927 88.2988 97.4701 88.5219C97.2247 88.5977 96.9897 88.6655 96.7616 88.7313C96.2464 88.8799 95.7661 89.0184 95.2789 89.2163C93.9557 89.7539 92.6442 90.7149 91.3511 93.5391L90.8652 94.6002L90.4322 93.5165C89.5263 91.2495 89.3804 85.5336 95.2414 79.8693L95.2819 79.8301L95.3301 79.801C95.3295 79.8013 95.337 79.7968 95.3511 79.7831C95.3652 79.7695 95.3841 79.7484 95.4067 79.7174C95.4522 79.6549 95.5069 79.5593 95.5624 79.421C95.6736 79.1438 95.7775 78.7208 95.8251 78.1137C95.9204 76.8995 95.787 75.0032 95.103 72.189L94.8508 71.1514ZM100.67 86.732L100.86 86.7779L100.747 86.6509C100.721 86.6779 100.696 86.705 100.67 86.732ZM102.954 78.7159L103.424 78.2802L102.83 78.383C102.874 78.493 102.915 78.604 102.954 78.7159ZM102.029 76.8512C101.754 76.4269 101.446 76.0214 101.115 75.636L102.672 75.2317L102.029 76.8512ZM100.066 74.5462C99.8989 74.39 99.7288 74.238 99.5566 74.0903L100.469 73.8231L100.066 74.5462ZM99.4716 86.5138C99.804 86.198 100.103 85.8852 100.371 85.576C100.695 85.2012 100.974 84.8317 101.211 84.4683C101.469 84.072 101.678 83.683 101.842 83.3019C102.007 82.9205 102.127 82.5465 102.209 82.1805C102.299 81.7778 102.342 81.3832 102.344 80.997C102.344 80.9758 102.344 80.9547 102.344 80.9335C102.342 80.5294 102.295 80.1328 102.209 79.7445C102.093 79.2227 101.907 78.7145 101.663 78.2223C101.215 77.3193 100.573 76.4752 99.8264 75.7104C99.3189 75.1906 98.7656 74.7105 98.1967 74.2762C97.5731 73.8001 96.9336 73.3813 96.3196 73.0275C96.8094 75.338 96.9146 77.0125 96.822 78.192C96.7689 78.8695 96.6494 79.3974 96.4905 79.7934C96.3473 80.1502 96.1531 80.4464 95.9029 80.6207C91.2846 85.1024 90.6945 89.499 91.0499 91.9217C92.2578 89.775 93.5406 88.8431 94.9025 88.2899C95.4406 88.0713 96.0011 87.9095 96.5388 87.7543C96.7556 87.6917 96.9687 87.6302 97.1751 87.5665C97.9134 87.3385 98.6368 87.065 99.3694 86.5824C99.3907 86.5684 99.4121 86.5542 99.4334 86.5397C99.4461 86.5312 99.4589 86.5225 99.4716 86.5138ZM11.7578 88.6227C13.0662 88.3871 13.9266 88.3361 14.6824 88.4201C14.809 88.4342 14.9336 88.4522 15.0577 88.474C13.0145 88.8846 11.1437 89.5406 9.5772 90.389C7.47408 91.5281 5.87071 93.0421 5.18855 94.8228C4.49345 96.6373 4.79027 98.6355 6.30278 100.62C7.54412 102.249 9.60708 103.877 12.6346 105.44C11.4618 105.266 10.2278 104.831 9.05431 104.186C7.14604 103.138 5.46222 101.569 4.51638 99.7895C3.57741 98.0228 3.37066 96.0678 4.35551 94.1606C5.34837 92.2379 7.59616 90.2774 11.7578 88.6227ZM14.793 87.4263C15.6933 87.5264 16.4845 87.7937 17.4757 88.1658L17.3541 89.131C14.5674 89.4342 12.0326 90.1964 10.0535 91.2684C8.06617 92.3447 6.68741 93.7056 6.12237 95.1805C5.57029 96.6217 5.76123 98.2598 7.09811 100.014C8.45084 101.789 10.9709 103.666 15.0343 105.482L16.5486 106.159L14.9126 106.432C12.9152 106.765 10.6114 106.183 8.57282 105.063C6.5296 103.94 4.68795 102.243 3.63335 100.259C2.57188 98.2617 2.30321 95.9554 3.46699 93.7018C4.6191 91.4707 7.13111 89.3781 11.4358 87.6746L11.4817 87.6564L11.5302 87.6476C12.9111 87.3963 13.8911 87.326 14.793 87.4263ZM11.8889 98.352C11.8856 97.9699 11.919 97.608 11.9867 97.2656C12.2527 95.9199 13.0351 94.9432 14.0515 94.2608C15.2576 93.4511 16.8102 93.0419 18.3038 92.8791C16.5979 92.3846 15.2888 92.3025 14.3087 92.4859C12.936 92.7428 12.1733 93.5249 11.8136 94.5475C11.4421 95.6033 11.4931 96.9491 11.8656 98.2708C11.8732 98.2979 11.881 98.325 11.8889 98.352ZM14.1248 91.503C15.8213 91.1855 18.1375 91.557 21.2016 92.8714L20.9672 93.8295C18.9893 93.6813 16.3238 93.9397 14.6089 95.0911C13.771 95.6536 13.1734 96.4188 12.9677 97.4596C12.7593 98.5138 12.9396 99.9183 13.8019 101.772L12.9907 102.332C12.0574 101.376 11.311 99.9893 10.9031 98.5421C10.4961 97.0982 10.4082 95.5289 10.8702 94.2156C11.344 92.8691 12.3872 91.8281 14.1248 91.503ZM97.1581 111.313C97.9402 110.654 99.0501 110.251 100.237 110.01C102.62 109.525 105.545 109.642 107.507 109.892L107.933 109.947L107.943 110.377C107.985 112.141 107.786 114.777 107.033 116.943C106.656 118.026 106.127 119.032 105.384 119.746C104.714 120.39 103.876 120.788 102.866 120.793C102.472 121.931 101.825 122.745 101.008 123.286C100.112 123.879 99.0514 124.118 97.9849 124.145C95.8643 124.199 93.5948 123.422 92.1545 122.702L91.8783 122.563V122.254C91.8783 119.853 92.3191 117.729 93.106 116.187C93.7934 114.839 94.792 113.86 96.0439 113.642C96.046 112.672 96.4668 111.897 97.1581 111.313ZM97.8029 112.078C97.2372 112.555 96.9494 113.169 97.0717 114.026L97.1531 114.597H96.5767C95.6102 114.597 94.6963 115.27 93.9968 116.641C93.3845 117.842 92.9829 119.502 92.896 121.45C94.0495 120.879 95.4956 120.095 96.7337 119.278C97.494 118.777 98.158 118.276 98.6261 117.815C98.8602 117.584 99.0329 117.376 99.1443 117.195C99.2579 117.01 99.2873 116.886 99.2873 116.816V116.316H99.7873C100.129 116.316 100.642 116.118 101.303 115.693C101.945 115.279 102.654 114.698 103.369 114.038C104.504 112.99 105.624 111.772 106.464 110.785C104.642 110.622 102.333 110.604 100.437 110.99C99.3165 111.218 98.3981 111.576 97.8029 112.078ZM106.926 111.781C106.108 112.722 105.087 113.814 104.047 114.773C103.311 115.452 102.554 116.076 101.845 116.533C101.302 116.883 100.739 117.167 100.209 117.272C100.157 117.429 100.082 117.579 99.9962 117.718C99.8279 117.992 99.5953 118.264 99.3277 118.527C98.7926 119.054 98.0674 119.597 97.2841 120.113C96.0821 120.906 94.7012 121.663 93.5595 122.237C94.8445 122.753 96.4655 123.184 97.9593 123.145C98.9015 123.121 99.7615 122.911 100.456 122.452C101.141 121.998 101.706 121.274 102.022 120.142L102.135 119.739L102.551 119.779C103.43 119.863 104.122 119.572 104.691 119.025C105.276 118.463 105.738 117.621 106.088 116.615C106.616 115.098 106.857 113.301 106.926 111.781ZM88.6697 111.587C88.5107 111.601 88.2251 111.697 87.7237 111.947C87.3756 112.121 87.2109 112.25 87.1467 112.333C87.1388 112.344 87.1341 112.351 87.1314 112.356C87.1333 112.363 87.1373 112.374 87.1453 112.39C87.2459 112.591 87.5334 112.761 87.9328 112.761C88.3323 112.761 88.6198 112.591 88.7204 112.39C88.8019 112.227 88.8294 112.102 88.8294 111.995C88.8294 111.888 88.8019 111.764 88.7204 111.601C88.7175 111.595 88.7149 111.59 88.7127 111.586C88.7031 111.586 88.6891 111.586 88.6697 111.587ZM89.1947 110.704C89.3945 110.812 89.5272 110.978 89.615 111.154C89.7491 111.422 89.8294 111.7 89.8294 111.995C89.8294 112.291 89.7491 112.568 89.615 112.837C89.2842 113.499 88.5526 113.761 87.9328 113.761C87.3131 113.761 86.5814 113.499 86.2507 112.837C86.164 112.663 86.1142 112.468 86.1342 112.26C86.1542 112.051 86.2401 111.872 86.354 111.724C86.5661 111.448 86.9103 111.236 87.2765 111.053C87.7751 110.803 88.2154 110.622 88.5863 110.591C88.7853 110.574 88.9975 110.597 89.1947 110.704ZM181.769 173.269C180.736 174.302 180.183 175.719 180.487 177.021C180.689 177.887 181.054 178.564 181.563 179.072C182.071 179.581 182.748 179.946 183.614 180.148C184.916 180.452 186.333 179.899 187.366 178.866C188.399 177.833 188.953 176.416 188.648 175.114C188.446 174.248 188.081 173.571 187.572 173.063C187.064 172.554 186.387 172.189 185.521 171.987C184.219 171.683 182.802 172.236 181.769 173.269ZM181.062 172.562C182.266 171.358 184.021 170.609 185.749 171.013C186.766 171.251 187.619 171.695 188.28 172.356C188.94 173.016 189.384 173.869 189.622 174.886C190.026 176.615 189.277 178.369 188.073 179.573C186.869 180.777 185.115 181.526 183.386 181.122C182.37 180.884 181.517 180.44 180.856 179.779C180.195 179.119 179.751 178.266 179.513 177.249C179.109 175.52 179.858 173.766 181.062 172.562ZM120.001 218.721C119.842 215.683 122.459 213.054 125.5 213.223C128.207 213.373 130.279 215.435 130.422 218.146C130.58 221.161 127.983 223.831 124.952 223.672C123.475 223.594 122.264 223.046 121.405 222.152C120.548 221.261 120.071 220.058 120.001 218.721ZM125.445 214.221C123.002 214.086 120.871 216.221 120.999 218.668C121.059 219.8 121.457 220.765 122.125 221.459C122.791 222.151 123.754 222.607 125.004 222.673C127.427 222.801 129.551 220.636 129.423 218.198C129.307 216.001 127.645 214.343 125.445 214.221ZM123.009 239.098L124.138 239.449C126.059 240.045 128.051 241.625 129.827 243.725C131.612 245.835 133.219 248.517 134.352 251.393C136.605 257.108 137.052 263.782 133.003 268.199C122.001 280.201 115.558 287.33 111.175 294.632C106.804 301.914 104.472 309.388 101.758 322.104L101.395 323.806L100.799 322.171C98.1879 315.004 97.1583 296.731 113.511 280.363C121.595 272.27 125.956 265.925 127.387 259.781C128.811 253.662 127.349 247.647 123.544 240.153L123.009 239.098ZM125.037 240.913C128.448 247.961 129.782 253.904 128.361 260.008C126.865 266.435 122.335 272.945 114.218 281.069C99.4279 295.874 99.1826 312.197 101.186 320.021C103.741 308.389 106.083 301.172 110.318 294.117C114.764 286.71 121.287 279.5 132.265 267.523C135.921 263.535 135.627 257.354 133.422 251.759C132.326 248.98 130.775 246.394 129.064 244.371C127.748 242.815 126.361 241.619 125.037 240.913Z" fill="black"/>
<path d="M159 267.801V220.811V212H200.662V256.854H193.451L200.662 263.262V322L187.576 304.646V270.471L173.154 259.257V285.956L159 267.801Z" fill="#2A2A2A"/>
<path d="M249 212H207.605V322L243.926 275.01H226.834L221.226 280.617V226.417H235.38V243.505H249V212Z" fill="#2A2A2A"/>
<path fill-rule="evenodd" clip-rule="evenodd" d="M158.5 211.5H201.162V257.354H194.766L201.162 263.038V323.494L187.076 304.813V270.715L173.654 260.279V287.411L158.5 267.973V211.5ZM159.5 212.5V267.629L172.654 284.502V258.235L188.076 270.226V304.478L200.162 320.506V263.487L192.136 256.354H200.162V212.5H159.5ZM207.105 211.5H249.5V244.005H234.88V226.917H221.726V279.41L226.627 274.51H244.944L207.105 323.464V211.5ZM208.105 212.5V320.536L242.907 275.51H227.041L220.726 281.823V225.917H235.88V243.005H248.5V212.5H208.105Z" fill="black"/>
<path d="M186 226H174V243H186V226Z" fill="#E5E5E5"/>
<path d="M229.079 271.65L229.282 269.18C229.94 262.07 232.132 256.045 235.857 251.105H228.411L228.251 253.509H225V247.35H239.936V251.105C238.803 252.63 237.86 254.087 237.105 255.478C236.36 256.858 235.755 258.248 235.291 259.65C234.836 261.041 234.473 262.515 234.202 264.073C233.931 265.619 233.704 267.322 233.52 269.18L233.317 271.65H229.079Z" fill="#DA9640"/>
<path d="M248.949 272C246.743 272 244.996 271.171 243.709 269.513C242.422 267.844 241.779 265.402 241.779 262.187V256.83C241.779 253.626 242.418 251.189 243.695 249.52C244.982 247.84 246.724 247 248.92 247C251.107 247 252.844 247.84 254.131 249.52C255.428 251.189 256.076 253.626 256.076 256.83V262.187C256.076 265.402 255.432 267.844 254.145 269.513C252.868 271.171 251.136 272 248.949 272ZM248.949 268.262C249.897 268.262 250.618 267.817 251.112 266.927C251.605 266.036 251.852 264.612 251.852 262.654V256.329C251.852 254.404 251.601 252.997 251.097 252.107C250.594 251.206 249.868 250.755 248.92 250.755C247.962 250.755 247.236 251.2 246.743 252.09C246.249 252.98 246.003 254.393 246.003 256.329V262.654C246.003 264.612 246.249 266.036 246.743 266.927C247.246 267.817 247.982 268.262 248.949 268.262Z" fill="#DA9640"/>
<path d="M262.143 271.65L262.346 269.18C263.004 262.07 265.196 256.045 268.921 251.105H261.475L261.316 253.509H258.064V247.35H273V251.105C271.868 252.63 270.924 254.087 270.17 255.478C269.425 256.858 268.82 258.248 268.355 259.65C267.901 261.041 267.538 262.515 267.267 264.073C266.996 265.619 266.768 267.322 266.585 269.18L266.381 271.65H262.143Z" fill="#DA9640"/>
</svg>
